<?xml version="1.0" encoding="utf-8"?>
<!-- Generator: Adobe Illustrator 24.1.2, SVG Export Plug-In . SVG Version: 6.00 Build 0)  -->
<svg version="1.1" id="Layer_1" xmlns="http://www.w3.org/2000/svg" xmlns:xlink="http://www.w3.org/1999/xlink" x="0px" y="0px"
	 viewBox="0 0 1080 1080" style="enable-background:new 0 0 1080 1080;" xml:space="preserve">
<style type="text/css">
	.Drop_x0020_Shadow{fill:none;}
	.Outer_x0020_Glow_x0020_5_x0020_pt{fill:none;}
	.Blue_x0020_Neon{fill:none;stroke:#8AACDA;stroke-width:7;stroke-linecap:round;stroke-linejoin:round;}
	.Chrome_x0020_Highlight{fill:url(#SVGID_1_);stroke:#FFFFFF;stroke-width:0.3629;stroke-miterlimit:1;}
	.Jive_GS{fill:#FFDD00;}
	.Alyssa_GS{fill:#A6D0E4;}
	.st0{fill:#F0CD95;}
	.st1{fill:#FEECCB;}
	.st2{fill:#5E001E;}
	.st3{fill:#97002F;}
	.st4{fill:#FFFFFF;}
	.st5{fill:#F4424F;}
	.st6{fill:#14345A;}
	.st7{fill:#3AC1B0;}
	.st8{fill:#3B0215;}
	.st9{fill:#5D001D;}
	.st10{fill:#F9867D;}
	.st11{fill:#FED681;}
	.st12{fill:#D62D41;}
	.st13{fill:#707070;}
	.st14{fill:#FFD780;}
	.st15{enable-background:new    ;}
	.st16{fill:#D27563;}
</style>
<linearGradient id="SVGID_1_" gradientUnits="userSpaceOnUse" x1="0" y1="0" x2="6.123234e-17" y2="-1">
	<stop  offset="0" style="stop-color:#656565"/>
	<stop  offset="0.618" style="stop-color:#1B1B1B"/>
	<stop  offset="0.6292" style="stop-color:#545454"/>
	<stop  offset="0.9831" style="stop-color:#3E3E3E"/>
</linearGradient>
<g id="Group_4" transform="translate(223.455 455.881)">
	<g id="Group_2">
		<ellipse id="Ellipse_1" class="st0" cx="243.2" cy="285.9" rx="163.5" ry="6.9"/>
	</g>
	<g id="Group_3" transform="translate(317.985 23.193)">
		<path id="Path_1" class="st0" d="M200.1,286.9c0,3.3-21.2,6-47.3,6s-47.3-2.7-47.3-6c0-3.3,21.2-6,47.3-6S200.1,283.6,200.1,286.9
			z"/>
	</g>
</g>
<g id="Group_285">
	<g id="Group_5" transform="translate(46.685)">
		<path id="Path_2" class="st0" d="M958.9,363.4c-14-21.1-37.3-37-62.4-35.9c-22.2,1-41.5,14.4-61.5,24.1
			c-20,9.7-45.4,15.4-63.2,2.2c-12.1-9-17.3-24.3-24.4-37.7c-24.6-46.4-78.1-73.4-130.7-74c-52.5-0.6-103.4,22.2-144.4,55.1
			s-73.1,75.5-102.2,119.2C348,449.6,321,487.8,281,489.7c-35.6,1.7-66.1-27-101.6-30.9c-42.8-4.8-80.3,26.6-111.9,55.9
			c-4.1,53.5-2.4,110.2,4.1,164.9h887.2L958.9,363.4z"/>
	</g>
	<g id="Group_92" transform="translate(307.239 183.298)">
		<g id="Group_29" transform="translate(293.541)">
			<g id="Group_6">
				<path id="Path_3" class="st1" d="M245,345.1h14.7L185,256.9l-37.9,44.7v-15.5h-16.6v35.1l-20.2,23.9H125v47.7h-7.8v9.9h7.8v94.9
					H245v-94.9h10v-9.9h-10V345.1z"/>
			</g>
			<g id="Group_28" transform="translate(32.693 49.303)">
				<g id="Group_13" transform="translate(18.625)">
					<g id="Group_9">
						<g id="Group_7">
							<rect id="Rectangle_2" x="114.4" y="260.9" class="st0" width="14" height="14"/>
						</g>
						<g id="Group_8" transform="translate(15.411)">
							<rect id="Rectangle_3" x="115.7" y="260.9" class="st0" width="14" height="14"/>
						</g>
					</g>
					<g id="Group_12" transform="translate(0 15.286)">
						<g id="Group_10">
							<rect id="Rectangle_4" x="114.4" y="262.1" class="st0" width="14" height="14"/>
						</g>
						<g id="Group_11" transform="translate(15.411)">
							<rect id="Rectangle_5" x="115.7" y="262.1" class="st0" width="14" height="14"/>
						</g>
					</g>
				</g>
				<g id="Group_20" transform="translate(0 102.055)">
					<g id="Group_16">
						<g id="Group_14">
							<rect id="Rectangle_6" x="112.9" y="269.2" class="st0" width="14" height="14"/>
						</g>
						<g id="Group_15" transform="translate(15.411)">
							<rect id="Rectangle_7" x="114.2" y="269.2" class="st0" width="14" height="14"/>
						</g>
					</g>
					<g id="Group_19" transform="translate(0 15.287)">
						<g id="Group_17">
							<rect id="Rectangle_8" x="112.9" y="270.4" class="st0" width="14" height="14"/>
						</g>
						<g id="Group_18" transform="translate(15.411)">
							<rect id="Rectangle_9" x="114.2" y="270.4" class="st0" width="14" height="14"/>
						</g>
					</g>
				</g>
				<g id="Group_27" transform="translate(48.846 102.055)">
					<g id="Group_23">
						<g id="Group_21">
							<rect id="Rectangle_10" x="116.9" y="269.2" class="st0" width="14" height="14"/>
						</g>
						<g id="Group_22" transform="translate(15.411)">
							<rect id="Rectangle_11" x="118.1" y="269.2" class="st0" width="14" height="14"/>
						</g>
					</g>
					<g id="Group_26" transform="translate(0 15.287)">
						<g id="Group_24">
							<rect id="Rectangle_12" x="116.9" y="270.4" class="st0" width="14" height="14"/>
						</g>
						<g id="Group_25" transform="translate(15.411)">
							<rect id="Rectangle_13" x="118.1" y="270.4" class="st0" width="14" height="14"/>
						</g>
					</g>
				</g>
			</g>
		</g>
		<g id="Group_53" transform="translate(0 54.675)">
			<g id="Group_30">
				<path id="Path_4" class="st1" d="M188.1,327.8h11.1l-56.4-66.5l-28.6,33.7v-11.7h-12.5v26.5l-15.3,18h11.1v36h-5.8v7.5h5.8V443
					h90.6v-71.6h7.5v-7.5h-7.5L188.1,327.8z"/>
			</g>
			<g id="Group_52" transform="translate(24.665 37.197)">
				<g id="Group_37" transform="translate(14.052)">
					<g id="Group_33">
						<g id="Group_31">
							<rect id="Rectangle_14" x="89.6" y="264.3" class="st0" width="10.5" height="10.5"/>
						</g>
						<g id="Group_32" transform="translate(11.626)">
							<rect id="Rectangle_15" x="90.5" y="264.3" class="st0" width="10.5" height="10.5"/>
						</g>
					</g>
					<g id="Group_36" transform="translate(0 11.533)">
						<g id="Group_34">
							<rect id="Rectangle_16" x="89.6" y="265.3" class="st0" width="10.5" height="10.5"/>
						</g>
						<g id="Group_35" transform="translate(11.626)">
							<rect id="Rectangle_17" x="90.5" y="265.3" class="st0" width="10.5" height="10.5"/>
						</g>
					</g>
				</g>
				<g id="Group_44" transform="translate(0 76.995)">
					<g id="Group_40">
						<g id="Group_38">
							<rect id="Rectangle_18" x="88.4" y="270.6" class="st0" width="10.5" height="10.5"/>
						</g>
						<g id="Group_39" transform="translate(11.626)">
							<rect id="Rectangle_19" x="89.4" y="270.6" class="st0" width="10.5" height="10.5"/>
						</g>
					</g>
					<g id="Group_43" transform="translate(0 11.533)">
						<g id="Group_41">
							<rect id="Rectangle_20" x="88.4" y="271.5" class="st0" width="10.5" height="10.5"/>
						</g>
						<g id="Group_42" transform="translate(11.626)">
							<rect id="Rectangle_21" x="89.4" y="271.5" class="st0" width="10.5" height="10.5"/>
						</g>
					</g>
				</g>
				<g id="Group_51" transform="translate(36.852 76.995)">
					<g id="Group_47">
						<g id="Group_45">
							<rect id="Rectangle_22" x="91.4" y="270.6" class="st0" width="10.5" height="10.5"/>
						</g>
						<g id="Group_46" transform="translate(11.627)">
							<rect id="Rectangle_23" x="92.4" y="270.6" class="st0" width="10.5" height="10.5"/>
						</g>
					</g>
					<g id="Group_50" transform="translate(0 11.533)">
						<g id="Group_48">
							<rect id="Rectangle_24" x="91.4" y="271.5" class="st0" width="10.5" height="10.5"/>
						</g>
						<g id="Group_49" transform="translate(11.627)">
							<rect id="Rectangle_25" x="92.4" y="271.5" class="st0" width="10.5" height="10.5"/>
						</g>
					</g>
				</g>
			</g>
		</g>
		<g id="Group_91" transform="translate(149.734 30.573)">
			<g id="Group_54">
				<path id="Path_5" class="st1" d="M220.4,339.1h13.3l-67.6-79.7l-34.3,40.4v-14h-15v31.7l-18.3,21.6h13.3v53.5h-5.4v7h5.4v75.6
					h108.5v-75.6h4.8v-7h-4.8V339.1z"/>
			</g>
			<g id="Group_76" transform="translate(18.95 77.019)">
				<g id="Group_61">
					<g id="Group_57">
						<g id="Group_55">
							<rect id="Rectangle_26" x="100.1" y="265.6" class="st0" width="11" height="11"/>
						</g>
						<g id="Group_56" transform="translate(12.158)">
							<rect id="Rectangle_27" x="101.1" y="265.6" class="st0" width="11" height="11"/>
						</g>
					</g>
					<g id="Group_60" transform="translate(0 12.06)">
						<g id="Group_58">
							<rect id="Rectangle_28" x="100.1" y="266.6" class="st0" width="11" height="11"/>
						</g>
						<g id="Group_59" transform="translate(12.158)">
							<rect id="Rectangle_29" x="101.1" y="266.6" class="st0" width="11" height="11"/>
						</g>
					</g>
				</g>
				<g id="Group_68" transform="translate(31.836)">
					<g id="Group_64">
						<g id="Group_62">
							<rect id="Rectangle_30" x="102.7" y="265.6" class="st0" width="11" height="11"/>
						</g>
						<g id="Group_63" transform="translate(12.158)">
							<rect id="Rectangle_31" x="103.7" y="265.6" class="st0" width="11" height="11"/>
						</g>
					</g>
					<g id="Group_67" transform="translate(0 12.06)">
						<g id="Group_65">
							<rect id="Rectangle_32" x="102.7" y="266.6" class="st0" width="11" height="11"/>
						</g>
						<g id="Group_66" transform="translate(12.158)">
							<rect id="Rectangle_33" x="103.7" y="266.6" class="st0" width="11" height="11"/>
						</g>
					</g>
				</g>
				<g id="Group_75" transform="translate(63.672)">
					<g id="Group_71">
						<g id="Group_69">
							<rect id="Rectangle_34" x="105.3" y="265.6" class="st0" width="11" height="11"/>
						</g>
						<g id="Group_70" transform="translate(12.158)">
							<rect id="Rectangle_35" x="106.3" y="265.6" class="st0" width="11" height="11"/>
						</g>
					</g>
					<g id="Group_74" transform="translate(0 12.06)">
						<g id="Group_72">
							<rect id="Rectangle_36" x="105.3" y="266.6" class="st0" width="11" height="11"/>
						</g>
						<g id="Group_73" transform="translate(12.158)">
							<rect id="Rectangle_37" x="106.3" y="266.6" class="st0" width="11" height="11"/>
						</g>
					</g>
				</g>
			</g>
			<g id="Group_83" transform="translate(24.619 144.67)">
				<g id="Group_79">
					<g id="Group_77">
						<path id="Path_6" class="st0" d="M111.4,281.9h-10.8v-0.1c0-5.9,4.8-10.6,10.6-10.6l0,0h0.1V281.9z"/>
					</g>
					<g id="Group_78" transform="translate(11.863)">
						<path id="Path_7" class="st0" d="M112.3,281.9h-10.8v-10.8h0.1c5.9,0,10.7,4.8,10.7,10.6c0,0,0,0,0,0L112.3,281.9z"/>
					</g>
				</g>
				<g id="Group_82" transform="translate(0 11.767)">
					<g id="Group_80">
						<rect id="Rectangle_38" x="100.6" y="272.1" class="st0" width="10.8" height="10.8"/>
					</g>
					<g id="Group_81" transform="translate(11.863)">
						<rect id="Rectangle_39" x="101.6" y="272.1" class="st0" width="10.8" height="10.8"/>
					</g>
				</g>
			</g>
			<g id="Group_90" transform="translate(77.785 144.67)">
				<g id="Group_86">
					<g id="Group_84">
						<path id="Path_8" class="st0" d="M115.7,281.9h-10.8v-0.1c0-5.9,4.8-10.6,10.6-10.6c0,0,0,0,0,0h0.1L115.7,281.9z"/>
					</g>
					<g id="Group_85" transform="translate(11.863)">
						<path id="Path_9" class="st0" d="M116.6,281.9h-10.8v-10.8h0.1c5.9,0,10.6,4.8,10.6,10.6l0,0V281.9z"/>
					</g>
				</g>
				<g id="Group_89" transform="translate(0.001 11.767)">
					<g id="Group_87">
						<rect id="Rectangle_40" x="104.9" y="272.1" class="st0" width="10.8" height="10.8"/>
					</g>
					<g id="Group_88" transform="translate(11.863)">
						<rect id="Rectangle_41" x="105.9" y="272.1" class="st0" width="10.8" height="10.8"/>
					</g>
				</g>
			</g>
		</g>
	</g>
	<g id="Group_100" transform="translate(692.162 122.822)">
		<g id="Group_94" transform="translate(28.575)">
			<rect id="Rectangle_43" x="120" y="252" class="st2" width="182.7" height="347.7"/>
		</g>
		<g id="Group_95" transform="translate(37.249 8.858)">
			<path id="Path_475" class="st2" d="M120.7,252.7h163.4V591H120.7V252.7z"/>
		</g>
		<g id="Group_96" transform="translate(67.202 11.354)">
			<path id="Path_476" class="st3" d="M123.2,252.9h131.1v335.6H123.2V252.9z"/>
		</g>
		<g id="Group_97" transform="translate(14.591 322.229)">
			<rect id="Rectangle_46" x="118.9" y="278.1" class="st0" width="197.7" height="11.8"/>
		</g>
		<g id="Group_98" transform="translate(0 332.717)">
			<rect id="Rectangle_47" x="117.7" y="279" class="st0" width="197.7" height="11.8"/>
		</g>
		<g id="Group_99" transform="translate(50.042 124.137)">
			<path id="Path_10" class="st1" d="M131.9,267.1c0,2.8-2.3,5.1-5.1,5.1c-2.8,0-5.1-2.3-5.1-5.1c0-2.8,2.3-5.1,5.1-5.1
				C129.6,262.1,131.9,264.3,131.9,267.1C131.9,267.1,131.9,267.1,131.9,267.1z"/>
		</g>
	</g>
	<g id="Group_103" transform="translate(627.401 24.287)">
		<g id="Group_101" transform="translate(0 0)">
			<path id="Path_11" class="st3" d="M222.2,298.8c0-30.3-24.6-54.9-54.9-54.9s-54.9,24.6-54.9,54.9c0,13.4,4.9,26.3,13.7,36.3
				c11,12.5,21.7,25.5,30.9,39.4l10.3,15.5l7.3-11.1c9.9-15,20.6-29.6,32.9-42.7C217,326.1,222.2,312.7,222.2,298.8z"/>
		</g>
		<g id="Group_102" transform="translate(23.449 23.448)">
			<ellipse id="Ellipse_2" class="st4" cx="143.9" cy="275.4" rx="29.5" ry="29.5"/>
		</g>
	</g>
	<g id="Group_109" transform="translate(704.388 304.747)">
		<g id="Group_104" transform="translate(8.923 4.989)">
			<rect id="Rectangle_48" x="119.4" y="267.2" class="st5" width="6.7" height="4.6"/>
		</g>
		<g id="Group_107" transform="translate(1.724 6.928)">
			<g id="Group_105" transform="translate(2.888)">
				<path id="Path_12" class="st5" d="M135.1,300.6h-16v-26.7c0-3.6,2.9-6.5,6.5-6.5l0,0h3c3.6,0,6.5,2.9,6.5,6.5c0,0,0,0,0,0
					L135.1,300.6z"/>
			</g>
			<g id="Group_106" transform="translate(0 15.428)">
				<rect id="Rectangle_49" x="118.8" y="268.6" class="st6" width="24.7" height="7.9"/>
			</g>
		</g>
		<g id="Group_108">
			<path id="Path_13" class="st7" d="M126.1,266.7v2.2h-4.8c-1.7,0.3-2.9,1.8-2.7,3.5h1.8c0,0-0.1-1.8,1.2-2.1
				c1.5,0.1,3.1,0.4,4.5,1v2.1h10.7v-6.7H126.1z"/>
		</g>
	</g>
	<g id="Group_113" transform="translate(665.03 223.985)">
		<g id="Group_110" transform="translate(14.976)">
			<rect id="Rectangle_50" x="116.7" y="260.2" class="st8" width="96.6" height="80.4"/>
		</g>
		<g id="Group_111">
			<rect id="Rectangle_51" x="115.5" y="260.2" class="st3" width="96.6" height="80.4"/>
		</g>
		<g id="Group_112" transform="translate(20.584 16.973)">
			<path id="Path_14" class="st9" d="M164.1,289.2l-23.5-27.6l-23.5,27.6h12.2v8.4H152v-8.4H164.1z"/>
		</g>
	</g>
	<g id="Group_182" transform="translate(562.918 165.715)">
		<g id="Group_129" transform="translate(38.469)">
			<g id="Group_116" transform="translate(0 22.739)">
				<g id="Group_114">
					<path id="Path_15" class="st10" d="M138.5,268.9c-8.1-2.8-9.8-4.9-15.2-11.6l-13,19.6c6.7,6.8,14.6,12.3,23.2,16.4
						C132.4,284.5,133.7,274.8,138.5,268.9z"/>
				</g>
				<g id="Group_115" transform="translate(13.017 1.774)">
					<path id="Path_16" class="st8" d="M120.6,279.6c0.7-4.8,2.3-9.2,5-12.5c-7.3-2.5-9.4-4.5-13.7-9.7
						C109.9,266.8,113.9,274.3,120.6,279.6z"/>
				</g>
			</g>
			<g id="Group_119" transform="translate(8.762 1.381)">
				<g id="Group_117" transform="translate(2.01 1.325)">
					<path id="Path_17" class="st10" d="M142.7,266.2c-0.4-3.1-2.3-5.9-5.1-7.4c-2.7-1.5-5.7-2.4-8.8-2.7c-4-0.6-8.3-0.8-11.6,1.5
						c-2.1,1.6-3.7,3.8-4.5,6.4c-2.5,7.2-1.7,15.2,2.1,21.8c3.8,6.5,8.9,11.9,16.1,13.2c2.6-4.7,4.7-7.5,6.7-13.1
						c0.4-1.2-0.2-2.5,0-3.2c0.3-0.8,1.7-1.6,2-2.4c1.2-3.6,1.6-5.8,2.5-9.5C142.5,269.3,142.7,267.7,142.7,266.2z"/>
				</g>
				<g id="Group_118" transform="translate(0 7.523)">
					<path id="Path_18" class="st8" d="M126.3,269.2c0.3-1.2,1.5-1.9,2.7-1.7c1.2,0.4,1.9,1.5,1.8,2.7c-0.1,1.6-0.3,2.7,0.2,3.4
						c1.4-3,3.2-5.9,5.4-8.5c-6-2.9-12.1-5.8-18.1-8.6c-0.4-0.3-0.9-0.4-1.5-0.4c-0.5,0-0.9,0.2-1.3,0.4c-1.7,1.2-2.8,3.1-3.1,5.2
						c-0.2,2.1-0.3,4.1-0.1,6.2c0.1,2.1-0.3,4.1-1.2,6c3.6,0.3,7.2-0.3,10.5-1.8c1.4-0.6,2.9-1.4,4.3-0.9
						C125.9,270.5,126.1,269.9,126.3,269.2z"/>
				</g>
				<path id="Path_19" class="st6" d="M122.3,256.1c3.2-0.9,6.6-0.4,9.9,0.4c3.7,0.8,7.2,2.3,10.4,4.4c1.1,0.7,1.9,1.7,2.4,2.9
					c0.2,0.9,0.3,1.8,0.2,2.8c-0.1,1.5-0.2,3-0.3,4.5c0.3,1.5-0.7,2.9-2.1,3.1c-0.5,0.1-1,0.1-1.4-0.1c-5.1-0.4-10.2-0.8-14.9-2.9
					c-3-1.3-5.8-3.4-9-4.1c-0.8-0.1-1.5-0.4-2.1-0.8c-0.8-0.8-0.7-2.2-0.3-3.3C116.2,259.6,118.9,257.1,122.3,256.1z"/>
			</g>
			<g id="Group_124" transform="translate(11.413)">
				<g id="Group_120">
					<path id="Path_20" class="st3" d="M130.6,257.1c3.4,1.2,6.8,2.7,9.9,4.6c2.4,0.8,3.7,3.4,3,5.8c0,0.1-0.1,0.2-0.1,0.3
						c-0.7,3.4-1.7,6.7-2.9,10c-8.9-0.3-17.7-2.8-25.5-7.1c-1.9-1-3.9-2.5-3.9-4.7c0.1-1,0.4-2,1-2.9c0.9-2,2.2-3.8,3.8-5.3
						c2-1.6,4.6-2.4,7.1-2.2C125.7,255.6,128.3,256.1,130.6,257.1z"/>
				</g>
				<g id="Group_121" transform="translate(18.151 4.027)">
					<path id="Path_21" class="st11" d="M124,266.2c0.6-1.6,0.7-3.2,0.4-4.9c-0.6-1.6-1.7-2.9-3.3-3.6c-1.5-0.7-3.1-1.4-4.6-1.9
						c0.7,1,1.1,2.3,1,3.6c-0.1,1.3-0.3,2.5-0.7,3.7c-1,3.3-2.4,6.5-4.1,9.5c1.4,0.4,2.8,0.6,4.2,0.6c1.4,0.1,2.8-0.3,4-1.1
						C122.7,270.7,123.4,268.4,124,266.2z"/>
				</g>
				<g id="Group_122" transform="translate(14.533 18.27)">
					<path id="Path_22" class="st2" d="M126.5,257c1.9,0.1,2.1,1.3,8.7,3.6c-3.7,2.2-7.1,3.2-11.2,1.7c-4-1.4-7.9-3.1-11.6-5.1
						C117,258.3,121.8,256.8,126.5,257z"/>
				</g>
				<g id="Group_123" transform="translate(1.223 5.631)">
					<path id="Path_23" class="st8" d="M114.2,256.9c-0.1-0.3-0.3-0.5-0.5-0.7c-0.2-0.2-0.5-0.3-0.8-0.3c-0.3,0.1-0.5,0.3-0.6,0.6
						c-0.4,0.6-0.7,1.3-0.8,2c-0.1,0.8,0.4,1.5,1.1,1.7c0.5-0.9,1-1.8,1.5-2.7C114.1,257.4,114.2,257.1,114.2,256.9z"/>
				</g>
			</g>
			<g id="Group_128" transform="translate(20.418 21.332)">
				<g id="Group_125" transform="translate(1.076 8.287)">
					<path id="Path_24" class="st4" d="M127.9,260.5c-0.2-0.8-0.3-1.8-1-2.2c-0.6-0.3-1.3-0.4-1.9-0.4c-3.3,0-3.7,0.3-7,0.4
						c-1.2,3.1-4.3,4.9-6,7.7c1.1,1.3,1.4,4,3,4.7c1.6,0.6,3.2,1.1,4.8,1.5c0.8,0.4,1.8,0.2,2.3-0.6c0.7-0.8,1.2-1.5,1.9-2.3
						c1.3-1.3,2.4-2.7,3.4-4.2C128.2,263.7,128.4,262,127.9,260.5z"/>
				</g>
				<g id="Group_126">
					<path id="Path_25" class="st4" d="M114.9,275.9c-0.1,0-0.1,0-0.2,0c-1.1-0.3-1.8-1.3-2.2-3.1c-1-5.1-0.7-10.3,1.1-15.2
						c0.1-0.3,0.5-0.4,0.8-0.3c0.3,0.1,0.4,0.4,0.3,0.7c-1.7,4.7-2,9.7-1,14.5c0.3,1.3,0.7,2.1,1.4,2.2c0.3,0.1,0.5,0.4,0.4,0.7
						C115.4,275.7,115.2,275.9,114.9,275.9L114.9,275.9z"/>
				</g>
				<g id="Group_127" transform="translate(5.951 1.619)">
					<path id="Path_26" class="st4" d="M114.4,267.3c-0.2,0-0.4-0.1-0.5-0.3c-1.6-2.8-1.9-6.2-0.8-9.3c0.1-0.3,0.5-0.4,0.8-0.3
						c0.3,0.1,0.4,0.4,0.3,0.7c-1,2.7-0.7,5.8,0.7,8.3c0.2,0.3,0.1,0.6-0.2,0.8C114.7,267.2,114.6,267.3,114.4,267.3z"/>
				</g>
			</g>
		</g>
		<g id="Group_130" transform="translate(33.738 48.233)">
			<path id="Path_27" class="st8" d="M209.4,342.6c-1.9-1.9-3.6-4-5-6.2c-0.3-0.5-0.6-1-0.7-1.5c-0.1-0.5,0-1.1,0.3-1.6
				c0.6-0.5,1.3-0.8,2.1-0.9c0.8-0.2,1.5-0.7,1.9-1.3c0.5-0.7,0.4-1.6-0.1-2.3c-2.7,1.4-6.1,0.1-9.1,0.8c-1.4,0.4-2.7,1-3.9,1.8
				c-2.3-0.8-4.4-1.7-6.5-3l0,0.1c-23.8-15.1-49.3-50.6-59.8-66.4c-12.4-6.2-20-2.2-18.6,9.7c7.4,43,46.3,63.3,72.8,69
				c-0.1,0.2-0.2,0.4-0.3,0.6c2.2,0.6,4.4,1.2,6.6,2c2,2,4.3,3.6,6.8,4.9c0.9,0.6,2,0.8,3,0.6c0.9-0.3,1.7-1.1,2.6-1.3
				c0.8-0.1,1.5,0.2,2.3,0.1c1.2-0.2,1.9-1.6,3.1-2c0.6-0.1,1.2-0.2,1.9-0.2c0.6,0,1.2-0.4,1.4-1
				C210.5,343.8,209.9,343.1,209.4,342.6z"/>
		</g>
		<g id="Group_152" transform="translate(7.231 130.761)">
			<g id="Group_150" transform="translate(20.551 168.711)">
				<g id="Group_139" transform="translate(0.023 12.251)">
					<path id="Path_28" class="st4" d="M144,283.1c-0.1-0.8-0.2-1.6-0.3-2.3c-10.1,0.8-20.3,1-30.4,0.6c-0.7-0.1-1.4,0-2.1,0.1
						c-0.7,0.2-1.1-0.2-1.5,0.5c-0.3,0.7-0.5,2.3,0.1,2.8c5.4,0.8,10.9,0.5,16.3,0.8c3.1,0.3,6.1,0.4,9.2,0.4
						C138.4,285.9,141.4,284.9,144,283.1z"/>
				</g>
				<g id="Group_140">
					<path id="Path_29" class="st6" d="M127.9,296.6c5.5,0.2,11.3,0.3,16.2-2.3c-0.2-2.2-1.5-4.1-3.5-5.1c-2-0.9-4-1.5-6.2-1.7
						c-2.1-0.3-4.2-1-6-2.1c-1.8-1.2-2.8-3.4-2.4-5.6c-4.9,0.5-9.8,0.7-14.7,0.4c-1.4,5-2,10.2-1.8,15.3
						C115.6,296,121.8,296.3,127.9,296.6z"/>
				</g>
				<g id="Group_149" transform="translate(14.086 4.725)">
					<g id="Group_142">
						<g id="Group_141">
							<path id="Path_30" class="st12" d="M111,280.2c0.3,0,0.5,0,0.7,0.2c3.7,2.1,7.9,3.4,12.2,3.6c-0.8,0.9-1.8,1.4-3,1.4
								c-1.1,0-2.2-0.2-3.3-0.5c-2.4-0.6-5-1.3-6.6-3.3c-0.2-0.2-0.3-0.5-0.4-0.7C110.6,280.6,110.7,280.3,111,280.2z"/>
						</g>
					</g>
					<g id="Group_144" transform="translate(1.237 0.274)">
						<g id="Group_143">
							<path id="Path_31" class="st4" d="M111.4,284.1c-0.4,0-0.7-0.2-0.7-0.6c0-0.2,0-0.3,0.1-0.4c0.7-1,1.5-1.9,2.4-2.7
								c0.3-0.2,0.7-0.2,0.9,0c0.2,0.3,0.2,0.7,0,0.9c-0.8,0.8-1.6,1.6-2.2,2.5C111.7,283.9,111.6,284,111.4,284.1z"/>
						</g>
					</g>
					<g id="Group_146" transform="translate(3.735 1.457)">
						<g id="Group_145">
							<path id="Path_32" class="st4" d="M111.6,283.9c-0.4,0-0.7-0.2-0.7-0.6c0-0.1,0-0.3,0.1-0.4c0.6-0.9,1.3-1.8,2-2.5
								c0.3-0.2,0.7-0.2,0.9,0.1c0.2,0.3,0.2,0.6,0,0.9c-0.7,0.7-1.3,1.4-1.8,2.2C112,283.8,111.8,283.9,111.6,283.9z"/>
						</g>
					</g>
					<g id="Group_148" transform="translate(6.749 2.131)">
						<g id="Group_147">
							<path id="Path_33" class="st4" d="M111.8,283.6c-0.1,0-0.2,0-0.3-0.1c-0.3-0.2-0.4-0.5-0.3-0.9c0,0,0,0,0,0
								c0.4-0.8,0.9-1.5,1.5-2.2c0.2-0.3,0.6-0.3,0.9,0c0.3,0.2,0.3,0.6,0,0.9c0,0,0,0,0,0c-0.5,0.6-1,1.2-1.3,1.9
								C112.3,283.5,112.1,283.6,111.8,283.6z"/>
						</g>
					</g>
				</g>
			</g>
			<g id="Group_151">
				<path id="Path_34" class="st8" d="M131.3,455h21.2c-1.5-60.5,0.5-121,5.1-181.3c-12.2,0.7-24.4-1.7-35.4-7l-9.5-0.6
					c-8.9,34.1-4.1,70.6,3,105.2C121.3,399.1,128.5,426.8,131.3,455z"/>
			</g>
		</g>
		<g id="Group_171" transform="translate(2.893 130.761)">
			<g id="Group_164" transform="translate(11.321 169.565)">
				<g id="Group_153" transform="translate(0 13.616)">
					<path id="Path_35" class="st4" d="M145.5,283.3c-0.1-0.8-0.2-1.6-0.3-2.3c-10.9,0.7-21.9,1-32.8,0.6c-0.7-0.1-1.5,0-2.2,0.1
						c-0.7,0.2-1.2-0.2-1.6,0.5c-0.4,0.7-0.5,2.3,0.1,2.8c5.8,0.8,11.7,0.5,17.5,0.8c3.3,0.3,6.6,0.4,9.9,0.4
						C139.5,286.1,142.7,285.1,145.5,283.3z"/>
				</g>
				<g id="Group_154" transform="translate(0.159)">
					<path id="Path_36" class="st13" d="M128.1,297.8c5.9,0.2,12.1,0.3,17.3-2.4c-0.2-2.3-1.6-4.4-3.7-5.4c-2.1-1-4.3-1.6-6.6-1.9
						c-2.3-0.3-4.5-1-6.4-2.3c-1.9-1.3-3.2-3.7-2.6-5.9c-5.2,0.6-10.5,0.7-15.7,0.5c-1.5,5.3-2.1,10.8-1.9,16.4
						C115,297.1,121.5,297.5,128.1,297.8z"/>
				</g>
				<g id="Group_163" transform="translate(15.799 3.747)">
					<g id="Group_156">
						<g id="Group_155">
							<path id="Path_37" class="st12" d="M110,280.2c0.3,0,0.5,0.1,0.7,0.2c3.5,2.4,7.6,4,11.8,4.6c-0.8,0.8-1.9,1.2-3.1,1.1
								c-1.1-0.1-2.2-0.4-3.3-0.8c-2.4-0.8-4.9-1.7-6.3-3.8c-0.2-0.2-0.3-0.5-0.3-0.8C109.6,280.5,109.8,280.3,110,280.2z"/>
						</g>
					</g>
					<g id="Group_158" transform="translate(1.007 0.564)">
						<g id="Group_157">
							<path id="Path_38" class="st4" d="M110.4,283.9c-0.4,0-0.6-0.3-0.6-0.6c0-0.2,0.1-0.3,0.2-0.4c0.8-0.9,1.7-1.7,2.6-2.5
								c0.3-0.2,0.7-0.2,0.9,0.1c0.2,0.3,0.2,0.7-0.1,0.9c-0.9,0.7-1.7,1.5-2.4,2.3C110.7,283.8,110.5,283.9,110.4,283.9z"/>
						</g>
					</g>
					<g id="Group_160" transform="translate(3.415 1.923)">
						<g id="Group_159">
							<path id="Path_39" class="st4" d="M110.6,283.8c-0.4,0-0.6-0.3-0.6-0.6c0-0.1,0-0.3,0.1-0.4c0.6-0.9,1.4-1.6,2.2-2.3
								c0.3-0.2,0.7-0.2,0.9,0.1c0.2,0.3,0.2,0.7-0.1,0.9c-0.8,0.6-1.4,1.3-2,2.1C110.9,283.7,110.8,283.8,110.6,283.8z"/>
						</g>
					</g>
					<g id="Group_162" transform="translate(6.388 2.807)">
						<g id="Group_161">
							<path id="Path_40" class="st4" d="M110.8,283.6c-0.4,0-0.6-0.3-0.6-0.6c0-0.1,0-0.2,0.1-0.3c0.5-0.8,1-1.4,1.7-2
								c0.3-0.2,0.7-0.2,0.9,0.1c0.2,0.3,0.2,0.6,0,0.9c-0.6,0.5-1.1,1.1-1.5,1.8C111.2,283.4,111,283.6,110.8,283.6z"/>
						</g>
					</g>
				</g>
			</g>
			<g id="Group_170">
				<g id="Group_165">
					<path id="Path_41" class="st3" d="M119.3,455h25c-1.1-61.1,8.4-121,12.9-181.3c-12.2,0.7-24.4-1.7-35.4-7l-9.5-0.6
						c-8.9,34.1-4.1,70.6,3,105.2C121,399.1,118.7,425.7,119.3,455z"/>
				</g>
				<g id="Group_166" transform="translate(25.131 6.168)">
					<path id="Path_42" class="st2" d="M132.1,267.5c-5.4,0.3-10.9,0-16.2-0.9c-4.7,60.1-10.1,121.9-2.9,182.2h6.3
						C118.1,387.7,127.6,327.8,132.1,267.5z"/>
				</g>
				<g id="Group_167" transform="translate(3.237 11.698)">
					<rect id="Rectangle_57" x="107.7" y="267" class="st6" width="49.2" height="5.7"/>
				</g>
				<g id="Group_168" transform="translate(15.594 10.778)">
					<rect id="Rectangle_58" x="108.7" y="267" class="st5" width="2.4" height="7.7"/>
				</g>
				<g id="Group_169" transform="translate(38.402 10.778)">
					<rect id="Rectangle_59" x="110.6" y="267" class="st5" width="2.4" height="7.7"/>
				</g>
			</g>
		</g>
		<g id="Group_177" transform="translate(0 36.641)">
			<g id="Group_172" transform="translate(0 2.178)">
				<path id="Path_43" class="st3" d="M147.9,259.1c-16.7,15.9-24.3,30-30.7,52.1c-5.6,19.4-7.9,35.8-10,55
					c-0.4,3.6,2.2,6.8,5.8,7.2c0.5,0.1,1,0,1.5,0c16.3-1.9,29.6-2.7,45.7,0.5c2.9,0.6,5.6-1.3,6.2-4.2c0.1-0.4,0.1-0.7,0.1-1.1
					c0-23,12.7-48.5,12.3-59.5c-0.4-10-2.2-14.3-4-24.1c-0.4-2.3-0.9-4.9-1.2-7.7c-9.4-4.6-18-11.8-25.2-18.8L147.9,259.1z"/>
			</g>
			<g id="Group_173" transform="translate(26.6 5.619)">
				<path id="Path_44" class="st2" d="M148.2,281.7c-0.4-2.3-0.9-4.9-1.2-7.7c-7.7-3.8-14.9-9.3-21.3-15.1
					c-15.1,16.1,1.4,37.9-3.3,56.7c-3.2,14.6-13,25.9-9.7,40.5c0,1.6,1.6,6.5,1.6,8.1c-1.5,1.5-3.2,2.9-5,4.2
					c8.1-0.2,16.3,0.6,24.2,2.2c2.9,0.6,5.6-1.3,6.2-4.2c0.1-0.4,0.1-0.7,0.1-1.1c0-23,12.7-48.5,12.3-59.5
					C151.8,295.8,150,291.5,148.2,281.7z"/>
			</g>
			<g id="Group_174" transform="translate(30.132 16.624)">
				<path id="Path_45" class="st8" d="M110,276.4c2.7,19,13.2,35.9,29,46.8l4.3-13.8c-15.8-11.9-26-29.9-28.1-49.6
					c-2.7,1.6-4.5,4.3-5.2,7.4C109.5,270.2,109.5,273.4,110,276.4z"/>
			</g>
			<g id="Group_175" transform="translate(35.542)">
				<path id="Path_46" class="st4" d="M115.1,258.4l-5.1,4.5c8.6,6.9,16.8,14.3,24.5,22.1c0.4-2.4,0.8-4.5,2.8-6
					c0.5,0.9,0.6,4,1.2,4.9c1.2-2.3,2-7.6,0.5-9.6c-1.7-2-3.7-3.6-6-4.9C127,265.8,121.1,262.1,115.1,258.4z"/>
			</g>
			<g id="Group_176" transform="translate(11.669 20.281)">
				<path id="Path_47" class="st14" d="M123.3,260.9c-0.1-0.5-0.6-0.9-1.1-0.8c-0.1,0-0.2,0.1-0.3,0.1c-0.6,0.4-1.2,0.9-1.6,1.6
					c-5.2,6.8-9.4,16.1-11.8,25.9c-0.2,0.8-0.3,1.6-0.4,2.4c0,0.8,0.3,1.5,0.8,1.5c0.5,0,0.9-0.6,1.3-1.2c5.4-8.2,9.7-17,12.7-26.3
					C123.3,263.1,123.5,262,123.3,260.9z"/>
			</g>
		</g>
		<g id="Group_181" transform="translate(31.56 49.867)">
			<g id="Group_178">
				<path id="Path_48" class="st2" d="M128.5,262.4c-12.4-6.2-20-2.2-18.6,9.7c8.1,47.2,54.2,67,80.1,70.3c4.6-0.2,6.4-6.2,7.2-8.9
					C171.2,322.9,140.4,280.2,128.5,262.4z"/>
			</g>
			<g id="Group_179" transform="translate(67.198 63.945)">
				<path id="Path_49" class="st4" d="M142,278.8c-1.9-1.9-3.6-4-5-6.2c-0.3-0.5-0.6-1-0.7-1.5c-0.1-0.5,0-1.1,0.3-1.6
					c0.6-0.5,1.3-0.8,2.1-0.9c0.8-0.2,1.5-0.7,1.9-1.3c0.5-0.7,0.4-1.6-0.1-2.3c-2.7,1.4-6.1,0.1-9.1,0.8c-1.4,0.4-2.7,1-3.9,1.8
					c-2.3-0.8-4.4-1.7-6.5-3c-2,4.3-4,8.7-6,13c2.2,0.6,4.4,1.2,6.6,2c2,2,4.3,3.6,6.8,4.9c0.9,0.6,2,0.8,3,0.6
					c0.9-0.3,1.7-1.1,2.6-1.3c0.8-0.1,1.5,0.2,2.3,0.1c1.2-0.2,1.9-1.6,3.1-2c0.6-0.1,1.2-0.2,1.9-0.2c0.6,0,1.2-0.4,1.5-1
					C143.1,280,142.6,279.3,142,278.8z"/>
			</g>
			<g id="Group_180" transform="translate(5.334 9.39)">
				<path id="Path_50" class="st11" d="M110.4,267.2c-0.3,1.4-0.2,2.8,0.2,4.1c1.2,3.3,4.5,5.4,8,5.1c3.2-0.4,5.8-2.6,6.8-5.7
					c0.9-3.1-0.1-6.4-2.4-8.6c-1.6-1.5-3.8-2.2-5.9-1.8C113.7,261.2,111.1,263.9,110.4,267.2z"/>
			</g>
		</g>
	</g>
	<g id="Group_226" transform="translate(0 70.834)">
		<g id="Group_183">
			<path id="Path_51" class="st8" d="M196.3,668.8L81.7,718c-12.2,4.9-22-2.3-19.9-13.1V262.1c0-7.9,6.4-14.3,14.3-14.3
				c1.9,0,3.9,0.4,5.6,1.2l114.7,49.2c4,1.7,6.5,5.6,6.5,9.9v350.8C202.9,663.2,200.3,667.1,196.3,668.8z"/>
		</g>
		<g id="Group_184" transform="translate(11.92 6.702)">
			<path id="Path_52" class="st2" d="M183.4,657.4L70.8,706.3c-3,1.3-6.5-0.1-7.8-3.1c-0.3-0.8-0.5-1.6-0.5-2.4V253.9
				c0-4.3,8.9-6.8,12.9-5.1l108.1,48.4c1.1,0.5,1.8,1.5,1.8,2.7v354.7C185.2,655.9,184.5,657,183.4,657.4z"/>
		</g>
		<g id="Group_187" transform="translate(13.667 8.45)">
			<g id="Group_185">
				<path id="Path_53" class="st2" d="M183.5,653L70.9,701.4c-3,1.3-6.5-0.1-7.8-3.1c-0.3-0.7-0.5-1.5-0.5-2.4V254
					c0-4.3,8.9-6.7,12.9-5l108.1,47.9c1.1,0.5,1.8,1.5,1.8,2.7v350.8C185.3,651.5,184.6,652.6,183.5,653z"/>
			</g>
			<g id="Group_186" transform="translate(5.992 0.674)">
				<path id="Path_54" class="st3" d="M178.4,647.1L71,694.7c-2.9,1.2-6.3-0.1-7.5-3c-0.3-0.7-0.5-1.6-0.5-2.4V254.4
					c-0.1-3.2,2.4-5.8,5.6-5.8c0.8,0,1.6,0.1,2.4,0.5l107.4,47.6c1,0.5,1.7,1.5,1.7,2.6v345.3C180.1,645.6,179.5,646.6,178.4,647.1z
					"/>
			</g>
		</g>
		<g id="Group_199" transform="translate(37.415 166.64)">
			<g id="Group_188" transform="translate(0.935 1.355)">
				<path id="Path_55" class="st1" d="M151.2,472.6l-86.6,26.3V261.4l86.6,16.1V472.6z"/>
			</g>
			<g id="Group_189" transform="translate(50.129 16.768)">
				<path id="Path_56" class="st8" d="M68.6,262.6v198.2l30.8-9.3V268.4L68.6,262.6z"/>
			</g>
			<g id="Group_190" transform="translate(3.393 8.094)">
				<path id="Path_57" class="st8" d="M112.5,270.8l-47.7-8.9v222.9l47.7-14.5V270.8z"/>
			</g>
			<g id="Group_191" transform="translate(1.553 52.496)">
				<path id="Path_58" class="st1" d="M65.2,283h-0.3l-0.3-1.5l38.6-15.9l0.6,1.4L65.2,283l0-0.1L65.2,283z"/>
			</g>
			<g id="Group_198">
				<g id="Group_192">
					<path id="Path_59" class="st11" d="M125.5,327.9l-19.2,1.3l-41.9-67.9l20,2.6L125.5,327.9z"/>
				</g>
				<g id="Group_193" transform="translate(17.087 2.26)">
					<path id="Path_60" class="st2" d="M124.1,324.5l-17.1,1.2l-41.1-64.2l18,2.4L124.1,324.5z"/>
				</g>
				<g id="Group_194" transform="translate(32.474 4.295)">
					<path id="Path_61" class="st11" d="M122.7,321.6l-15.4,1l-40.2-61l16.3,2.2L122.7,321.6z"/>
				</g>
				<g id="Group_195" transform="translate(46.403 6.137)">
					<path id="Path_62" class="st2" d="M121.5,318.8l-13.9,0.9l-39.3-58l14.9,2L121.5,318.8z"/>
				</g>
				<g id="Group_196" transform="translate(59.072 7.813)">
					<path id="Path_63" class="st11" d="M120.3,316.4l-12.6,0.9l-38.4-55.3l13.6,1.8L120.3,316.4z"/>
				</g>
				<g id="Group_197" transform="translate(70.644 9.343)">
					<path id="Path_64" class="st2" d="M119.3,314.1l-11.5,0.8L70.3,262l12.4,1.6L119.3,314.1z"/>
				</g>
			</g>
		</g>
		<g id="Group_202" transform="translate(34.502 93.204)">
			<g id="Group_200">
				<path id="Path_65" class="st1" d="M145.1,316.6l-75.7-12.9c-3-0.5-5.2-3.1-5.2-6.1v-36.1c0-3.4,2.8-6.2,6.2-6.2
					c0.5,0,0.9,0.1,1.4,0.2l75.6,17.2c2.8,0.6,4.8,3.1,4.8,6l0.1,31.8c0,3.4-2.8,6.2-6.2,6.2C145.8,316.7,145.5,316.7,145.1,316.6z"
					/>
			</g>
			<g id="Group_201" transform="translate(21.856 14.642) rotate(7)">
				<g class="st15">
					<path class="st2" d="M97.5,257.4c0-3.8,3-6.7,7-6.7c4,0,7,2.8,7,6.7c0,3.8-3,6.7-7,6.7C100.5,264.1,97.5,261.2,97.5,257.4z
						 M108.6,257.4c0-2.4-1.7-4.1-4-4.1c-2.3,0-4,1.7-4,4.1c0,2.4,1.7,4.1,4,4.1C106.9,261.5,108.6,259.9,108.6,257.4z"/>
					<path class="st2" d="M112.9,262.6l1-2.2c1.1,0.8,2.7,1.3,4.2,1.3c1.8,0,2.5-0.6,2.5-1.4c0-2.4-7.5-0.8-7.5-5.5
						c0-2.2,1.8-4,5.4-4c1.6,0,3.3,0.4,4.5,1.1l-0.9,2.3c-1.2-0.7-2.4-1-3.6-1c-1.8,0-2.4,0.7-2.4,1.5c0,2.4,7.5,0.7,7.5,5.5
						c0,2.2-1.8,4-5.5,4C116.1,264.1,114,263.5,112.9,262.6z"/>
					<path class="st2" d="M134.1,261.1l-6,0l-1.1,2.8l-3.1,0l5.7-12.9l2.9,0l5.8,12.9l-3.1,0L134.1,261.1z M133.1,258.8l-2-4.9
						l-2,4.9L133.1,258.8z"/>
				</g>
			</g>
		</g>
		<g id="Group_220" transform="translate(26.773 23.466)">
			<g id="Group_206" transform="translate(82.206 29.919)">
				<g id="Group_205">
					<g id="Group_204">
						<g id="Group_203">
							<path id="Path_66" class="st0" d="M71.8,252.1v1.8l-1.5-0.5l0,4.7l1.5,0.5v1.8l14.1,5.2l0-8.3L71.8,252.1z"/>
						</g>
					</g>
				</g>
			</g>
			<g id="Group_219">
				<g id="Group_209" transform="translate(0 2.57)">
					<g id="Group_208">
						<g id="Group_207">
							<path id="Path_67" class="st0" d="M66.4,254.4l-2.7-0.9l0-3.7l2.7,0.9L66.4,254.4z"/>
						</g>
					</g>
				</g>
				<g id="Group_212" transform="translate(4.111 1.953)">
					<g id="Group_211">
						<g id="Group_210">
							<path id="Path_68" class="st0" d="M66.7,256.5l-2.7-0.9l0-5.8l2.7,0.9L66.7,256.5z"/>
						</g>
					</g>
				</g>
				<g id="Group_215" transform="translate(8.222 0.697)">
					<g id="Group_214">
						<g id="Group_213">
							<path id="Path_69" class="st0" d="M67,259.1l-2.7-0.9l0-8.5l2.7,0.9L67,259.1z"/>
						</g>
					</g>
				</g>
				<g id="Group_218" transform="translate(12.333)">
					<g id="Group_217">
						<g id="Group_216">
							<path id="Path_70" class="st0" d="M67.4,261.2l-2.7-0.9l0-10.7l2.7,0.9L67.4,261.2z"/>
						</g>
					</g>
				</g>
			</g>
		</g>
		<g id="Group_221" transform="translate(68.789 27.263)">
			<path id="Path_71" class="st8" d="M99.8,264c-11-4.4-21.8-9.7-32.7-14.1c2.5,4.2,5,8.5,7.5,12.7l19.8,6.6
				C96.4,267.8,98.2,266,99.8,264z"/>
		</g>
		<g id="Group_225" transform="translate(2.927 52.007)">
			<g id="Group_222" transform="translate(2.078 21.778)">
				<path id="Path_72" class="st3" d="M66.7,301.2v-45c0-1.3-1.1-2.4-2.4-2.4c-1.3,0-2.4,1.1-2.4,2.4v45L66.7,301.2z"/>
			</g>
			<g id="Group_223" transform="translate(2.078 71.823)">
				<path id="Path_73" class="st3" d="M61.9,257.8v47.2c0,1.3,1.1,2.4,2.4,2.4c1.3,0,2.4-1.1,2.4-2.4v-47.2H61.9z"/>
			</g>
			<g id="Group_224">
				<circle id="Ellipse_3" class="st3" cx="65.8" cy="256" r="4"/>
			</g>
		</g>
	</g>
	<g id="Group_284" transform="translate(89.915 270.163)">
		<g id="Group_227" transform="translate(0 154.782)">
			<path id="Path_74" class="st3" d="M265,276.5c-4.8,0-9.6,0-14.4,0c-100.4,0-181.8,1-181.8,2.3c0,1.3,81.4,2.3,181.8,2.3
				c4.8,0,9.6,0,14.4,0V276.5z"/>
		</g>
		<g id="Group_228" transform="translate(122.807 141.788)">
			<path id="Path_75" class="st3" d="M150.3,275.5c-1.7,0-3.5,0-5.2,0c-36.6,0-66.3,0.8-66.3,1.8s29.7,1.8,66.3,1.8
				c1.8,0,3.5,0,5.2,0V275.5z"/>
		</g>
		<g id="Group_229" transform="translate(86.864 104.9)">
			<path id="Path_76" class="st3" d="M179.7,272.5c-2.5,0-5.1,0-7.6,0c-53.2,0-96.3,0.6-96.3,1.4c0,0.8,43.1,1.4,96.3,1.4
				c2.6,0,5.1,0,7.6,0V272.5z"/>
		</g>
		<g id="Group_283" transform="translate(139.943)">
			<g id="Group_232" transform="translate(33.048 121.013)">
				<g id="Group_230">
					<circle id="Ellipse_4" class="st8" cx="122.1" cy="313" r="39.2"/>
				</g>
				<g id="Group_231" transform="translate(12.756 12.756)">
					<circle id="Ellipse_5" class="st2" cx="109.3" cy="300.3" r="25.5"/>
				</g>
			</g>
			<g id="Group_233" transform="translate(178.837 33.062)">
				<path id="Path_77" class="st8" d="M114.7,399.6c4.5-4.8,5.9-11.9,8.3-18.3c4.4-12.3,12.8-22.7,23.8-29.7
					c2.9-1.8,5.9-3.2,8.5-5.4c2.8-2.2,4.6-5.3,5.2-8.8c0.3-2.8-0.5-5.6-1.3-8.2c-5.2-17.4-10.4-34.8-16.7-51.8
					c-1.6-4.4-3.9-9.3-8.1-10.4c-2.8-0.7-5.7,0.5-8.4,1.7c-8.2,3.7-16.9,8.1-21.4,16.5c-3.2,6-3.8,13.2-3.6,20.2
					c0.5,15.2,4.3,29.9,6,45c1.7,15,1,31.3-6.8,43.9c-1.7,2.8-3.8,5.3-5.6,7.9C101,406.2,109.5,405.2,114.7,399.6z"/>
			</g>
			<g id="Group_234" transform="translate(24.616 82.826)">
				<path id="Path_78" class="st3" d="M191.1,271.4c6.7,0.8,14.1,2.9,16.5,7.8c2,4.1-0.3,8.6-1.9,12.8c-3.3,8.4-3.7,17.6-1.4,26.3
					c1.7,6.2,5.2,12.6,12.1,15.9c6.1,3,13.8,3,21,3c10.4-0.1,21.6-0.4,29.6-5.5c3.4,7.9-3.1,16.8-12.3,21.2s-20.3,5.2-31,5.8
					c-39.1,2.2-78.3,2.4-117.5,1c-6.4-0.2-13.4-0.7-18.1-4c-5.8-4.2-6-11.1-5.9-17.2c0.4-14.1,1.1-29,10.9-40.8
					c6.1-7.3,15.2-12.8,25.2-16.6s20.9-6,31.8-7.7C163.6,271.1,177.5,269.8,191.1,271.4z"/>
			</g>
			<g id="Group_235" transform="translate(136.353 137.487)">
				<path id="Path_79" class="st8" d="M114.1,299.8c8-0.4,16.1-0.9,23.5-3.9c7.4-3,14-9,15.6-16.9c0.3-1.5,0.1-3.4-1.3-3.9
					c-2.7,6.6-9.6,10.5-16.5,12c-6.9,1.4-14.1,0.8-21.2,1c-7.1,0.2-14.5,1.3-20.1,5.6c-1,0.7-1.9,1.7-2.4,2.8
					c-0.5,1.2-0.3,2.5,0.5,3.5c1,0.9,2.5,0.9,3.8,0.8C101.9,300.5,108,300.1,114.1,299.8z"/>
			</g>
			<g id="Group_236" transform="translate(43.349 89.569)">
				<path id="Path_80" class="st2" d="M109.1,278.9c18.5-6.7,38.5-8.7,58-7.1c4.2,0.3,9.2,1.3,11,5.2c1.2,2.6,0.5,5.6-0.1,8.4
					c-2.7,13.6-1.4,27.6,3.9,40.4c1.3,3.2,2.9,6.3,3.4,9.7c0.5,3.4-0.2,7.2-2.8,9.5c-2.7,2.3-6.6,2.4-10.1,2.4
					c-22.4-0.1-45-0.3-67.1-4.2c-6.7-1.2-13.9-3-18-8.5c-4-5.3-3.9-12.6-3.5-19.2c0.7-9.2,2-18.9,7.9-26
					C96.3,284.3,102.7,281.2,109.1,278.9z"/>
			</g>
			<g id="Group_240" transform="translate(195.235)">
				<g id="Group_237" transform="translate(24.784 2.323)">
					<path id="Path_81" class="st4" d="M105.8,269.1c2.3,5.3,2.3,11.4,2.2,17.2l-3.3,0.3c-1.5-7.5-3.8-14.9-6.7-22
						c1.6-0.8,3.4-0.6,4.8,0.5C104.1,266.1,105.2,267.5,105.8,269.1z"/>
				</g>
				<g id="Group_238">
					<path id="Path_82" class="st3" d="M131.9,292.4c0.1-7.3-1.5-14.5-4.5-21.1c-1.6-3.4-4.1-7.1-7.9-7.3c-2,0-4,0.6-5.7,1.7
						c-3.6,1.6-6.8,3.9-9.6,6.7c-4.5,4.8-6.2,11.6-7.8,18c-0.4,1.2-0.5,2.5,0,3.7c0.7,1.5,2.5,1.9,4.2,1.9c0.7,2.2,1.3,4.3,2,6.5
						c0,0.6,0.5,1.1,1.1,1c0.2,0,0.3-0.1,0.5-0.1l7.9-2c1.3-0.2,2.5-0.8,3.5-1.6c0.7-0.8,1.2-1.8,1.6-2.8c0.4-1,1-1.9,1.5-2.9
						L131.9,292.4z"/>
				</g>
				<g id="Group_239" transform="translate(4.233 12.787)">
					<path id="Path_83" class="st8" d="M106.4,265.1c-2.8-0.5-5.6,0.2-7.8,1.9c-2.5,1.9-3,5.5-1.1,8c1.6,2.1,4.4,2.9,6.8,1.8
						c2.6-1,4.6-2.9,5.6-5.5c1.3-1.8,0.9-4.3-0.9-5.6C108.1,265.3,107.3,265.1,106.4,265.1L106.4,265.1z"/>
				</g>
			</g>
			<g id="Group_246" transform="translate(211.268 107.03)">
				<g id="Group_243" transform="translate(0 13.983)">
					<g id="Group_241">
						<ellipse id="Ellipse_6" class="st8" cx="136.6" cy="313" rx="39.2" ry="39.2"/>
					</g>
					<g id="Group_242" transform="translate(12.756 12.756)">
						<circle id="Ellipse_7" class="st3" cx="123.8" cy="300.3" r="25.5"/>
					</g>
				</g>
				<g id="Group_244" transform="translate(5.515)">
					<path id="Path_84" class="st8" d="M116.2,338.6c4.7,4.2,12.1,3,17.8,0.5c3.4-1.5,6.8-3.7,8.1-7.2c1.1-3.1,0.2-6.5-0.7-9.7
						c-4.1-13.7-9.1-27.1-15-40.1c-1.2-2.7-2.9-5.8-5.8-6.5c-1-0.1-2-0.3-2.9-0.6c-0.9-0.4-1.7-1.5-1.3-2.4
						c-5.1,1.5-9.9,3.7-14.4,6.5c-1.6,1-3.3,2.2-3.9,4c-0.6,1.8,0,3.8,0.5,5.6c4.2,13.5,8.5,26.9,12.7,40.4
						C112.4,332.6,113.6,336.2,116.2,338.6z"/>
				</g>
				<g id="Group_245" transform="translate(25.403 44.697)">
					<path id="Path_85" class="st4" d="M107.2,292c-4.3,0-7.9-3.5-7.9-7.9c0-4.3,3.5-7.9,7.9-7.9c4.3,0,7.9,3.5,7.9,7.9
						C115.1,288.5,111.6,292,107.2,292z M107.2,277.4c-3.7,0-6.7,3-6.7,6.7c0,3.7,3,6.7,6.7,6.7c3.7,0,6.7-3,6.7-6.7
						C113.9,280.4,110.9,277.4,107.2,277.4L107.2,277.4z"/>
				</g>
			</g>
			<g id="Group_247" transform="translate(22.535 96.434)">
				<path id="Path_86" class="st8" d="M145.3,272.4c-10.7-2.1-22,1-31,7.2s-15.8,15.1-20.8,24.8s-8.2,20.2-11,30.7
					c-0.5,1.8-0.9,3.7-0.1,5.4c0.8,1.3,2,2.3,3.5,2.8c9.7,4.7,20.5,6.2,31.2,7c22.2,1.6,44.5,0.2,66.3-4.2c2.4-0.3,4.7-1.1,6.8-2.4
					c1.6-1.1,3-2.6,4-4.3c4.8-7.4,5.8-16.8,3.9-25.4c-2-8.6-6.7-16.4-12.4-23c-5.6-6.7-12.7-12.1-20.7-15.7
					c-8-3.4-17.2-4.5-25.6-2.1"/>
			</g>
			<g id="Group_248" transform="translate(7.825 94.112)">
				<path id="Path_87" class="st8" d="M163.6,273.2c0,0.9-0.7,1.6-1.6,1.6H82.4c-0.9,0-1.6-0.7-1.6-1.6l0,0c0-0.9,0.7-1.6,1.6-1.6
					H162C162.9,271.6,163.6,272.3,163.6,273.2L163.6,273.2z"/>
			</g>
			<g id="Group_252" transform="translate(204.371 112.364)">
				<g id="Group_249">
					<path id="Path_88" class="st3" d="M192.5,321.5c-1.4-11.9-4.9-20.8-12.5-29.9c-3.2-4.1-7-7.6-11.3-10.5
						c-14.3-9.4-33.1-11.2-47.7-2.4c-14.4,8.6-23.5,25.5-24.3,42.8H192.5z"/>
				</g>
				<g id="Group_250" transform="translate(4.483 13.442)">
					<path id="Path_89" class="st2" d="M97.1,305.8c1.8-19.2,18.8-33.3,38-31.5c17,1.6,30.3,15.2,31.6,32.1L97.1,305.8z"/>
				</g>
				<g id="Group_251" transform="translate(8.124 6.708)">
					<path id="Path_90" class="st4" d="M168.1,299.7c-0.2,0-0.4-0.1-0.5-0.3c-7-12.8-19.1-21.8-32.4-24
						c-14.2-2.4-28.9,3.5-36.7,14.6c-0.2,0.3-0.6,0.3-0.8,0.1s-0.3-0.6-0.1-0.8c8-11.5,23.2-17.5,37.9-15.1
						c13.7,2.3,26.1,11.5,33.3,24.6c0.2,0.3,0.1,0.6-0.2,0.8C168.3,299.6,168.2,299.7,168.1,299.7L168.1,299.7z"/>
				</g>
			</g>
			<g id="Group_255" transform="translate(87.949 68.735)">
				<g id="Group_253">
					<path id="Path_91" class="st8" d="M145.3,291.8c1.4-1.5,0.5-3.9-0.7-5.6c-4.3-6.2-11.1-10.3-18.2-12.7
						c-7.1-2.4-14.7-3.2-22.2-3.8c-3.5-0.3-7.4-0.5-10.4,1.4c-4.3,2.6-5.5,8.3-6.2,13.3c-0.5,3.5-0.6,7.9,2.5,9.6
						c1.4,0.6,2.8,0.8,4.3,0.6l47.4-1.6C143.1,292.9,144.3,292.6,145.3,291.8z"/>
				</g>
				<g id="Group_254" transform="translate(5.206 3.384)">
					<path id="Path_92" class="st4" d="M125.3,286.1c-0.2,0-0.4-0.1-0.5-0.3c-8.2-11.6-22.6-17.1-36.4-13.9
						c-0.3,0.1-0.6-0.1-0.7-0.4c-0.1-0.3,0.1-0.6,0.4-0.7c14.3-3.3,29.2,2.4,37.7,14.4c0.2,0.3,0.1,0.6-0.2,0.8
						C125.6,286.1,125.4,286.1,125.3,286.1z"/>
				</g>
			</g>
			<g id="Group_262" transform="translate(179.329 68.758)">
				<g id="Group_260">
					<g id="Group_256" transform="translate(4.023 6.787)">
						<path id="Path_93" class="st4" d="M107.1,271c-1.2-1.4-3.3-1-5.1-0.6c-2.7,0.7-5.8,1.7-6.7,4.4c-0.3,1.2-0.4,2.4-0.2,3.6
							c0.7,7,1.4,13.9,2.1,20.9c0.2,2.4,2.4,4.1,4.7,3.8c0,0,0.1,0,0.1,0l5.1-0.7c1.1,0,2.2-0.4,3.1-1.2c1.1-1.1,0.9-2.9,0.7-4.5
							l-3.2-23.2C107.9,272.7,107.6,271.8,107.1,271z"/>
					</g>
					<g id="Group_257" transform="translate(6.654 3.763)">
						<path id="Path_94" class="st4" d="M95.3,270.8l0.7,5l5-1.1l-1.6-4.8L95.3,270.8z"/>
					</g>
					<g id="Group_258" transform="translate(3.371)">
						<path id="Path_95" class="st5" d="M95.8,276c2.8-0.6,5.6-1,8.5-1.2c-0.2-1.8-0.3-3.5-0.5-5.3l-8.8,1.2
							C95.1,272.5,95.3,274.2,95.8,276z"/>
					</g>
					<g id="Group_259" transform="translate(0 2.173)">
						<path id="Path_96" class="st5" d="M94.8,273c-0.2,0.5-0.1,1.1,0.2,1.5c0.3,0.4,0.9,0.4,1.3,0.1c0,0,0,0,0.1,0
							c-0.1-0.8,0.3-1.6,0.9-2c0.7-0.4,1.4-0.6,2.2-0.6c0.8,0,1.6-0.1,2.3-0.2c-0.4-0.6-0.6-1.3-0.5-2c-1.2,0.4-2.5,0.5-3.8,0.9
							C96.3,270.9,95.3,271.8,94.8,273z"/>
					</g>
				</g>
				<g id="Group_261" transform="translate(3.769 10.731)">
					<path id="Path_97" class="st16" d="M113.3,284.4c-0.2-4.7-0.8-9.4-1.8-14c-2.9,6.8-9.2,11.5-16.6,12.2c0.1,1.4,0.3,2.9,0.4,4.3
						C101.3,285.7,107.3,284.9,113.3,284.4z"/>
				</g>
			</g>
			<g id="Group_267" transform="translate(0 0.766)">
				<g id="Group_263">
					<path id="Path_98" class="st3" d="M92,288.3c-3.9,2.6-7.9,5.6-10,9.8c-2.4,4.8-2,10.5-1.4,15.8c1.2,12.1,2.9,24.2,5,36.3
						c0.8,4.9,2,10.2,6,13.1c3.4,2.5,7.9,2.6,12.1,2.6c19.6,0,39.1-0.1,58.7-0.1c3.4,0,7.4-0.2,9.5-2.9c1.7-2,1.8-4.8,1.8-7.5
						c0.5-25.4,1-50.7,1.5-76.1c0.1-3,0.1-6.3-1.6-8.9c-1.5-2.4-4.1-3.8-6.8-4.7c-9.8-3.4-20.5-1.4-30.4,1.6
						C120.7,272.1,105.7,279.1,92,288.3z"/>
				</g>
				<g id="Group_266" transform="translate(5.107 4.268)">
					<path id="Path_100" class="st4" d="M141.6,265.1c-14.4,2.6-28.2,7.8-41.6,13.6c-7.4,3.2-15.2,6.9-19.5,13.8
						c4.3-4.6,11.1-8.3,17-10.6c10.3-4.1,18.4-7.3,28.9-10.8c10.4-3.4,23.1-6.1,33.8-3.8C155,263.6,147.9,264,141.6,265.1z"/>
				</g>
			</g>
			<g id="Group_278" transform="translate(17.668 102.425)">
				<g id="Group_268">
					<path id="Path_101" class="st3" d="M145,272.9c-10.7-2.1-22,1-31,7.2s-15.8,15.1-20.8,24.8c-5,9.7-8.2,20.2-11,30.7
						c-0.5,1.8-0.9,3.7-0.1,5.4c0.8,1.3,2,2.3,3.5,2.8c9.7,4.7,20.5,6.2,31.2,7c22.2,1.6,44.5,0.2,66.3-4.2c2.4-0.3,4.7-1.1,6.8-2.4
						c1.6-1.1,3-2.6,4-4.3c4.8-7.4,5.8-16.8,3.9-25.4c-2-8.6-6.7-16.4-12.4-23c-5.6-6.7-12.7-12.1-20.7-15.7
						c-8-3.4-17.2-4.5-25.6-2.1"/>
				</g>
				<g id="Group_269" transform="translate(2.853 14.485)">
					<path id="Path_102" class="st0" d="M176.4,273.4l-1.8,0c0.2,2.7-2.9,4.2-5.4,5.1c-26.8,8.6-54.1,15.9-81.3,23.2
						c-2,7.3-4,14.5-6.1,21.8c34.2-1.2,67.6-10.6,100.6-19.9c3-0.8,6.4-2.1,7.2-5.1c0.7-2.4-0.7-4.9-2-7.1
						C183.9,285.5,180.1,279.5,176.4,273.4z"/>
				</g>
				<g id="Group_270" transform="translate(11.371 2.289)">
					<path id="Path_103" class="st4" d="M83.1,305.2c-0.1,0-0.1,0-0.2,0c-0.3-0.1-0.4-0.5-0.3-0.8c10.6-26.2,40.5-38.9,66.7-28.3
						c1.4,0.6,2.7,1.2,4.1,1.9c0.3,0.1,0.4,0.5,0.3,0.8c-0.1,0.3-0.5,0.4-0.8,0.3c-24.6-12.6-54.8-2.8-67.4,21.8
						c-0.7,1.3-1.3,2.6-1.8,4C83.6,305.1,83.3,305.2,83.1,305.2z"/>
				</g>
				<g id="Group_277" transform="translate(74.949 54.348)">
					<g id="Group_272" transform="translate(0 8.496)">
						<g id="Group_271">
							<path id="Path_104" class="st6" d="M106.5,278.2c-0.1,0.6-0.6,1.1-1.2,1.3c-5.6,1.3-11.3,1.9-17,1.8c-0.6,0-0.8-0.5-0.6-1.1
								l0,0c0.2-0.6,0.7-1,1.4-1c5.6,0.2,11.1-0.4,16.5-1.7c0.4-0.1,0.7,0.1,0.9,0.4C106.6,277.9,106.6,278.1,106.5,278.2
								L106.5,278.2z"/>
						</g>
					</g>
					<g id="Group_274" transform="translate(0.706 4.248)">
						<g id="Group_273">
							<path id="Path_105" class="st6" d="M106.6,277.8c-0.1,0.6-0.6,1.1-1.2,1.3c-5.6,1.3-11.3,1.9-17,1.8c-0.6,0-0.8-0.5-0.6-1.1
								l0,0c0.2-0.6,0.7-1,1.4-1c5.6,0.2,11.1-0.4,16.5-1.7c0.4-0.1,0.7,0.1,0.9,0.4C106.6,277.6,106.6,277.7,106.6,277.8
								L106.6,277.8z"/>
						</g>
					</g>
					<g id="Group_276" transform="translate(1.413)">
						<g id="Group_275">
							<path id="Path_106" class="st6" d="M106.7,277.5c-0.1,0.6-0.6,1.1-1.2,1.3c-5.6,1.3-11.3,1.9-17,1.8c-0.6,0-0.8-0.5-0.6-1.1
								l0,0c0.2-0.6,0.7-1,1.4-1c5.6,0.2,11.1-0.4,16.5-1.7c0.4-0.1,0.7,0.1,0.9,0.4C106.7,277.2,106.7,277.4,106.7,277.5
								L106.7,277.5z"/>
						</g>
					</g>
				</g>
			</g>
			<g id="Group_282" transform="translate(183.037 33.146)">
				<g id="Group_279">
					<path id="Path_107" class="st3" d="M120.3,379.2c5.2-9.8,12.4-18.3,21.3-24.9c6.2-4.7,13.3-8.9,16.5-15.9
						c3.8-8.5,0.7-18.4-2.5-27.2c-3.4-9.5-6.9-18.9-10.3-28.4c-1.4-3.8-3.2-7.5-5.5-10.8c-1.9-2.8-5.8-6.2-9.8-5.1
						c0,6-6.7,11.3-10.1,16.2c-5.6,8.4-4.9,19.3-4.2,29.4c0.9,13.9,1.3,27.9-1.1,41.5s-7.5,27.1-16.6,37.6c-1.7,1.9-3.6,4.3-2.8,6.7
						c0.9,2.7,4.5,3.3,7.3,2.6c4.7-1.2,8.4-4.8,11.1-8.9C116.2,388,118,383.5,120.3,379.2z"/>
				</g>
				<g id="Group_280" transform="translate(23.968 14.074)">
					<path id="Path_108" class="st4" d="M100.8,293.7c2.1,0.3,3.7-1.9,4.4-3.9c1.5-4.2,1.4-9,3.4-13c0.7-1.3,1.4-2.6,1.9-4
						c0.5-1.4,0.3-3-0.7-4.2c-1.1-0.9-2.6-1.2-4-0.6c-1.3,0.6-2.4,1.5-3.3,2.6c-4.4,5.2-6.8,12.3-5.2,18.9
						C97.9,291.4,99,293.5,100.8,293.7z"/>
				</g>
				<g id="Group_281" transform="translate(3.962 0.416)">
					<path id="Path_109" class="st4" d="M95.9,392.5c-0.1,0-0.3,0-0.4-0.1c-0.2-0.2-0.3-0.6-0.1-0.8c0,0,0,0,0,0
						c16.4-19.5,18.7-44.1,17.7-61.3c-0.2-4.2-0.3-8.6-0.3-12.7c0-3.4,0-7-0.1-10.5l-0.1-1.6c-0.3-7.2-0.6-14.6,3.5-20.8
						c1.2-1.8,2.5-3.5,3.9-5.1c2.9-3.5,5.6-6.8,7.1-12.5c0.1-0.3,0.4-0.5,0.7-0.4c0.3,0.1,0.5,0.4,0.4,0.7c-1.5,6-4.4,9.4-7.4,13
						c-1.4,1.6-2.7,3.3-3.9,5c-3.9,5.8-3.6,13.1-3.3,20.1l0.1,1.6c0.1,3.5,0.1,7.1,0.1,10.5c0,4.2,0,8.5,0.3,12.7
						c1,17.4-1.3,42.3-17.9,62.1C96.3,392.4,96.1,392.5,95.9,392.5z"/>
				</g>
			</g>
		</g>
	</g>
</g>
</svg>
