<svg xmlns="http://www.w3.org/2000/svg" width="83.492" height="95.383" viewBox="0 0 83.492 95.383">
  <g id="Group_288" data-name="Group 288" transform="translate(-340.966 -282.209)">
    <path id="Path_7" data-name="Path 7" d="M360.1,307.444v-9.275a15.46,15.46,0,0,1,15.46-15.46h0a15.46,15.46,0,0,1,15.459,15.46v9.275" transform="translate(4.334)" fill="none" stroke="#5e001e" stroke-linecap="round" stroke-miterlimit="10" stroke-width="1"/>
    <path id="Path_8" data-name="Path 8" d="M340.966,374.059h60.717l7.6-75.754H348.561Z" transform="translate(0 3.534)" fill="#5e001e"/>
    <path id="Path_9" data-name="Path 9" d="M421.653,374.059H360.936l-7.6-75.754h60.717Z" transform="translate(2.804 3.534)" fill="#97002f"/>
    <circle id="Ellipse_3" data-name="Ellipse 3" cx="2.351" cy="2.351" r="2.351" transform="translate(370.558 305.093)" fill="#fff"/>
    <circle id="Ellipse_4" data-name="Ellipse 4" cx="2.351" cy="2.351" r="2.351" transform="translate(401.477 305.093)" fill="#fff"/>
    <path id="Path_10" data-name="Path 10" d="M340.966,362.266l11.365-11.918,11.409,11.918Z" transform="translate(0 15.326)" fill="#3b0215"/>
    <path id="Path_11" data-name="Path 11" d="M352.331,362.141V298.3h-3.77l-7.6,75.754Z" transform="translate(0 3.534)" fill="#97002f"/>
    <path id="Path_12" data-name="Path 12" d="M367.009,307.444v-9.275a15.459,15.459,0,0,1,15.459-15.46h0a15.46,15.46,0,0,1,15.46,15.46v9.275" transform="translate(5.901)" fill="none" stroke="#3b0215" stroke-linecap="round" stroke-miterlimit="10" stroke-width="1"/>
  </g>
</svg>
