<svg xmlns="http://www.w3.org/2000/svg" width="110.847" height="115.791" viewBox="0 0 110.847 115.791">
  <g id="Group_286" data-name="Group 286" transform="translate(-337.013 -153.131)">
    <g id="Group_2" data-name="Group 2" transform="translate(357.66 195.207)">
      <rect id="Rectangle_6" data-name="Rectangle 6" width="78.372" height="45.699" rx="2.162" transform="translate(90.201 41.717) rotate(155.902)" fill="#3b0215"/>
      <rect id="Rectangle_7" data-name="Rectangle 7" width="16.419" height="11.031" rx="1.693" transform="translate(77.047 38.148) rotate(155.902)" fill="#97002f"/>
      <rect id="Rectangle_8" data-name="Rectangle 8" width="38.809" height="2.939" transform="translate(70.572 23.672) rotate(155.903)" fill="#97002f"/>
      <rect id="Rectangle_9" data-name="Rectangle 9" width="38.809" height="2.939" transform="translate(66.634 14.867) rotate(155.903)" fill="#97002f"/>
      <rect id="Rectangle_10" data-name="Rectangle 10" width="7.234" height="15.841" transform="translate(27.793 60.177) rotate(155.903)" fill="#97002f"/>
    </g>
    <g id="Group_3" data-name="Group 3" transform="translate(337.013 153.131)">
      <rect id="Rectangle_11" data-name="Rectangle 11" width="78.372" height="45.699" rx="2.162" transform="translate(0 56.86) rotate(-46.512)" fill="#97002f"/>
      <rect id="Rectangle_12" data-name="Rectangle 12" width="78.372" height="7.234" transform="translate(4.702 61.32) rotate(-46.512)" fill="#5e001e"/>
      <rect id="Rectangle_13" data-name="Rectangle 13" width="12.962" height="8.139" rx="1.471" transform="matrix(0.688, -0.726, 0.726, 0.688, 16.991, 65.446)" fill="#5e001e"/>
      <rect id="Rectangle_14" data-name="Rectangle 14" width="20.459" height="5.539" transform="translate(30.225 53.384) rotate(-46.512)" fill="#5e001e"/>
      <rect id="Rectangle_15" data-name="Rectangle 15" width="59.043" height="2.11" transform="matrix(0.688, -0.726, 0.726, 0.688, 27.105, 75.041)" fill="#5e001e"/>
      <rect id="Rectangle_16" data-name="Rectangle 16" width="43.01" height="2.11" transform="translate(30.495 78.256) rotate(-46.512)" fill="#5e001e"/>
    </g>
  </g>
</svg>
