<svg xmlns="http://www.w3.org/2000/svg" width="86.809" height="86.817" viewBox="0 0 86.809 86.817">
  <g id="_4064207" data-name="4064207" transform="translate(-4.5 507.548)">
    <path id="Path_529" data-name="Path 529" d="M110.685-505.452c-6.593,2.485-6.817,2.606-6.817,4.038a1.537,1.537,0,0,0,.518,1.381c.932.932,1.329.88,5.264-.587,1.933-.725,3.59-1.312,3.676-1.312.224,0-1.45,3.055-2.761,5.091-8.923,13.669-29.909,28.994-49.048,35.794a51.528,51.528,0,0,1-15,3.176,1.853,1.853,0,0,0-1.467.621,1.522,1.522,0,0,0-.552,1.4,1.554,1.554,0,0,0,.552,1.415c.483.483.69.57,1.64.621,2.554.155,8.577-.9,13.168-2.3a110.452,110.452,0,0,0,21.4-9.647c3.3-1.933,9.354-5.954,12.253-8.129,9.613-7.231,17.258-15.135,21.5-22.263a19.343,19.343,0,0,1,1.329-2.071c.035.017.362,1.4.725,3.037.57,2.485.759,3.055,1.156,3.469a2.031,2.031,0,0,0,3.434-1.087,56.424,56.424,0,0,0-1.381-7.128c-1.363-6.058-1.5-6.593-1.967-7.059C117.364-507.92,117.088-507.868,110.685-505.452Z" transform="translate(-33.097)" fill="#5e001e"/>
    <path id="Path_530" data-name="Path 530" d="M27.514-497.674a2.53,2.53,0,0,0-.431,1.156c-.069.466-.155,1.156-.207,1.536-.086.673-.138.708-1.225,1.156l-1.122.483L23.717-494c-1.208-1-1.605-1.243-2.088-1.243-.621,0-5.92,5.281-5.92,5.92a4.186,4.186,0,0,0,.966,1.622l.949,1.191-.414,1.018a6.8,6.8,0,0,1-.552,1.139,6.693,6.693,0,0,1-1.588.328,5.047,5.047,0,0,0-1.76.466c-.276.242-.311.69-.311,4.194,0,3.555.035,3.935.311,4.194a4.776,4.776,0,0,0,1.847.5l1.536.224.466,1.122.466,1.1-.811,1.053c-1.053,1.312-1.225,1.64-1.053,2.071a37.076,37.076,0,0,0,2.813,3c2.054,2.036,2.779,2.641,3.106,2.641a3.473,3.473,0,0,0,1.571-.88,5.905,5.905,0,0,1,1.363-.88,13.781,13.781,0,0,1,2.14.759c.017.017.121.725.224,1.57a5.233,5.233,0,0,0,.483,1.847c.242.276.673.311,4.211.311,4.712,0,4.522.086,4.712-2.019a8.988,8.988,0,0,1,.224-1.536,5.854,5.854,0,0,1,1.174-.6l1.07-.449,1.225.949a3.915,3.915,0,0,0,1.674.932c.639,0,5.937-5.264,5.937-5.885a4.76,4.76,0,0,0-.949-1.657l-.949-1.243.449-1.122.449-1.122,1.588-.19c2.261-.276,2.175-.086,2.175-4.694,0-4.591.1-4.384-2.175-4.677l-1.571-.19-.466-1.122c-.276-.69-.4-1.208-.311-1.329.086-.1.518-.639.949-1.191a3.166,3.166,0,0,0,.811-1.484c0-.69-5.229-5.885-5.937-5.885a3.64,3.64,0,0,0-1.674.932l-1.208.932-1.07-.431a4.724,4.724,0,0,1-1.191-.621,9.687,9.687,0,0,1-.224-1.553c-.19-2.105,0-2.019-4.66-2.019C28.17-498,27.808-497.968,27.514-497.674ZM34-484.092a6.432,6.432,0,0,1,1.674,1.294,5.234,5.234,0,0,1-1.778,8.25,4.255,4.255,0,0,1-2.261.431,4.928,4.928,0,0,1-4.677-2.934,5.212,5.212,0,0,1,3.452-7.438A5.455,5.455,0,0,1,34-484.092Z" transform="translate(-7.033 -7.898)" fill="#5e001e"/>
    <path id="Path_531" data-name="Path 531" d="M405.294-347.612a3.2,3.2,0,0,0-.777.621l-.431.466-.052,25.956L404-294.612h12.426l-.035-25.974-.052-25.974-.57-.552-.552-.57-4.8-.035C407.8-347.733,405.484-347.682,405.294-347.612Z" transform="translate(-330.553 -132.245)" fill="#5e001e"/>
    <path id="Path_532" data-name="Path 532" d="M285.294-251.612a3.2,3.2,0,0,0-.777.621l-.431.466-.052,17.672L284-215.18h12.426l-.035-17.69-.052-17.69-.57-.552-.552-.57-4.8-.035C287.8-251.733,285.484-251.682,285.294-251.612Z" transform="translate(-231.263 -211.677)" fill="#5e001e"/>
    <path id="Path_533" data-name="Path 533" d="M165.294-187.612a3.2,3.2,0,0,0-.777.621l-.431.466-.052,12.15L164-162.226h12.426l-.035-12.167-.052-12.167-.57-.552-.552-.57-4.8-.035C167.8-187.733,165.484-187.682,165.294-187.612Z" transform="translate(-131.973 -264.632)" fill="#5e001e"/>
    <path id="Path_534" data-name="Path 534" d="M45.294-155.613a3.2,3.2,0,0,0-.777.621l-.431.466-.052,9.388L44-135.748H56.426l-.035-9.406-.052-9.406-.57-.552-.552-.57-4.8-.035C47.8-155.733,45.484-155.682,45.294-155.613Z" transform="translate(-32.683 -291.109)" fill="#5e001e"/>
    <path id="Path_535" data-name="Path 535" d="M5.708-27.6A1.968,1.968,0,0,0,4.5-25.679a1.51,1.51,0,0,0,.57,1.4l.552.57H90.187l.552-.57a1.525,1.525,0,0,0,.57-1.415,1.525,1.525,0,0,0-.57-1.415l-.552-.57-42.076-.035C24.986-27.733,5.9-27.681,5.708-27.6Z" transform="translate(0 -397.019)" fill="#5e001e"/>
  </g>
</svg>
