<svg xmlns="http://www.w3.org/2000/svg" width="126.988" height="61.285" viewBox="0 0 126.988 61.285">
  <g id="Group_289" data-name="Group 289" transform="translate(-524.6 -217.211)">
    <path id="Path_528" data-name="Path 528" d="M0,0H115.959V13.478H0Z" transform="translate(535.629 261.378)" fill="#3b0215"/>
    <rect id="Rectangle_35" data-name="Rectangle 35" width="56.305" height="57.645" transform="translate(564.688 217.211)" fill="#97002f"/>
    <path id="Path_527" data-name="Path 527" d="M0,0H27.886V12.782H0Z" transform="translate(567.397 262.074)" fill="#5e001e"/>
    <path id="Path_18" data-name="Path 18" d="M551.614,271.864a6.61,6.61,0,0,0-2.211-4.934v-1.7h-4.421a6.632,6.632,0,0,0,0,13.264H549.4v-1.7A6.609,6.609,0,0,0,551.614,271.864Z" fill="#3b0215"/>
    <circle id="Ellipse_6" data-name="Ellipse 6" cx="6.632" cy="6.632" r="6.632" transform="translate(542.771 265.232)" fill="#97002f"/>
    <path id="Path_19" data-name="Path 19" d="M580.661,271.864a6.607,6.607,0,0,0-2.212-4.934v-1.7h-4.42a6.632,6.632,0,1,0,0,13.264h4.42v-1.7A6.606,6.606,0,0,0,580.661,271.864Z" fill="#5e001e"/>
    <path id="Path_20" data-name="Path 20" d="M595.283,258.6H563.849l3.036-22.814h25.362Z" fill="#3b0215"/>
    <path id="Path_21" data-name="Path 21" d="M576.4,258.6H544.961L548,235.786h25.362Z" fill="#5e001e"/>
    <path id="Path_22" data-name="Path 22" d="M590.172,238.555H575.659l2.668,20.046H592.84Z" fill="#e3e3e3"/>
    <path id="Path_23" data-name="Path 23" d="M574.488,258.6h-27.62l2.668-20.046H571.82Z" fill="#fff"/>
    <path id="Path_24" data-name="Path 24" d="M544.961,258.6,524.6,264.155h31.434L576.4,258.6Z" fill="#97002f"/>
    <rect id="Rectangle_37" data-name="Rectangle 37" width="31.434" height="7.709" transform="translate(524.6 264.155)" fill="#5e001e"/>
    <path id="Path_25" data-name="Path 25" d="M576.4,258.6l-20.36,5.554v7.709h13.484a8.931,8.931,0,0,1,17.861,0h7.9V258.6Z" fill="#3b0215"/>
    <circle id="Ellipse_7" data-name="Ellipse 7" cx="6.632" cy="6.632" r="6.632" transform="translate(571.818 265.232)" fill="#97002f"/>
    <path id="Path_26" data-name="Path 26" d="M581.665,271.864a3.215,3.215,0,1,1-3.216-3.216A3.216,3.216,0,0,1,581.665,271.864Z" fill="#fff"/>
    <path id="Path_27" data-name="Path 27" d="M632.031,271.864a6.607,6.607,0,0,0-2.212-4.934v-1.7H625.4a6.632,6.632,0,0,0,0,13.264h4.42v-1.7A6.606,6.606,0,0,0,632.031,271.864Z" fill="#3b0215"/>
    <circle id="Ellipse_8" data-name="Ellipse 8" cx="6.632" cy="6.632" r="6.632" transform="translate(623.188 265.232)" fill="#97002f"/>
    <path id="Path_28" data-name="Path 28" d="M633.035,271.864a3.215,3.215,0,1,1-3.216-3.216A3.216,3.216,0,0,1,633.035,271.864Z" fill="#fff"/>
    <path id="Path_29" data-name="Path 29" d="M595.283,217.211v57.645H621.52a8.885,8.885,0,1,1,16.716,0h13.352V217.211Z" fill="#5e001e"/>
    <rect id="Rectangle_38" data-name="Rectangle 38" width="31.434" height="2.992" transform="translate(524.6 271.864)" fill="#3b0215"/>
    <rect id="Rectangle_39" data-name="Rectangle 39" width="13.485" height="2.992" transform="translate(556.035 271.864)" fill="#3b0215"/>
    <rect id="Rectangle_40" data-name="Rectangle 40" width="5.358" height="5.358" transform="translate(527.631 266.506)" fill="#e4e4e4"/>
    <rect id="Rectangle_41" data-name="Rectangle 41" width="5.358" height="5.358" transform="translate(547.646 266.506)" fill="#fff"/>
    <rect id="Rectangle_42" data-name="Rectangle 42" width="7.903" height="2.992" transform="translate(587.38 271.864)" fill="#97002f"/>
    <g id="Group_16" data-name="Group 16">
      <path id="Path_30" data-name="Path 30" d="M595.283,271.864v2.992H621.52a8.829,8.829,0,0,1-.528-2.992Z" fill="#97002f"/>
      <path id="Path_31" data-name="Path 31" d="M638.236,274.856h13.352v-2.992H638.763A8.854,8.854,0,0,1,638.236,274.856Z" fill="#97002f"/>
    </g>
  </g>
</svg>
