<svg id="_32213" data-name="32213" xmlns="http://www.w3.org/2000/svg" width="12.012" height="16.564" viewBox="0 0 12.012 16.564">
  <path id="Path_5" data-name="Path 5" d="M111.368-511.616a1.36,1.36,0,0,0-1.125.992,1.129,1.129,0,0,0,.157.677c.054.084,1.516,1.257,4.187,3.36l4.108,3.234-4.108,3.231c-2.67,2.106-4.133,3.279-4.187,3.363a1.078,1.078,0,0,0,.713,1.594,1.363,1.363,0,0,0,.6.087c.659,0,.214.311,5.53-3.862,3.206-2.518,4.759-3.759,4.829-3.859a.931.931,0,0,0,.152-.758,1.42,1.42,0,0,0-.152-.35c-.07-.1-1.624-1.341-4.829-3.859a59.479,59.479,0,0,0-4.945-3.781A2.332,2.332,0,0,0,111.368-511.616Z" transform="translate(-110.237 511.637)" fill="#6c0022"/>
</svg>
