<?xml version="1.0" encoding="utf-8"?>
<!-- Generator: Adobe Illustrator 24.1.2, SVG Export Plug-In . SVG Version: 6.00 Build 0)  -->
<svg version="1.1" id="Layer_1" xmlns="http://www.w3.org/2000/svg" xmlns:xlink="http://www.w3.org/1999/xlink" x="0px" y="0px"
	 viewBox="0 0 1080 1080" style="enable-background:new 0 0 1080 1080;" xml:space="preserve">
<style type="text/css">
	.Drop_x0020_Shadow{fill:none;}
	.Outer_x0020_Glow_x0020_5_x0020_pt{fill:none;}
	.Blue_x0020_Neon{fill:none;stroke:#8AACDA;stroke-width:7;stroke-linecap:round;stroke-linejoin:round;}
	.Chrome_x0020_Highlight{fill:url(#SVGID_1_);stroke:#FFFFFF;stroke-width:0.3629;stroke-miterlimit:1;}
	.Jive_GS{fill:#FFDD00;}
	.Alyssa_GS{fill:#A6D0E4;}
	.st0{fill:#F0CD95;}
	.st1{fill:#3B0215;}
	.st2{fill:#97002F;}
	.st3{fill:#5E001E;}
	.st4{fill:none;stroke:#5E001E;stroke-linecap:round;stroke-miterlimit:10;}
	.st5{fill:#FFFFFF;}
	.st6{fill:none;stroke:#3B0215;stroke-linecap:round;stroke-miterlimit:10;}
	.st7{fill:#E3E3E3;}
	.st8{fill:#E4E4E4;}
	.st9{fill:#FCD87F;}
	.st10{fill:#6C0022;}
</style>
<linearGradient id="SVGID_1_" gradientUnits="userSpaceOnUse" x1="-1100" y1="0" x2="-1100" y2="-1">
	<stop  offset="0" style="stop-color:#656565"/>
	<stop  offset="0.618" style="stop-color:#1B1B1B"/>
	<stop  offset="0.6292" style="stop-color:#545454"/>
	<stop  offset="0.9831" style="stop-color:#3E3E3E"/>
</linearGradient>
<g id="Download_icons" transform="translate(-135 -1677)">
	<g id="Group_297" transform="translate(135 1677)">
		<path id="Rectangle_228" class="st10" d="M294.5,532.2H786c22.6,0,41,18.3,41,41v78.8c0,22.6-18.3,41-41,41H294.5
			c-22.6,0-41-18.3-41-41v-78.8C253.6,550.5,271.9,532.2,294.5,532.2z"/>
		<path id="Rectangle_227" class="st10" d="M294.5,340H786c22.6,0,41,18.3,41,41v78.8c0,22.6-18.3,41-41,41H294.5
			c-22.6,0-41-18.3-41-41V381C253.6,358.3,271.9,340,294.5,340z"/>
	</g>
	<g id="Group_298" transform="translate(156.123 1687.64)">
		<g id="Group_294" transform="translate(4.131 59.425)">
			<g id="Group_4" transform="translate(0 0)">
				<g id="Group_2_1_" transform="translate(0 7.018)">
					<path id="Path_1" class="st5" d="M311.8,518c-7.9,13.7-2.9,34.4,5.8,47c4.4,6.3,8.8,11.9,14.8,11.9h0.3
						c2.4-0.2,4.7-0.8,6.9-1.8c2.5-1.2,5.3-1.9,8.1-1.9c2.7,0,5.3,0.7,7.7,1.9c2.3,1.2,4.8,1.8,7.4,1.8c6.8-0.1,11-6.2,14.7-11.6
						c2.8-4.1,4.9-8.5,6.4-13.2l0-0.1c0.1-0.4,0-0.8-0.4-0.9l-0.1,0c-7.1-3.1-11.8-10.1-11.8-17.8c0.1-6.8,3.7-13.2,9.5-16.8l0.1,0
						c0.4-0.2,0.5-0.7,0.2-1.1c0,0,0,0,0,0c-4-5.7-10.4-9.2-17.3-9.4c-0.5-0.1-1-0.1-1.5-0.1c-3.8,0.2-7.5,1.1-10.9,2.7
						c-1.6,0.8-3.4,1.3-5.2,1.6c-1.9-0.2-3.7-0.8-5.4-1.6c-3-1.4-6.2-2.2-9.5-2.4h-0.2C323.3,506.3,315.8,510.8,311.8,518z"/>
				</g>
				<g id="Group_3_1_" transform="translate(11.775)">
					<path id="Path_2" class="st5" d="M352.4,490.7c-5.4,0.5-10.5,3.1-14.1,7.2c-3.6,4-5.4,9.4-5,14.8c0,0.4,0.3,0.6,0.7,0.7
						c0.3,0,0.7,0,1,0c5.2-0.2,10-2.7,13.3-6.8c3.6-4.2,5.4-9.7,4.9-15.2C353.2,491,352.8,490.7,352.4,490.7z"/>
				</g>
			</g>
			<g id="Group_7" transform="translate(33.335 1.975)">
				<g id="Group_5" transform="translate(2.143)">
					<path id="Path_3" class="st5" d="M384.2,496.3h9.1c2.2,0,4.4,0.5,6.4,1.5c1.8,0.9,3.3,2.4,4.3,4.1c2.1,3.7,2.1,8.2,0,11.9
						c-1,1.7-2.5,3.2-4.3,4.1c-2,1-4.2,1.5-6.4,1.5h-9.1V496.3z M393.2,517.9c2,0,3.9-0.4,5.6-1.3c1.6-0.8,2.9-2,3.8-3.5
						c1.8-3.3,1.8-7.2,0-10.4c-0.9-1.5-2.2-2.8-3.8-3.5c-1.8-0.9-3.7-1.3-5.6-1.3h-7.3v20.1L393.2,517.9z"/>
					<path id="Path_4" class="st5" d="M413.2,518.4c-1.3-0.7-2.4-1.8-3.1-3.1c-1.5-2.8-1.5-6.2,0-9c0.7-1.3,1.8-2.4,3.1-3.1
						c2.7-1.5,6.1-1.5,8.8,0c1.3,0.7,2.4,1.8,3.1,3.1c1.5,2.8,1.5,6.2,0,9c-0.7,1.3-1.8,2.4-3.1,3.1
						C419.3,519.9,416,519.9,413.2,518.4z M421.2,517.1c1-0.6,1.9-1.5,2.5-2.6c1.2-2.4,1.2-5.2,0-7.5c-0.6-1.1-1.4-2-2.5-2.6
						c-2.2-1.2-4.9-1.2-7.1,0c-1,0.6-1.9,1.5-2.5,2.6c-1.2,2.4-1.2,5.2,0,7.5c0.6,1.1,1.4,2,2.5,2.6
						C416.3,518.4,419,518.4,421.2,517.1z"/>
					<path id="Path_5" class="st5" d="M455.5,502.2l-6.5,17.2h-1.5l-5.8-14.9l-5.8,14.9h-1.5l-6.5-17.2h1.6l5.7,15.4l5.9-15.4h1.4
						l5.8,15.3l5.8-15.3H455.5z"/>
					<path id="Path_6" class="st5" d="M472.8,503.9c1.3,1.5,2,3.4,1.9,5.4v10.1h-1.7v-9.9c0.1-1.6-0.4-3.2-1.5-4.4
						c-1.1-1.1-2.6-1.6-4.1-1.5c-1.8-0.1-3.5,0.6-4.8,1.8c-1.2,1.3-1.8,3.1-1.7,4.9v9.2h-1.7v-17.2h1.6v3.7c0.6-1.2,1.5-2.2,2.7-2.8
						c1.3-0.7,2.7-1.1,4.2-1C469.6,502,471.5,502.6,472.8,503.9z"/>
					<path id="Path_7_1_" class="st5" d="M481.5,494.9h1.7v24.5h-1.7V494.9z"/>
					<path id="Path_8_1_" class="st5" d="M492.5,518.4c-1.3-0.7-2.4-1.8-3.1-3.1c-1.5-2.8-1.5-6.2,0-9c0.7-1.3,1.8-2.4,3.1-3.1
						c2.7-1.5,6.1-1.5,8.8,0c1.3,0.7,2.4,1.8,3.1,3.1c1.5,2.8,1.5,6.2,0,9c-0.7,1.3-1.8,2.4-3.1,3.1
						C498.5,519.9,495.2,519.9,492.5,518.4z M500.4,517.1c1-0.6,1.9-1.5,2.5-2.6c1.2-2.4,1.2-5.2,0-7.5c-0.6-1.1-1.4-2-2.5-2.6
						c-2.2-1.2-4.9-1.2-7.1,0c-1,0.6-1.9,1.5-2.5,2.6c-1.2,2.4-1.2,5.2,0,7.5c0.6,1.1,1.4,2,2.5,2.6
						C495.5,518.4,498.2,518.4,500.4,517.1z"/>
					<path id="Path_9_1_" class="st5" d="M521.2,503.7c1.2,1.3,1.8,3,1.7,4.8v10.9h-1.6v-3.1c-0.5,1-1.4,1.8-2.4,2.4
						c-1.2,0.6-2.5,0.9-3.8,0.8c-1.6,0.1-3.2-0.4-4.5-1.4c-2-1.7-2.2-4.6-0.6-6.6c0.1-0.2,0.3-0.3,0.4-0.5c1.4-1,3.2-1.5,4.9-1.3
						h5.9v-1.4c0.1-1.3-0.4-2.7-1.3-3.7c-1.1-0.9-2.4-1.4-3.8-1.3c-1.1,0-2.2,0.2-3.3,0.6c-1,0.4-1.9,0.9-2.7,1.6l-0.8-1.2
						c0.9-0.8,2-1.4,3.1-1.8c1.2-0.4,2.5-0.6,3.8-0.6C518.1,501.9,519.9,502.5,521.2,503.7z M519,517.2c1-0.7,1.8-1.7,2.3-2.9v-3.2
						h-5.9c-1.3-0.1-2.6,0.2-3.7,0.9c-0.8,0.6-1.2,1.6-1.1,2.5c0,1,0.4,2,1.3,2.7c1,0.7,2.3,1.1,3.5,1
						C516.7,518.2,518,517.9,519,517.2L519,517.2z"/>
					<path id="Path_10_1_" class="st5" d="M545.1,494.9v24.5h-1.6v-4c-0.6,1.3-1.6,2.4-2.9,3.1c-1.3,0.7-2.7,1.1-4.2,1.1
						c-1.5,0-3-0.4-4.4-1.1c-1.3-0.7-2.3-1.8-3.1-3.1c-0.8-1.4-1.1-2.9-1.1-4.5c0-1.6,0.4-3.1,1.1-4.5c0.7-1.3,1.8-2.4,3.1-3.1
						c1.3-0.7,2.8-1.1,4.4-1.1c1.5,0,2.9,0.4,4.1,1.1c1.2,0.7,2.2,1.8,2.9,3V495L545.1,494.9z M540.1,517.1c1-0.6,1.9-1.5,2.5-2.6
						c1.2-2.4,1.2-5.2,0-7.5c-0.6-1.1-1.4-2-2.5-2.6c-2.2-1.2-4.9-1.2-7.1,0c-1,0.6-1.9,1.5-2.5,2.6c-1.2,2.4-1.2,5.2,0,7.5
						c0.6,1.1,1.4,2,2.5,2.6C535.2,518.4,537.8,518.4,540.1,517.1z"/>
					<path id="Path_11_1_" class="st5" d="M562.9,518.4c-1.3-0.7-2.4-1.8-3.1-3.1c-1.5-2.8-1.5-6.2,0-9c0.7-1.3,1.8-2.4,3.1-3.1
						c2.7-1.5,6.1-1.5,8.8,0c1.3,0.7,2.4,1.8,3.1,3.1c1.5,2.8,1.5,6.2,0,9c-0.7,1.3-1.8,2.4-3.1,3.1
						C568.9,519.9,565.6,519.9,562.9,518.4z M570.8,517.1c1-0.6,1.9-1.5,2.5-2.6c1.2-2.4,1.2-5.2,0-7.5c-0.6-1.1-1.4-2-2.5-2.6
						c-2.2-1.2-4.9-1.2-7.1,0c-1,0.6-1.9,1.5-2.5,2.6c-1.2,2.4-1.2,5.2,0,7.5c0.6,1.1,1.4,2,2.5,2.6
						C565.9,518.4,568.6,518.4,570.8,517.1z"/>
					<path id="Path_12_1_" class="st5" d="M594.5,503.9c1.3,1.5,2,3.4,1.9,5.4v10.1h-1.7v-9.9c0.1-1.6-0.4-3.2-1.5-4.4
						c-1.1-1.1-2.6-1.6-4.1-1.5c-1.8-0.1-3.5,0.6-4.8,1.8c-1.2,1.3-1.8,3.1-1.7,4.9v9.2H581v-17.2h1.6v3.7c0.6-1.2,1.5-2.2,2.7-2.8
						c1.3-0.7,2.7-1.1,4.2-1C591.3,502,593.1,502.6,594.5,503.9z"/>
					<path id="Path_13" class="st5" d="M620.2,518.3c-0.5,0.4-1,0.7-1.6,0.9c-0.6,0.2-1.3,0.3-2,0.3c-1.3,0.1-2.5-0.4-3.5-1.2
						c-0.9-0.9-1.3-2.2-1.2-3.4v-11.3h-3.2v-1.4h3.2v-3.8h1.7v3.8h5.5v1.4h-5.5v11.1c-0.1,0.9,0.2,1.8,0.8,2.6
						c0.6,0.6,1.5,0.9,2.4,0.9c1,0,1.9-0.3,2.7-0.9L620.2,518.3z"/>
					<path id="Path_14" class="st5" d="M638.3,503.9c1.3,1.5,2,3.4,1.9,5.4v10.1h-1.7v-9.9c0.1-1.6-0.4-3.2-1.5-4.4
						c-1.1-1.1-2.6-1.6-4.1-1.5c-1.8-0.1-3.5,0.6-4.8,1.8c-1.2,1.3-1.8,3.1-1.7,4.9v9.2h-1.7v-24.5h1.7v10.9
						c0.6-1.2,1.5-2.1,2.6-2.8c1.3-0.7,2.7-1,4.1-1C635.1,502,637,502.7,638.3,503.9z"/>
					<path id="Path_15" class="st5" d="M661.6,511.2h-14.8c0,1.3,0.4,2.5,1,3.6c0.6,1,1.5,1.9,2.6,2.4c1.1,0.6,2.4,0.9,3.7,0.9
						c1.1,0,2.1-0.2,3.1-0.6c0.9-0.4,1.8-1,2.4-1.8l0.9,1.1c-0.8,0.9-1.7,1.6-2.8,2.1c-2.7,1.1-5.7,0.9-8.3-0.4
						c-1.3-0.7-2.4-1.8-3.2-3.1c-0.8-1.4-1.2-2.9-1.1-4.5c0-1.6,0.3-3.1,1.1-4.5c0.7-1.3,1.7-2.4,3-3.1c2.6-1.5,5.8-1.5,8.4,0
						c1.2,0.7,2.3,1.8,2.9,3.1c0.7,1.4,1.1,2.9,1.1,4.5L661.6,511.2z M650.1,504.3c-1,0.5-1.8,1.3-2.3,2.3c-0.6,1-0.9,2.1-1,3.3H660
						c0-1.2-0.4-2.3-1-3.3c-1.2-2-3.3-3.1-5.6-3.1C652.3,503.5,651.1,503.8,650.1,504.3L650.1,504.3z"/>
				</g>
				<g id="Group_6" transform="translate(0 14.169)">
					<path id="Path_16" class="st5" d="M410.8,556.3H391l-3.9,9.1h-7.6l17.8-39.5h7.2l17.8,39.5h-7.7L410.8,556.3z M408.3,550.6
						l-7.4-17.3l-7.4,17.3H408.3z"/>
					<path id="Path_17" class="st5" d="M451.3,536.9c2.3,1.3,4.2,3.1,5.4,5.4c2.6,5.1,2.6,11.1,0,16.2c-1.3,2.3-3.1,4.2-5.4,5.4
						c-2.4,1.3-5.1,2-7.9,1.9c-3.7,0.2-7.2-1.3-9.6-4.1v14.6h-7v-41.1h6.7v3.9c1.1-1.4,2.6-2.5,4.3-3.2c1.8-0.7,3.7-1.1,5.7-1.1
						C446.1,534.9,448.9,535.6,451.3,536.9z M449,557.2c3.3-3.9,3.3-9.7,0-13.6c-1.7-1.7-4-2.7-6.4-2.6c-1.6,0-3.2,0.4-4.6,1.2
						c-1.4,0.8-2.5,1.9-3.2,3.3c-1.6,3.1-1.6,6.8,0,9.9c0.7,1.4,1.9,2.5,3.2,3.3c1.4,0.8,3,1.2,4.6,1.2
						C445,559.9,447.3,558.9,449,557.2z"/>
					<path id="Path_18_1_" class="st5" d="M489.9,536.9c2.3,1.3,4.2,3.1,5.4,5.4c2.6,5.1,2.6,11.1,0,16.2c-1.3,2.3-3.1,4.2-5.4,5.4
						c-2.4,1.3-5.1,2-7.9,1.9c-3.7,0.2-7.2-1.3-9.6-4.1v14.6h-7v-41.1h6.7v3.9c1.1-1.4,2.6-2.5,4.3-3.2c1.8-0.7,3.7-1.1,5.7-1.1
						C484.8,534.9,487.5,535.6,489.9,536.9z M487.7,557.2c3.3-3.9,3.3-9.7,0-13.6c-1.7-1.7-4-2.7-6.4-2.6c-1.6,0-3.2,0.4-4.6,1.2
						c-1.4,0.8-2.5,1.9-3.2,3.3c-1.6,3.1-1.6,6.8,0,9.9c0.7,1.4,1.9,2.5,3.2,3.3c1.4,0.8,3,1.2,4.6,1.2
						C483.7,559.9,486,558.9,487.7,557.2z"/>
					<path id="Path_19_1_" class="st5" d="M523.7,564.7c-2.5-0.7-4.8-1.8-6.7-3.4l2.5-5.7c1.8,1.4,3.8,2.4,5.9,3.1
						c2.3,0.8,4.7,1.2,7.1,1.2c2.3,0.2,4.6-0.3,6.6-1.4c1.3-0.8,2.2-2.2,2.2-3.7c0-1.1-0.4-2.1-1.2-2.8c-0.9-0.8-1.9-1.4-3.1-1.7
						c-1.2-0.4-2.9-0.9-5.1-1.4c-2.5-0.6-4.9-1.3-7.3-2.1c-1.8-0.7-3.5-1.9-4.8-3.4c-1.4-1.7-2.1-3.9-2-6.2c0-2.1,0.6-4.2,1.8-5.9
						c1.3-1.9,3.2-3.4,5.4-4.3c2.8-1.1,5.8-1.7,8.8-1.6c2.4,0,4.8,0.3,7.1,0.9c2.1,0.5,4.2,1.4,6,2.6l-2.3,5.7
						c-1.7-1-3.5-1.8-5.4-2.3c-1.8-0.5-3.6-0.8-5.5-0.8c-2.2-0.2-4.5,0.3-6.5,1.5c-1.3,0.8-2.1,2.3-2.1,3.9c0,1.1,0.4,2.1,1.2,2.8
						c0.9,0.8,1.9,1.3,3.1,1.7c1.2,0.4,2.9,0.9,5.1,1.4c2.5,0.5,4.9,1.2,7.2,2.1c1.9,0.7,3.5,1.9,4.8,3.4c1.4,1.7,2.1,3.9,2,6.1
						c0,2.1-0.6,4.2-1.8,5.9c-1.3,1.9-3.2,3.4-5.4,4.2c-2.8,1.1-5.8,1.7-8.8,1.6C529.6,566,526.6,565.6,523.7,564.7z"/>
					<path id="Path_20_1_" class="st5" d="M573.2,563.8c-0.9,0.7-1.9,1.2-3,1.5c-1.2,0.3-2.5,0.5-3.7,0.5c-2.8,0.2-5.6-0.8-7.7-2.6
						c-1.9-2-2.9-4.8-2.7-7.6v-14.5h-5v-5.6h5v-6.9h7v6.9h8.1v5.6h-8.1v14.3c-0.1,1.2,0.3,2.4,1.1,3.4c0.8,0.8,1.9,1.2,3.1,1.2
						c1.4,0.1,2.8-0.4,3.9-1.2L573.2,563.8z"/>
					<path id="Path_21_1_" class="st5" d="M583.3,563.9c-2.4-1.3-4.4-3.2-5.7-5.5c-2.7-5-2.7-11,0-15.9c1.4-2.3,3.3-4.2,5.7-5.5
						c5.2-2.6,11.3-2.6,16.5,0c2.4,1.3,4.4,3.1,5.7,5.5c2.7,5,2.7,11,0,15.9c-1.4,2.3-3.3,4.2-5.7,5.5
						C594.6,566.5,588.5,566.5,583.3,563.9z M597.9,557.2c3.4-3.9,3.4-9.7,0-13.6c-1.7-1.7-4-2.7-6.4-2.6c-2.4-0.1-4.7,0.9-6.4,2.6
						c-3.3,3.9-3.3,9.7,0,13.6c1.7,1.7,4,2.7,6.4,2.6C593.9,559.9,596.3,558.9,597.9,557.2L597.9,557.2z"/>
					<path id="Path_22_1_" class="st5" d="M631.8,535v6.7c-0.5-0.1-1.1-0.2-1.6-0.2c-2.4-0.1-4.7,0.7-6.4,2.4
						c-1.7,1.9-2.5,4.4-2.3,6.9v14.6h-7v-30.1h6.7v4.4C623.5,536.4,627.6,534.6,631.8,535z"/>
					<path id="Path_23_1_" class="st5" d="M665.7,552.6H642c0.3,2.1,1.5,4,3.2,5.3c1.9,1.3,4.2,2,6.5,1.9c3.1,0.1,6-1.1,8.2-3.3
						l3.8,4.3c-1.4,1.6-3.1,2.9-5.1,3.7c-5.1,1.9-10.8,1.6-15.7-0.7c-2.4-1.2-4.5-3.1-5.8-5.5c-1.4-2.4-2.1-5.2-2.1-8
						c0-2.8,0.6-5.5,2-7.9c1.3-2.3,3.2-4.2,5.6-5.5c2.5-1.3,5.2-2,8-2c2.8,0,5.5,0.6,7.9,1.9c2.3,1.3,4.2,3.2,5.4,5.5
						c1.3,2.5,2,5.3,1.9,8.1C665.8,551,665.7,551.7,665.7,552.6z M644.8,542.6c-1.6,1.4-2.6,3.3-2.8,5.3h17.1
						c-0.2-2-1.2-3.9-2.8-5.3c-1.6-1.4-3.6-2.1-5.8-2C648.5,540.6,646.4,541.3,644.8,542.6L644.8,542.6z"/>
				</g>
			</g>
		</g>
		<g id="Group_295" transform="translate(0 0)">
			<g id="Group_60" transform="translate(32.677 13.728)">
				<g id="Group_59">
					<g id="Group_49" transform="translate(0 0.56)">
						<path id="Path_70" class="st5" d="M398.4,413h6.8v15.4c-2.1,1.6-4.4,2.9-6.9,3.6c-2.6,0.8-5.4,1.3-8.2,1.3
							c-3.7,0.1-7.4-0.8-10.6-2.6c-3.1-1.6-5.7-4.1-7.4-7.1c-3.6-6.3-3.6-14.1,0-20.4c1.8-3,4.4-5.5,7.5-7.1c3.3-1.7,7-2.6,10.7-2.6
							c3,0,6,0.5,8.8,1.6c2.6,1,4.8,2.6,6.7,4.7l-4.5,4.4c-2.8-2.9-6.6-4.5-10.6-4.4c-2.5,0-5,0.5-7.2,1.7c-2.1,1.1-3.8,2.8-5,4.8
							c-1.2,2.1-1.8,4.6-1.8,7.1c0,2.4,0.6,4.8,1.8,6.9c1.2,2,2.9,3.7,5,4.8c2.2,1.2,4.7,1.8,7.2,1.8c2.8,0.1,5.5-0.6,7.9-2
							L398.4,413z"/>
					</g>
					<g id="Group_50" transform="translate(13.396 3.533)">
						<path id="Path_71" class="st5" d="M405.7,428.2c-2.3-1.2-4.3-3.1-5.6-5.4c-2.7-4.8-2.7-10.7,0-15.6c1.3-2.3,3.3-4.1,5.6-5.4
							c5.1-2.6,11.1-2.6,16.1,0c2.3,1.2,4.3,3.1,5.6,5.4c2.7,4.8,2.7,10.7,0,15.6c-1.3,2.3-3.3,4.1-5.6,5.4
							C416.8,430.8,410.8,430.8,405.7,428.2z M420,421.7c3.3-3.8,3.3-9.5,0-13.3c-1.6-1.7-3.9-2.6-6.3-2.5c-2.3-0.1-4.6,0.8-6.3,2.5
							c-3.3,3.8-3.3,9.5,0,13.3c1.6,1.7,3.9,2.6,6.3,2.5C416.1,424.3,418.4,423.4,420,421.7L420,421.7z"/>
					</g>
					<g id="Group_51" transform="translate(24.677 3.533)">
						<path id="Path_72" class="st5" d="M430,428.2c-2.3-1.2-4.3-3.1-5.6-5.4c-2.7-4.8-2.7-10.7,0-15.6c1.3-2.3,3.3-4.1,5.6-5.4
							c5.1-2.6,11.1-2.6,16.1,0c2.3,1.2,4.3,3.1,5.6,5.4c2.7,4.8,2.7,10.7,0,15.6c-1.3,2.3-3.3,4.1-5.6,5.4
							C441,430.8,435,430.8,430,428.2z M444.3,421.7c3.3-3.8,3.3-9.5,0-13.3c-1.6-1.7-3.9-2.6-6.3-2.5c-2.3-0.1-4.6,0.8-6.3,2.5
							c-3.3,3.8-3.3,9.5,0,13.3c1.6,1.7,3.9,2.6,6.3,2.5C440.3,424.3,442.6,423.4,444.3,421.7L444.3,421.7z"/>
					</g>
					<g id="Group_52" transform="translate(35.957 3.533)">
						<path id="Path_73" class="st5" d="M478.2,400.3v25c0,10.4-5.3,15.5-15.9,15.5c-2.7,0-5.4-0.3-8-1.1c-2.3-0.6-4.4-1.7-6.3-3.1
							l3.1-5.2c1.5,1.2,3.1,2,4.9,2.6c1.9,0.6,4,1,6,1c2.6,0.2,5.1-0.6,7.1-2.2c1.6-1.8,2.5-4.3,2.3-6.7v-1.5
							c-1.2,1.3-2.7,2.3-4.3,2.9c-1.8,0.7-3.7,1-5.6,1c-2.6,0-5.2-0.6-7.6-1.8c-2.2-1.1-4.1-2.9-5.4-5c-2.6-4.6-2.6-10.2,0-14.8
							c1.3-2.1,3.1-3.9,5.4-5c2.3-1.2,4.9-1.8,7.6-1.8c2,0,4,0.3,5.8,1c1.7,0.7,3.2,1.8,4.4,3.2v-3.9H478.2z M469,420.3
							c1.7-1.6,2.6-3.8,2.5-6.1c0.1-2.3-0.8-4.5-2.5-6c-3.7-3.1-9.1-3.1-12.9,0c-1.7,1.5-2.6,3.7-2.5,6c-0.1,2.3,0.8,4.5,2.5,6.1
							C459.8,423.4,465.2,423.4,469,420.3z"/>
					</g>
					<g id="Group_53" transform="translate(48.864)">
						<path id="Path_74" class="st5" d="M474.4,392.4h6.9v40.9h-6.9V392.4z"/>
					</g>
					<g id="Group_54" transform="translate(53.148 3.533)">
						<path id="Path_75" class="st5" d="M513.6,417.2h-23.1c0.3,2.1,1.5,3.9,3.2,5.2c1.9,1.3,4.1,2,6.4,1.9c3,0.1,5.9-1.1,8-3.2
							l3.7,4.2c-1.3,1.6-3.1,2.8-5,3.6c-5,1.8-10.6,1.6-15.4-0.7c-2.4-1.2-4.4-3.1-5.7-5.4c-1.4-2.4-2.1-5.1-2-7.8
							c0-2.7,0.6-5.4,2-7.7c1.3-2.3,3.2-4.1,5.4-5.4c2.4-1.3,5.1-2,7.8-1.9c2.7,0,5.3,0.6,7.7,1.9c2.2,1.2,4.1,3.1,5.3,5.4
							c1.3,2.4,2,5.2,1.9,8C513.7,415.7,513.6,416.4,513.6,417.2z M493.2,407.5c-1.5,1.3-2.5,3.2-2.8,5.2h16.7
							c-0.2-2-1.2-3.8-2.7-5.2c-1.6-1.3-3.6-2.1-5.6-2C496.8,405.5,494.8,406.2,493.2,407.5L493.2,407.5z"/>
					</g>
					<g id="Group_55" transform="translate(69.833 0.735)">
						<path id="Path_76" class="st5" d="M544.1,395.6c2.3,1,4.3,2.6,5.7,4.7c2.6,4.5,2.6,10.1,0,14.6c-1.4,2.1-3.4,3.8-5.7,4.8
							c-2.8,1.2-5.7,1.7-8.7,1.7h-8.7v11.1h-7.2V394h15.9C538.3,393.9,541.3,394.5,544.1,395.6z M542.1,413.4c3.1-3,3.2-8,0.2-11.1
							c-0.1-0.1-0.2-0.2-0.2-0.2c-2.1-1.5-4.6-2.2-7.1-2h-8.4v15.3h8.4C537.5,415.5,540,414.8,542.1,413.4L542.1,413.4z"/>
					</g>
					<g id="Group_56" transform="translate(82.32)">
						<path id="Path_77" class="st5" d="M546.3,392.4h6.9v40.9h-6.9V392.4z"/>
					</g>
					<g id="Group_57" transform="translate(86.709 3.533)">
						<path id="Path_78" class="st5" d="M579,403.1c2.5,2.5,3.7,5.9,3.4,9.4v17.2H576v-3.6c-0.9,1.3-2.1,2.3-3.6,2.9
							c-1.8,0.7-3.7,1.1-5.6,1c-2,0-4-0.3-5.8-1.1c-1.5-0.7-2.9-1.8-3.8-3.2c-0.9-1.3-1.4-2.9-1.3-4.5c-0.1-2.5,1-4.8,2.9-6.4
							c2.7-1.8,6-2.7,9.3-2.4h7.6v-0.4c0.1-1.8-0.6-3.5-1.8-4.7c-1.6-1.2-3.5-1.8-5.5-1.7c-1.7,0-3.3,0.3-4.9,0.8
							c-1.5,0.4-2.9,1.2-4.1,2.1l-2.7-5c1.7-1.2,3.6-2.2,5.6-2.7c2.2-0.6,4.6-1,6.9-0.9C572.7,399.7,576.2,400.9,579,403.1z
							 M572.8,423.9c1.3-0.8,2.3-2,2.8-3.4v-3.4h-7.1c-4,0-6,1.3-6,3.9c0,1.2,0.5,2.3,1.5,3c1.2,0.8,2.7,1.2,4.1,1.1
							C569.8,425.2,571.4,424.8,572.8,423.9z"/>
					</g>
					<g id="Group_58" transform="translate(96.083 3.638)">
						<path id="Path_79" class="st5" d="M608.9,400.2L595.2,432c-0.9,2.6-2.5,5-4.7,6.7c-2,1.3-4.3,2-6.7,2c-1.5,0-3-0.2-4.4-0.7
							c-1.3-0.4-2.5-1.1-3.5-2l2.8-5.1c0.7,0.6,1.5,1.1,2.3,1.5c0.9,0.4,1.8,0.5,2.7,0.6c1.1,0,2.1-0.3,3-0.9c1-0.9,1.7-1.9,2.2-3.2
							l0.5-1.2l-12.8-29.5h7.2L593,422l9.3-21.8L608.9,400.2z"/>
					</g>
				</g>
			</g>
			<g id="Group_69" transform="translate(0)">
				<g id="Group_62" transform="translate(17.765 11.572)">
					<g id="Group_61">
						<path id="Path_80" class="st5" d="M370.9,398.5l-18.5-10.7l-15.2,14.7l13.9,13.5l19.8-11.4c1.7-1,2.2-3.1,1.3-4.8
							C371.9,399.2,371.5,398.8,370.9,398.5z"/>
					</g>
				</g>
				<g id="Group_64" transform="translate(0.961)">
					<g id="Group_63">
						<path id="Path_81" class="st5" d="M366.1,397.5l-20.4-11.8l-44.7-22.9l50.4,48.8L366.1,397.5z"/>
					</g>
				</g>
				<g id="Group_66" transform="translate(1.196 17.015)">
					<g id="Group_65">
						<path id="Path_82" class="st5" d="M301.6,447.5l44-24.2l19-11l-13.3-12.8L301.6,447.5z"/>
					</g>
				</g>
				<g id="Group_68" transform="translate(0 0.626)">
					<g id="Group_67">
						<path id="Path_83" class="st5" d="M299,364.2l0,98.5l50.9-49.3L299,364.2z"/>
					</g>
				</g>
			</g>
			<g id="Group_70" transform="translate(33.088 0.049)">
				<path id="Path_84" class="st5" d="M381.2,387c-1.5,0-3-0.3-4.4-1c-1.3-0.7-2.5-1.6-3.5-2.7c-1-1.1-1.8-2.5-2.3-3.9
					c-0.6-1.4-0.8-2.9-0.8-4.5c0-3.1,1.1-6.1,3.2-8.4c1-1.1,2.2-2,3.5-2.6c1.4-0.6,2.9-1,4.4-0.9c2-0.1,4,0.4,5.7,1.4
					c1.4,0.9,2.6,2.2,3.4,3.7l-2.3,1.6c-0.6-1.3-1.6-2.4-2.8-3.1c-1.2-0.7-2.6-1-4-1c-1.1,0-2.3,0.2-3.3,0.8c-1,0.5-1.8,1.2-2.5,2.1
					c-0.7,0.9-1.2,1.9-1.6,3c-0.4,1.1-0.6,2.3-0.6,3.5c0,1.2,0.2,2.4,0.6,3.6c0.4,1.1,1,2.1,1.7,3c0.7,0.8,1.6,1.5,2.6,2
					c1,0.5,2.1,0.7,3.2,0.7c1.4,0,2.7-0.4,3.9-1c1.4-0.8,2.5-1.9,3.5-3.2v3.1C387,385.6,384.2,387,381.2,387z M388.4,377.3h-5.1V375
					h7.6v11.8h-2.5L388.4,377.3z"/>
				<path id="Path_85" class="st5" d="M411.6,384.2v2.7h-16.1v-23.7h15.8v2.7h-12.8v7.7h11.1v2.5h-11.1v8.2L411.6,384.2z"/>
				<path id="Path_86" class="st5" d="M432.7,365.8h-8.2v21h-3v-21h-8.2v-2.7h19.3L432.7,365.8z"/>
				<path id="Path_87" class="st5" d="M443.6,386.8v-23.7h3v23.7H443.6z"/>
				<path id="Path_88" class="st5" d="M455.2,368.7v18.1h-3v-23.7h2.5l14.5,18.5v-18.5h3v23.6h-2.7L455.2,368.7z"/>
				<path id="Path_89" class="st5" d="M495.9,387c-1.6,0-3.1-0.3-4.5-1c-1.3-0.7-2.5-1.6-3.5-2.7c-2-2.3-3.1-5.2-3.1-8.3
					c0-1.5,0.3-3.1,0.9-4.5c0.6-1.4,1.4-2.7,2.4-3.8c1-1.1,2.2-2,3.6-2.7c1.4-0.7,2.9-1,4.4-1c1.6,0,3.1,0.3,4.5,1
					c1.3,0.7,2.5,1.6,3.5,2.8c1,1.1,1.7,2.5,2.3,3.9c1.6,4.4,0.7,9.3-2.4,12.7c-1,1.1-2.2,2-3.6,2.6C499,386.7,497.5,387,495.9,387z
					 M487.8,375c0,1.2,0.2,2.4,0.6,3.5c0.4,1.1,0.9,2.1,1.7,3c0.7,0.9,1.6,1.6,2.6,2.1c1,0.5,2.2,0.8,3.3,0.8c1.2,0,2.4-0.3,3.4-0.8
					c1-0.5,1.9-1.3,2.5-2.1c0.7-0.9,1.2-1.9,1.6-3c0.4-1.1,0.5-2.2,0.5-3.4c0-1.2-0.2-2.4-0.6-3.5c-0.4-1.1-0.9-2.1-1.7-3
					c-0.7-0.9-1.6-1.6-2.6-2.1c-2.1-1-4.6-1-6.7,0c-1,0.5-1.9,1.2-2.5,2.1c-0.7,0.9-1.3,1.9-1.6,3C488,372.7,487.8,373.8,487.8,375z
					"/>
				<path id="Path_90" class="st5" d="M514.3,368.7v18.1h-3v-23.7h2.5l14.5,18.5v-18.5h3v23.6h-2.7L514.3,368.7z"/>
			</g>
		</g>
	</g>
</g>
</svg>
