<?xml version="1.0" encoding="utf-8"?>
<!-- Generator: Adobe Illustrator 24.1.2, SVG Export Plug-In . SVG Version: 6.00 Build 0)  -->
<svg version="1.1" id="Layer_1" xmlns="http://www.w3.org/2000/svg" xmlns:xlink="http://www.w3.org/1999/xlink" x="0px" y="0px"
	 viewBox="0 0 1080 1080" style="enable-background:new 0 0 1080 1080;" xml:space="preserve">
<style type="text/css">
	.Drop_x0020_Shadow{fill:none;}
	.Outer_x0020_Glow_x0020_5_x0020_pt{fill:none;}
	.Blue_x0020_Neon{fill:none;stroke:#8AACDA;stroke-width:7;stroke-linecap:round;stroke-linejoin:round;}
	.Chrome_x0020_Highlight{fill:url(#SVGID_1_);stroke:#FFFFFF;stroke-width:0.3629;stroke-miterlimit:1;}
	.Jive_GS{fill:#FFDD00;}
	.Alyssa_GS{fill:#A6D0E4;}
	.st0{fill:#F0CD95;}
	.st1{fill:#3B0215;}
	.st2{fill:#97002F;}
	.st3{fill:#5E001E;}
	.st4{fill:none;stroke:#5E001E;stroke-linecap:round;stroke-miterlimit:10;}
	.st5{fill:#FFFFFF;}
	.st6{fill:none;stroke:#3B0215;stroke-linecap:round;stroke-miterlimit:10;}
	.st7{fill:#E3E3E3;}
	.st8{fill:#E4E4E4;}
	.st9{fill:#FCD87F;}
	.st10{fill:#6C0022;}
	.st11{fill:none;stroke:#97002F;stroke-width:2.02;stroke-linecap:round;stroke-miterlimit:10;}
	.st12{fill:#8C002C;}
	.st13{opacity:0.2;fill:#5E001E;enable-background:new    ;}
	.st14{fill:none;stroke:#6C0022;}
	.st15{clip-path:url(#SVGID_3_);}
	.st16{fill:none;stroke:#707070;}
</style>
<linearGradient id="SVGID_1_" gradientUnits="userSpaceOnUse" x1="-1100" y1="0" x2="-1100" y2="-1">
	<stop  offset="0" style="stop-color:#656565"/>
	<stop  offset="0.618" style="stop-color:#1B1B1B"/>
	<stop  offset="0.6292" style="stop-color:#545454"/>
	<stop  offset="0.9831" style="stop-color:#3E3E3E"/>
</linearGradient>
<g id="Group_314_1_" transform="translate(-54 -3250.074)">
	<g id="Rectangle_35_2_" transform="translate(54 3250.074)">
		<path class="st3" d="M220.4,260.1h534.1c43.3,0,78.5,35.1,78.5,78.5V703c0,43.3-35.1,78.5-78.5,78.5H220.4
			c-43.3,0-78.5-35.1-78.5-78.5V338.6C141.9,295.3,177.1,260.1,220.4,260.1z"/>
		<path class="st14" d="M220.4,261.5h534.1c42.6,0,77.1,34.5,77.1,77.1V703c0,42.6-34.5,77.1-77.1,77.1H220.4
			c-42.6,0-77.1-34.5-77.1-77.1V338.6C143.3,296,177.8,261.5,220.4,261.5z"/>
	</g>
	<path id="Path_516_1_" class="st10" d="M265.3,3510.2h552.4c38.3,0,69.3,31,69.3,69.3v95.6c0,38.3-31,69.3-69.3,69.3H265.3
		c-38.3,0-69.3-31-69.3-69.3v-95.6C195.9,3541.3,227,3510.2,265.3,3510.2z"/>
	<g id="تنزيل-_3_" transform="translate(54 3277.469)">
		<path id="Path_348_2_" class="st10" d="M151.4,309c0,5.2,20.5,24.5,32.8,30.4c11.2,5.5,16.6,6.7,31.6,6.7c17.8,0,18.1,0,11.9,3.8
			c-17.1,10.7-26.4,27.8-26.4,49c0.2,32.1,23.8,55.4,55.9,55.4c50.7,0,75.1-59.2,39.2-95.4c-12.8-12.8-27.1-17.6-46.6-15.7
			l-13.1,1.4l11.9-6c10.9-5.5,31.2-24.7,31.2-29.7c0-1.2-6.4-2.1-14.3-2.1c-10.9,0-15.9,1.2-22.8,6c-16.1,10.9-37.3,11-53.5,0.2
			c-7.4-5-12.1-6.2-23.5-6.2C157.9,306.9,151.4,307.8,151.4,309z M275.4,367c23.1,15.5,25.2,40.4,4.8,59.7
			c-14,13.6-41.1,10.2-53-6.4c-7.1-10-8.3-28.8-2.4-39.7C234.2,363,259.4,356.3,275.4,367z"/>
		<path id="Path_349_2_" class="st10" d="M370.5,313.3c2.1,10.2,13.8,19.8,23.8,19.8c10.5,0,22.4-10.7,22.4-20v-6.2h-47.6
			L370.5,313.3z"/>
		<path id="Path_350_2_" class="st10" d="M496.3,309.5c0,10.7,25.4,35.4,42.1,41.1c14.3,4.8,37.3,4.8,51.4,0
			c13.3-4.5,31.6-20.5,39.2-34l5.5-9.7h-13.6c-12.4,0-14.3,0.7-23.5,9.3c-9.5,8.8-22.6,14.5-33.3,14.5s-23.8-5.7-33.3-14.5
			c-9-8.3-11.4-9.3-22.4-9.3C501,306.9,496.3,307.8,496.3,309.5z"/>
		<path id="Path_351_2_" class="st10" d="M681.9,308.5c1.5,0.7,3.1,0.6,4.5-0.2c1-0.7-0.5-1.4-3.1-1.2
			C680.7,307.1,680,307.8,681.9,308.5z"/>
		<path id="Path_352_2_" class="st10" d="M757.8,314.5c1.7,8.6,9,17.4,18.6,22.4c17.6,9.3,40.7-2.6,45.7-23.5c1.4-5.7,1-6.4-4.5-6.4
			c-3.8,0-6,1.4-6,3.8c0,1.9-3.1,6.9-6.9,10.7c-11.9,11.7-28.8,8.8-35-6.4c-2.4-5.5-5-8.1-8.3-8.1
			C756.9,306.9,756.4,307.8,757.8,314.5z"/>
		<path id="Path_353_2_" class="st10" d="M312.3,318.1c1.5,0.7,3.1,0.6,4.5-0.2c1-0.7-0.5-1.4-3.1-1.2
			C311.1,316.6,310.4,317.3,312.3,318.1z"/>
		<path id="Path_354_2_" class="st10" d="M679.9,322.3c-7.5,7-7.9,18.8-0.9,26.2c3.7,3.9,8.8,6,14.2,5.9c5.1,0.4,10.2-1.4,14-4.8
			c3.4-3.9,5.1-8.9,4.8-14c0.3-10.2-7.7-18.8-17.9-19.2C688.7,316.3,683.5,318.4,679.9,322.3z M703.9,329.5
			c7.8,11.9-4.8,24.7-16.9,16.9c-6.4-4.3-8.1-15-3.1-20C688.9,321.4,699.6,323,703.9,329.5L703.9,329.5z"/>
		<path id="Path_355_2_" class="st10" d="M646.6,322.6c-6.9,6.9-2.9,15.2,7.4,15.2c7.4,0,10.5-11.2,4.3-15.9
			C652.6,317.8,651.1,318.1,646.6,322.6z"/>
		<path id="Path_356_2_" class="st10" d="M335.7,333c-6.6,7.4-6.3,18.7,0.7,25.7c7.1,6.8,18.4,6.6,25.2-0.5c3.3-3.4,5.1-8.1,5-12.8
			c0-10.2-7.1-17.1-17.8-17.1C344,328.2,339.4,329.9,335.7,333z"/>
		<path id="Path_357_2_" class="st10" d="M412.3,337.8c-20.5,12.4-19.5,44.9,1.4,55.9c5.7,2.3,11.7,3.5,17.8,3.6
			c8.6,0,12.4-1.4,19.3-7.4c16.4-14.5,16.4-35.2-0.2-49.7c-6.7-5.7-10.5-7.1-19.5-7.1C424.5,333,418,334.6,412.3,337.8z
			 M440.1,346.1c11.9,6.2,15,16.9,8.3,29.5c-10,19.8-39.2,11.9-39.2-10.5c0-7.1,1.4-11.2,5.5-14.7
			C423.9,341.8,430.1,340.9,440.1,346.1L440.1,346.1z"/>
		<path id="Path_358_2_" class="st10" d="M483.3,341.4c-9.7,5.2-13.1,10.5-13.3,20.9c-0.2,24.5,33.5,31.9,44,9.5
			C523.2,352.5,502.1,331.4,483.3,341.4z"/>
		<path id="Path_359_2_" class="st10" d="M311.2,346.4c-1.9,5,3.1,10,6.7,6.4c3.1-3.1,1.2-10.2-2.6-10.2
			C313.8,342.5,312.1,344.2,311.2,346.4z"/>
		<path id="Path_360_2_" class="st10" d="M727.2,347.1c-20.2,9.5-32.1,28.5-32.1,51.8c-0.6,15.9,6.1,31.2,18.3,41.4
			c12.4,11.2,23.5,14.7,42.6,13.6c11.9-0.7,17.1-2.4,25.2-8.1c30.4-21.4,34.7-61.1,9.3-86.6C773.8,342.5,747.6,337.6,727.2,347.1z
			 M769,367c18.3,12.1,23.5,31.6,13.8,49.2c-10.2,17.8-32.9,24-50.7,13.9c-5-2.9-9.3-6.9-12.5-11.7c-11.4-17.4-4.3-43.8,14-52.8
			C744.9,360,758.2,360.5,769,367L769,367z"/>
		<path id="Path_361_2_" class="st10" d="M809.2,346.6c2.5,1.1,4.9,2.4,7.1,4c3.1,2.4,3.1,2.1,0.2-1.7c-1.7-2.2-4.3-3.6-7.1-3.8
			C806.4,345.2,806.1,345.4,809.2,346.6z"/>
		<path id="Path_362_2_" class="st10" d="M153.8,353.3c-6.2,7.6,3.1,19.3,11.4,14c5.5-3.6,6.2-9,1.7-13.8
			C162.2,348.7,157.6,348.7,153.8,353.3z"/>
		<path id="Path_363_2_" class="st10" d="M187.4,355.4c-2.8,3.1-2.6,7.9,0.5,10.7c2.9,2.6,7.3,2.6,10.2,0c2.1-2,3.2-4.9,2.9-7.8
			C200,352.1,191.4,350.4,187.4,355.4z M198.5,359.9c1,4.8-6,8.1-9.5,4.5c-3.6-3.6-0.2-10.5,4.5-9.5
			C196,355.5,198,357.4,198.5,359.9L198.5,359.9z"/>
		<path id="Path_364_2_" class="st10" d="M631.3,359.7c-6,3.3-8.3,6.7-8.3,11.9c0,5.5,8.3,13.8,13.8,13.8c12.6,0,17.6-16.2,7.6-24.3
			C638.2,356.1,637.7,356.1,631.3,359.7z"/>
		<path id="Path_365_2_" class="st10" d="M662.1,363.2c-3.1,3.8-2.9,4,1,1c1.6-1.1,3-2.4,4-4C667,358.2,665.1,359.4,662.1,363.2z"/>
		<path id="Path_366_2_" class="st10" d="M826.3,368c-5.5,2.1-10.5,15.2-9,22.8c1.4,7.1,9.7,18.3,13.8,18.3c1,0,1.9-9.7,1.9-21.4
			c0-11.9-0.7-21.4-1.7-21.2C829.6,366.8,827.9,367.3,826.3,368z"/>
		<path id="Path_367_2_" class="st10" d="M328.8,372.5c-1.7,4.3,4,9,7.4,5.7c2.6-2.6,0.2-9.5-3.3-9.5
			C331.4,368.7,329.7,370.4,328.8,372.5z"/>
		<path id="Path_368_2_" class="st10" d="M551.9,373.7c0,6,7.8,5.2,9-1c0.5-2.9-0.7-4-4-4C553.3,368.7,551.9,370.1,551.9,373.7z"/>
		<path id="Path_369_2_" class="st10" d="M659.8,370.9c0.1,1.6,1,3,2.4,3.8c1.4,0.7,1.7-0.2,1-2.1
			C661.4,368.2,659.8,367.5,659.8,370.9z"/>
		<path id="Path_370_2_" class="st10" d="M373.6,374.4c-2.9,3.3-2.7,8.3,0.6,11.3c1.5,1.3,3.4,2.1,5.4,2.1c4,0.4,7.5-2.5,7.9-6.5
			c0.2-1.9-0.4-3.7-1.5-5.2C382.6,370.9,377.1,370.1,373.6,374.4z M384.8,378.9c1,4.8-6,8.1-9.5,4.5c-3.6-3.6-0.2-10.5,4.5-9.5
			C382.2,374.5,384.2,376.5,384.8,378.9L384.8,378.9z"/>
		<path id="Path_371_2_" class="st10" d="M575.2,378c-9,8.9-9.5,23.3-1.2,32.8c8.1,9.3,24.5,9.5,33.5,0.5c9-8.9,9.1-23.4,0.3-32.4
			c-0.4-0.4-0.8-0.8-1.2-1.2C596.4,368.5,584.8,368.7,575.2,378z"/>
		<path id="Path_372_2_" class="st10" d="M164.8,381c-5,3.8-5.7,14.3-1.4,19.5c4,5,15,4.5,19.8-0.7
			C194.3,387.4,178.1,371.2,164.8,381z"/>
		<path id="Path_373_2_" class="st10" d="M519.5,387.5c-2.6,2.6-4.3,5.9-4.8,9.5c0.5,3.6,2.2,7,4.8,9.5c2.6,2.6,5.9,4.3,9.5,4.8
			c3.6-0.5,7-2.2,9.5-4.8c2.6-2.6,4.3-5.9,4.8-9.5c-0.5-3.6-2.2-7-4.8-9.5c-2.6-2.6-5.9-4.3-9.5-4.8
			C525.4,383.3,522.1,384.9,519.5,387.5z M536.2,391.1c6.2,7.6-3.1,19.3-11.2,14c-8.3-5.2-5.5-17.6,4-17.6
			C531.8,387.8,534.3,389,536.2,391.1L536.2,391.1z"/>
		<path id="Path_374_2_" class="st10" d="M658.9,391.4c-2.1,1.9-3,4.6-2.6,7.4c0.6,1.5,1.1,3,1.4,4.5c0,0.5,1.2,1,2.6,1
			c1.9,0,1.7-1.2-0.2-3.8c-2.6-2.9-2.6-4.3,0.5-7.4c1.6-1.8,4.1-2.6,6.4-2.1c3.3,2.1,3.3,10.2,0.2,11.7c-1.4,0.7-1.2,1,0.5,0.7
			c4.3-1,5.2-8.1,1.9-12.1C665.8,386.7,663.6,386.7,658.9,391.4z"/>
		<path id="Path_375_2_" class="st10" d="M468.4,396.8c-8.3,9-1.9,21.9,10.7,21.9c7.4,0,12.1-5,12.1-13.1c0-3.4-1.1-6.7-3.1-9.5
			C484.1,391.1,473.1,391.6,468.4,396.8z"/>
		<path id="Path_376_2_" class="st10" d="M397.4,408.5c-4.8,4.5-4.8,9-0.5,12.8c5.5,4.5,14.5,1.9,15.2-4.3
			C413.8,406.6,404.6,401.2,397.4,408.5z"/>
		<path id="Path_377_2_" class="st10" d="M193.1,413.2c4,3.1,4.3,4.3,1.4,8.6c-2.4,4.3-2.4,4.8,0.2,4c5.7-1.9,5-10.9-1-13.8
			C188.5,409.4,188.5,409.4,193.1,413.2z"/>
		<path id="Path_378_2_" class="st10" d="M346.7,412.2c-7.6,2.9-11.2,8.6-11.4,17.6c-0.5,14.5,13.3,23.5,26.9,18.1
			c12.8-5.5,15.5-20.7,5-31.2C360.1,409.5,355.3,408.6,346.7,412.2z M362.7,421c5,4.4,5.5,12.1,1,17.1c-0.4,0.4-0.8,0.9-1.3,1.2
			c-6.2,5.7-14.7,4-19-3.6c-3.1-5.7-3.1-6.9,0.5-12.6C348.6,416,356.2,415,362.7,421L362.7,421z"/>
		<path id="Path_379_2_" class="st10" d="M183.3,415.6c-1.9,4.8,0.5,10.7,4.3,10.7c2.4,0,2.4-0.7-0.2-2.1c-2.1-1.7-2.9-4.6-1.9-7.1
			C186.9,411.3,185.2,410.1,183.3,415.6z"/>
		<path id="Path_380_2_" class="st10" d="M507,416.3c-2.2,4.1-0.7,9.2,3.4,11.4c1.1,0.6,2.3,0.9,3.5,1c4.7-0.4,8.3-4.5,7.9-9.2
			c-0.1-1.2-0.4-2.3-1-3.4c-2.2-3.8-7.1-5-10.9-2.8C508.7,414,507.7,415.1,507,416.3z M519.4,417.3c1.7,5-1,9-5.5,9
			c-2.2,0-4.3-1.1-5.5-3.1c-1.7-4.8,1-8.8,5.5-8.8C516.1,414.4,518.1,415.5,519.4,417.3L519.4,417.3z"/>
		<path id="Path_381_2_" class="st10" d="M637.2,415.8c-15.9,6.9-23.8,29-15.9,44.2c6.7,12.6,18.6,19.8,31.9,18.6
			c20-1.9,32.3-16.9,30-36.9c-1.2-11.9-8.3-20.9-20-25.9C655,411.7,645.4,411.7,637.2,415.8z M665.8,430.3
			c13.8,12.8,4.8,36.9-14,36.9c-11.4,0-22.6-10.7-22.6-21.4c0.2-5.6,2.7-10.9,6.9-14.5C645.1,422.2,656.7,422,665.8,430.3
			L665.8,430.3z"/>
		<path id="Path_382_2_" class="st10" d="M145,428.6c-1.7,0.7-3.1,4.3-3.1,8.1c0,6.7,0,6.7,7.1,3.1c20.7-10.2,41.4,17.6,25.2,33.8
			c-8.1,8.1-17.4,10-25.7,5.2c-6.7-3.8-6.7-3.8-6.7,2.8c0,7.8,3.3,9.7,17.4,9.7c13.1,0.7,25-7.5,29-20c5.2-13.8,2.6-25.4-8.3-35.9
			c-5.5-5.2-9.5-6.9-19.5-7.4C155.3,427.6,150.1,427.7,145,428.6z"/>
		<path id="Path_383_2_" class="st10" d="M810.9,428.4c-2.4,2.4-1.9,9.7,0.7,11.4c1.4,0.7,1.7-0.2,1-2.4c-0.8-2.5-0.3-5.2,1.4-7.1
			C816.8,426.7,814,425,810.9,428.4z"/>
		<path id="Path_384_2_" class="st10" d="M821.1,428.4c3.8,1.9,2.9,9.7-1.7,12.4c-2.4,1.4-3.1,2.6-1.7,2.6
			c7.1,0.2,10.7-14.3,3.8-15.7C819.9,427.5,819.7,427.7,821.1,428.4z"/>
		<path id="Path_385_2_" class="st10" d="M531.2,430.9c-3.6,3.3-1.4,12.6,3.3,15.2c4.3,2.1,6,1.7,9.7-2.1c3.8-3.8,4.3-5.5,2.1-9.7
			C543.8,429.4,534.5,427.3,531.2,430.9z"/>
		<path id="Path_386_2_" class="st10" d="M441.7,436.5c-38.2,13.1-58.6,54.7-45.5,92.9c1.1,3.3,2.5,6.5,4.1,9.6
			c7.4,15.2,18.8,25.9,36.4,34c11.2,5,15.2,5.7,32.3,4.8c22.1-1.2,34.2-6.4,48-20.2c20.8-21.5,26.9-53.4,15.5-81.1
			c-7.1-15.7-26.9-34.2-42.1-39.5C476.9,432.5,453.6,432.2,441.7,436.5z M478.4,459.6c26.4,7.1,42.6,41.4,31.2,65.4
			c-7.8,16.4-28.3,29.5-46.1,29.5c-6.4-0.9-12.6-2.9-18.3-6c-40.2-18.6-34.7-76.3,8.3-89.2C462.4,456.5,467.9,456.7,478.4,459.6z"/>
		<path id="Path_387_2_" class="st10" d="M564.6,440.7c-6.2,6.9-7.1,14.3-3.3,21.6c6,11.7,19.5,13.6,28.8,4c7.1-7.1,7.6-15.2,1-23.5
			C585.1,435.3,570.3,434.1,564.6,440.7z"/>
		<path id="Path_388_2_" class="st10" d="M386.4,442.9c1.2,6.2,9,6.9,9,1c0-3.6-1.4-5-5-5C387.1,438.9,385.9,440.1,386.4,442.9z"/>
		<path id="Path_389_2_" class="st10" d="M200.2,448.8c-0.9,1.1-1,2.6-0.2,3.8c0.7,1,1.4,0.2,1.4-1.4c0-2.1,2.1-2.9,6-2.1
			c3.1,0.7,5.2,0.2,4.5-0.7C210.2,445.3,201.9,445.7,200.2,448.8z"/>
		<path id="Path_390_2_" class="st10" d="M821.1,456.7c-29,21.6-39,61.1-23.1,92.5c6,11.7,19.8,26.2,30,31.9c4.8,2.4,5,2.1,5-12.6
			c0-11.2-1-16.2-3.8-18.6c-8.6-7.1-13.3-21.4-12.4-36.9c0.7-12.6,2.1-16.6,8.6-24.5c6.7-8.3,7.6-11.2,7.6-23.8
			c0-8.1-0.7-14.5-1.7-14.5C827.7,452,824.3,454.1,821.1,456.7z"/>
		<path id="Path_391_2_" class="st10" d="M702.9,454.9c-1.7,4.3,4,9,7.4,5.7c2.6-2.6,0.2-9.5-3.3-9.5
			C705.5,451.1,703.9,452.8,702.9,454.9z"/>
		<path id="Path_392_2_" class="st10" d="M211.1,457.6c-2.1,3.8-3.1,3.8-7.6,1.2c-4.3-2.6-4.8-2.6-4,0c1.9,5.2,10.9,5,13.8-0.2
			C216.4,452.6,214.5,451.9,211.1,457.6z"/>
		<path id="Path_393_2_" class="st10" d="M325.1,457.6c-3.1,3.8-2.9,4,1,1c1.6-1.1,3-2.4,4-4C330.1,452.6,328.2,453.8,325.1,457.6z"
			/>
		<path id="Path_394_2_" class="st10" d="M781.4,464.7c-1.7,4.3,4,9,7.4,5.7c2.6-2.6,0.2-9.5-3.3-9.5
			C784,460.9,782.3,462.6,781.4,464.7z"/>
		<path id="Path_395_2_" class="st10" d="M216.4,473.7c-9.7,5.7-15,15.9-15,28.5c-0.5,12.3,6.6,23.6,17.8,28.5c11.9,5.7,15,6,27.3,1
			c32.1-12.8,21.9-62.8-13.1-62.8C227.5,469.2,221.6,470.8,216.4,473.7z M247.3,485.6c7.4,5.7,10.2,16.6,6.2,24.3
			c-9,17.8-30.4,18.6-39.2,1.7c-5.3-10.4-1.1-23.1,9.3-28.4c3.1-1.6,6.5-2.3,10-2.3C238.5,481.1,243.2,482.7,247.3,485.6z"/>
		<path id="Path_396_2_" class="st10" d="M358.3,472.9c-4.5,8.6,3.3,16.6,12.6,13.1c9.3-3.3,5.7-17.6-4.3-17.6
			C363.3,468.3,360.2,470,358.3,472.9z"/>
		<path id="Path_397_2_" class="st10" d="M704.6,471.9c-6.2,7.6,3.1,19.3,11.4,14c8.1-5.2,5.2-17.6-4.3-17.6
			C709,468.6,706.4,469.9,704.6,471.9z"/>
		<path id="Path_398_2_" class="st10" d="M285.3,474.4c-6.2,7.6,3.1,19.3,11.4,14c8.1-5.2,5.2-17.6-4.3-17.6
			C289.7,471,287.1,472.3,285.3,474.4z"/>
		<path id="Path_399_2_" class="st10" d="M741.7,478.4c-7.5,6-8.8,17-2.8,24.5c1.6,2,3.6,3.6,5.9,4.7c13.1,6.9,26.4-1.4,26.4-16.6
			c0-8.8-9-17.6-17.8-17.6C749.1,474,745,475.7,741.7,478.4z"/>
		<path id="Path_400_2_" class="st10" d="M601.4,484.4c-2.4,6.4-1.7,10.2,3.1,12.8c2.6,1.2,5.5,1.6,8.3,1c4.8-2.5,6.7-8.4,4.3-13.2
			c-0.1-0.3-0.3-0.6-0.5-0.8C612.8,479.4,603.3,479.6,601.4,484.4z"/>
		<path id="Path_401_2_" class="st10" d="M317.3,492.3c-5.3,5.4-5.3,14.1,0.1,19.5c0.5,0.5,1.1,1,1.8,1.5c6.9,4.5,14.3,2.6,19.3-4.8
			C347.2,494.9,328,480.4,317.3,492.3z M334.6,497.3c3.1,6,1,11.4-5,13.3c-4.7,1.4-9.7-1.2-11.2-5.9c-1-3.2-0.1-6.7,2.4-9.1
			c3.3-3.5,8.7-3.6,12.2-0.4C333.7,495.8,334.2,496.5,334.6,497.3z"/>
		<path id="Path_402_2_" class="st10" d="M623.7,492.9c-2.4,7.1,4.3,13.8,10.2,10.2c2.5-2.1,4-5.1,4-8.3
			C638,486.7,626.1,485,623.7,492.9z M636.3,495.7c1,4.8-6,8.1-9.5,4.5c-3.6-3.6-0.2-10.5,4.5-9.5
			C633.8,491.3,635.8,493.3,636.3,495.7L636.3,495.7z"/>
		<path id="Path_403_2_" class="st10" d="M558.7,491.8c1.5,0.7,3.1,0.6,4.5-0.2c1-0.7-0.5-1.4-3.1-1.2
			C557.5,490.4,556.8,491.1,558.7,491.8z"/>
		<path id="Path_404_2_" class="st10" d="M673.9,492.6c-1,1.7-0.7,3.9,0.7,5.2c3.3,3.3,10.7,0.5,9.5-3.6
			C682.7,490.5,676,489.3,673.9,492.6z"/>
		<path id="Path_405_2_" class="st10" d="M562.6,503c-7.6,7.6,1.9,19,11.4,13.8c8.1-4.3,4.5-16.6-4.8-16.6
			C566.8,500.3,564.4,501.3,562.6,503z"/>
		<path id="Path_406_2_" class="st10" d="M645.8,504.1c-5.8,4.1-7.2,12.2-3,18c1.1,1.5,2.4,2.7,4,3.6c5.7,3.6,6.9,3.6,12.6,0.5
			c8.6-4.8,9.7-16.9,2.1-22.1C654.9,499.3,652.5,499.3,645.8,504.1z"/>
		<path id="Path_407_2_" class="st10" d="M281,506.3c-1.9,5,3.1,10,6.7,6.4c3.1-3.1,1.2-10.2-2.6-10.2
			C283.6,502.5,281.9,504.2,281,506.3z"/>
		<path id="Path_408_2_" class="st10" d="M695.9,507.5c-6.2,6.2-6,13.1,0.2,19.3c8.1,8.1,23.5,1.4,23.5-10.2
			c0-5.7-8.3-13.8-14.3-13.8C701.8,503.2,698.4,504.9,695.9,507.5z M712.5,511c6.2,7.6-3.1,19.3-11.2,14c-8.3-5.2-5.5-17.6,4-17.6
			C708.1,507.7,710.7,509,712.5,511L712.5,511z"/>
		<path id="Path_409_2_" class="st10" d="M147.9,507.6c-0.9,1.1-1,2.6-0.2,3.8c0.7,1,1.4,0.2,1.4-1.2c0-3.6,8.8-3.8,10.9-0.2
			c0.4,2.4-0.4,4.8-2.1,6.4c-3.1,3.1-4.5,3.1-7.4,0.5c-2.1-1.7-3.8-1.9-3.8-0.5c0,6.4,12.8,5.5,15.2-1.2
			C164.8,507.9,151.9,500.9,147.9,507.6z"/>
		<path id="Path_410_2_" class="st10" d="M172.1,511.6c-3.6,3.3-1.4,12.6,3.6,15.2c4.3,2.4,5.7,1.9,9.5-2.6c3.1-4,3.6-6.2,1.9-9.7
			C184.7,510.2,175.2,508.3,172.1,511.6z"/>
		<path id="Path_411_2_" class="st10" d="M591.5,515.1c-7.1,5.5-7.8,10.7-2.4,18.3c6.9,10,24.7,4.3,24.7-8.1c0-6-2.4-9-8.8-12.6
			C598.4,509.4,598.9,509.1,591.5,515.1z M605.3,517.9c8.6,6.2-1,20-9.7,14.5c-5.7-3.6-6.4-9-1.9-13.8
			C598.4,514.1,599.8,513.9,605.3,517.9L605.3,517.9z"/>
		<path id="Path_412_2_" class="st10" d="M625.5,518.5c-1.7,4.3,4,9,7.4,5.7c2.6-2.6,0.2-9.5-3.3-9.5
			C628.1,514.7,626.5,516.4,625.5,518.5z"/>
		<path id="Path_413_2_" class="st10" d="M278.2,533.4c1.2,6.2,9,6.9,9,1c0-3.6-1.4-5-5-5C278.9,529.4,277.8,530.5,278.2,533.4z"/>
		<path id="Path_414_2_" class="st10" d="M297.9,533.3c-20.7,11.4-11.9,44.2,11.7,44.2c8.4-0.4,16.1-4.9,20.5-12.1
			c5.5-10.7,4-18.6-4.8-27.3C316.5,529.2,307.9,527.8,297.9,533.3z"/>
		<path id="Path_415_2_" class="st10" d="M141.9,542.9c0,8.3,0.7,9.7,6.7,11.2c19.5,4.7,33.3,23.8,30.2,41.9
			c-2.1,12.8-15.2,27.3-27.6,30.7c-8.8,2.4-9.3,3.1-9.3,12.1v9.5l9-1.7c28.3-5.2,46.6-27.1,46.6-55.7s-18.3-50.7-46.8-55.9l-8.8-1.7
			V542.9z"/>
		<path id="Path_416_2_" class="st10" d="M749,533.4c-3.6,3.6-1.4,12.8,3.3,15.5c4.3,2.1,6,1.7,10.2-2.4c3.8-4,4.3-6,2.4-9.3
			C762.4,532.9,751.9,530.5,749,533.4z"/>
		<path id="Path_417_2_" class="st10" d="M680.5,539.9c-5.2,3.1-11.2,14.5-11.2,22.1c0,3.3,3.1,9.5,6.9,13.8
			c5.7,6.4,8.6,7.8,16.9,7.8c8.3,0,11.2-1.4,17.1-8.1c6.2-6.9,7.1-9.3,6-17.8c-1.7-12.6-10.5-20.5-22.6-20.5
			C689.1,537.2,684.6,538.1,680.5,539.9z"/>
		<path id="Path_418_2_" class="st10" d="M365.3,544.5c-5.2,3.1-5.7,17.1-0.7,21.2c5.2,4.3,15.7,3.6,19.5-1.4
			c4.5-6,3.8-12.1-1.7-17.6C378.2,541.5,370.7,540.6,365.3,544.5z"/>
		<path id="Path_419_2_" class="st10" d="M552,545.8c-11.2,6.4-15.1,20.6-8.7,31.8c1.1,2,2.5,3.7,4.2,5.3c9.5,9.5,21.2,9.5,31.6,0
			c6.7-6,7.8-8.6,7.6-16.9c-0.2-13-10.9-23.3-23.8-23.1C559.1,543,555.3,544,552,545.8z"/>
		<path id="Path_420_2_" class="st10" d="M646.6,557.7c-3.3,3.6-1.4,8.1,3.3,8.1c3.3,0,4.5-1.2,4-4
			C653.2,557.5,649.2,555.3,646.6,557.7z"/>
		<path id="Path_421_2_" class="st10" d="M218,562.5c-4,2.1-4.8,3.3-2.1,3.3c2.7-0.3,5.1-1.6,6.9-3.6C226.4,558,225.9,558,218,562.5
			z"/>
		<path id="Path_422_2_" class="st10" d="M243.5,565.8c-5.4,5.4-5.4,14.1,0,19.4c0.6,0.6,1.4,1.2,2.1,1.7c5.7,3.6,6.9,3.6,12.6,0.5
			c3.8-2.1,6.4-5.9,6.9-10.2C266.8,564.1,251.8,556.5,243.5,565.8z M260.9,570.7c3.1,6,1,11.4-5,13.3c-6.2,1.9-11.7-2.6-11.7-9.5
			C244.2,565.8,256.6,563.1,260.9,570.7L260.9,570.7z"/>
		<path id="Path_423_2_" class="st10" d="M778.1,575.8c-6.7,6-8.1,8.8-8.1,17.1c0,8.3,1.4,11.2,7.8,16.9c8.6,7.6,16.4,8.6,26.6,3.3
			c20.2-10.5,14.3-40.2-8.6-43.3C787.3,568.7,785,569.7,778.1,575.8z"/>
		<path id="Path_424_2_" class="st10" d="M214.7,574.5c-0.7,2.1,0.3,4.4,2.4,5.2c4.5,1.7,9.3-2.6,7.1-6.2c-1.6-2.5-4.9-3.2-7.4-1.7
			C215.9,572.5,215.1,573.4,214.7,574.5z"/>
		<path id="Path_425_2_" class="st10" d="M731.9,577.4c-6.9,6.7-7.4,12.8-2.4,22.4c7.8,15.5,31.4,11.9,35.9-5.5
			c1.7-6.7-4.3-19.3-9.7-21.4C747.6,569.6,738.3,571.4,731.9,577.4z M754.5,581c9,9,3.6,21.4-9.5,21.4c-11.9,0-16.4-15.7-6.7-22.4
			C745.5,575,748.8,575.3,754.5,581L754.5,581z"/>
		<path id="Path_426_2_" class="st10" d="M515.8,574.8c-3.3,3.6-1.4,8.1,3.3,8.1c3.3,0,4.5-1.2,4-4
			C522.5,574.6,518.4,572.4,515.8,574.8z"/>
		<path id="Path_427_2_" class="st10" d="M614.8,581.1c-13.2,6-24.3,16-31.6,28.5c-8.1,15-7.4,37.6,1.4,52.6
			c8.3,14.1,22.1,24.2,38.1,27.8c35.7,7.8,70.6-23.1,67.3-59.9c-0.6-7-2.3-13.9-5-20.5c-6.2-10.8-15.2-19.8-25.9-26.2
			C649.3,578.5,625,577.3,614.8,581.1z M649.5,601.8c16.4,7.4,25.4,27.1,19.8,43.8c-2.7,6.4-6.9,12.1-12.1,16.6
			c-8.1,7.6-10.7,8.6-22.1,8.6c-22.1,0-37.6-14.5-37.6-35.2c0-15.7,7.4-28.1,20.5-34C630.3,595.9,636.9,596.1,649.5,601.8
			L649.5,601.8z"/>
		<path id="Path_428_2_" class="st10" d="M272.5,598.1c-9.3,8.6-9.8,23.1-1.2,32.4c1.9,2.1,4.2,3.7,6.7,5c11.3,6,25.3,1.7,31.3-9.6
			c1.9-3.5,2.8-7.4,2.7-11.4c0-7.8-1.4-10.7-7.8-16.4C293.6,588.6,282,588.6,272.5,598.1z"/>
		<path id="Path_429_2_" class="st10" d="M492.8,596.2c-22.4,14.3-22.4,43.8,0,57.3c26.6,16.2,59.9-15,45.4-42.6
			C529.2,593.6,508,586.9,492.8,596.2z M523.5,610.5c4.2,3.6,6.7,8.9,6.9,14.5c0,10.5-11.2,21.4-22.1,21.4
			c-18.8,0-28.1-23.1-14.5-36.6C502.5,601,514.2,601.4,523.5,610.5L523.5,610.5z"/>
		<path id="Path_430_2_" class="st10" d="M401,605.3c-7.6,7.6-8.3,11.2-4.3,20c4,9.1,14.7,13.2,23.8,9.2c2.1-0.9,4.1-2.3,5.7-4
			c9.5-9.3,7.6-22.8-3.8-28.5C412.9,597,408.8,597.4,401,605.3z"/>
		<path id="Path_431_2_" class="st10" d="M329.8,604.9c-5.4,5.4-5.4,14.1,0,19.4c0.6,0.6,1.4,1.2,2.1,1.7c5.7,3.6,6.9,3.6,12.6,0.5
			c3.8-2.1,6.4-5.9,6.9-10.2C353.1,603.3,338.2,595.6,329.8,604.9z M346.7,609.2c5,9-5,19-12.6,12.8c-4.3-3.6-4.8-13.3-0.5-15
			C339.3,604.7,344.6,605.4,346.7,609.2L346.7,609.2z"/>
		<path id="Path_432_2_" class="st10" d="M216.1,606.5c2.1,2.1,5,3.6,6.4,3.1c1.4-0.5-0.5-2.4-4-4
			C212.6,602.9,212.6,602.9,216.1,606.5z"/>
		<path id="Path_433_2_" class="st10" d="M237.8,606.6c-1.9,5,3.1,10,6.7,6.4c3.1-3.1,1.2-10.2-2.6-10.2
			C240.4,602.8,238.7,604.4,237.8,606.6z"/>
		<path id="Path_434_2_" class="st10" d="M450.6,611.6c1.5,0.7,3.1,0.6,4.5-0.2c1-0.7-0.5-1.4-3.1-1.2
			C449.4,610.2,448.7,610.9,450.6,611.6z"/>
		<path id="Path_435_2_" class="st10" d="M558.6,613.9c-3.3,3.6-1.4,8.1,3.3,8.1c3.3,0,4.5-1.2,4-4
			C565.2,613.7,561.2,611.5,558.6,613.9z"/>
		<path id="Path_436_2_" class="st10" d="M716.7,616c-1.8,2.4-2.3,5.5-1.4,8.3c1.4,4.7,6.4,7.4,11.1,6c4.3-1.3,7-5.6,6.3-10
			c-0.5-5-2.1-6.7-6.9-7.1C722.5,612.7,719.2,613.8,716.7,616z"/>
		<path id="Path_437_2_" class="st10" d="M830.9,618.7c0,2.6,0.7,3.3,1.4,1.4c0.7-1.5,0.6-3.1-0.2-4.5
			C831.3,614.6,830.6,616.1,830.9,618.7z"/>
		<path id="Path_438_2_" class="st10" d="M206.1,621.9c0,3.6,1.4,5,5,5c3.3,0,4.5-1.2,4-4C214,616.7,206.1,616,206.1,621.9z"/>
		<path id="Path_439_2_" class="st10" d="M793.3,628.8c-3.6,5.7-3.6,6.9-0.5,12.6c2.6,4.8,5.2,6.2,11.7,6.2s9-1.4,11.7-6.2
			c3.1-5.7,3.1-6.9-0.5-12.6c-2.3-4-6.6-6.4-11.2-6.2C799.9,622.4,795.6,624.8,793.3,628.8z"/>
		<path id="Path_440_2_" class="st10" d="M222.6,632.3c-8.3,8.6-8.8,16.6-1.2,25.4c11.2,13.3,34.7,4.8,34.7-12.4
			c0-8.1-12.1-20-20.2-20C232.1,625.4,226.8,628.2,222.6,632.3z M244.7,636.5c8.1,7.4,2.6,22.1-8.3,22.1c-6.4,0-13.6-6.7-13.6-12.6
			c-0.1-7.2,5.7-13,12.8-13.1C239,632.9,242.2,634.2,244.7,636.5z"/>
		<path id="Path_441_2_" class="st10" d="M748.1,629.1c-9.3,4-12.6,10-12.6,22.1c0,7.8,1.4,10.7,7.4,15.7c4.2,3.8,9.6,6,15.2,6.2
			c5.6-0.2,11.1-2.4,15.2-6.2c6-5,7.4-7.8,7.4-15.7c0-12.4-3.3-18.3-13.1-22.4S757.6,624.9,748.1,629.1z"/>
		<path id="Path_442_2_" class="st10" d="M552.6,635.9c-1.9,4.8,1.9,8.6,6.2,6c3.6-2.4,1.9-9.7-2.1-9.7
			C555.2,632.1,553.5,633.7,552.6,635.9z"/>
		<path id="Path_443_2_" class="st10" d="M365.2,637.3c-8.3,4.8-3.6,16.4,6.9,16.4c7.4,0,10.5-11.2,4.3-15.9
			C371.1,634.2,370.4,634,365.2,637.3z"/>
		<path id="Path_444_2_" class="st10" d="M449.3,637.6c-3.6,3.7-3.6,9.6,0,13.3c3.3,3.3,10.5,3.8,12.4,0.7c0.7-1-1.4-1.4-4.5-0.7
			c-7.1,1.2-10.5-5-6.2-11.7C454,634,453.3,633.5,449.3,637.6z"/>
		<path id="Path_445_2_" class="st10" d="M461.4,638.5c1.7,2.9,3.6,4.8,4.3,4c0.7-0.5-0.7-2.9-3.1-5.2
			C458.5,633.5,458.3,633.5,461.4,638.5z"/>
		<path id="Path_446_2_" class="st10" d="M187.1,652.9c-6.4,7.6,5.5,19.5,13.1,13.1c4.8-3.8,4.5-13.3-0.2-15.2
			C194,648.4,190.2,649.1,187.1,652.9z"/>
		<path id="Path_447_2_" class="st10" d="M281.5,651.5c-1.2,2.4-0.3,5.4,2.2,6.6c0.8,0.4,1.7,0.6,2.6,0.5c3.3,0,6.4-5.7,4.3-8.1
			C287.7,648.5,283.8,648.9,281.5,651.5z"/>
		<path id="Path_448_2_" class="st10" d="M710.3,654.2c-2.1,3.6,2.6,7.8,7.1,6.2c2.1-0.8,3.1-3.1,2.4-5.2c-1.1-2.8-4.1-4.1-6.9-3.1
			C711.8,652.5,710.9,653.2,710.3,654.2z"/>
		<path id="Path_449_2_" class="st10" d="M300.4,662.7c-6.2,7.6,3.1,19.3,11.4,14c4.5-2.5,6.2-8.2,3.7-12.8
			c-0.2-0.4-0.5-0.9-0.8-1.3c-3.2-3.9-9-4.5-12.9-1.3C301.2,661.8,300.8,662.2,300.4,662.7z"/>
		<path id="Path_450_2_" class="st10" d="M416.3,665.6c-11.3,5.7-18.6,17.1-19,29.7c0,25.4,29,41.4,50.2,27.1
			c22.8-15.2,20-47.3-5-57.3C430.3,660.3,426.5,660.3,416.3,665.6z M445.1,680.1c8.8,8.8,9,18.8,0.7,28.5c-7.1,8.9-20,10.3-28.9,3.2
			c-5-4-7.9-10.1-7.7-16.6C409.4,674.8,430.8,665.8,445.1,680.1L445.1,680.1z"/>
		<path id="Path_451_2_" class="st10" d="M211.6,665.2c-1.7,4.3,4,9,7.4,5.7c2.6-2.6,0.2-9.5-3.3-9.5
			C214.2,661.4,212.6,663.1,211.6,665.2z"/>
		<path id="Path_452_2_" class="st10" d="M149.5,669.8c-6.7,4.5-6.9,13.6-0.5,20c4.4,5.3,12.2,6,17.4,1.6c0.6-0.5,1.1-1,1.6-1.6
			c5.3-4.4,6-12.2,1.6-17.4c-0.5-0.6-1-1.1-1.6-1.6C162.4,665.1,156.7,664.9,149.5,669.8z M165.7,674.4c3.2,4.1,2.5,10-1.6,13.2
			c-0.4,0.3-0.8,0.6-1.3,0.8c-8.3,5.2-17.6-6.4-11.4-14c3.2-3.9,9-4.5,12.9-1.3C164.9,673.4,165.3,673.9,165.7,674.4z"/>
		<path id="Path_453_2_" class="st10" d="M331.9,674.4c-7.6,7.4-8.1,20.5-1.2,27.3s21.4,6.4,28.1-0.7c11.2-11.9,2.4-32.6-13.8-32.6
			C340,668.6,335.3,670.7,331.9,674.4z M354,678.4c4.3,4.3,3.3,15-1.9,19.8c-10.7,9.7-26.2-4.3-18.1-16.6
			C338.3,675.1,349,673.4,354,678.4L354,678.4z"/>
		<path id="Path_454_2_" class="st10" d="M809.5,672.9c-3.3,6-1.2,11.4,4.8,13.3c6.4,2.1,12.1-3.1,11.2-10.5
			c-0.6-4.7-4.9-7.9-9.6-7.3C813.1,668.9,810.7,670.5,809.5,672.9z"/>
		<path id="Path_455_2_" class="st10" d="M482,675.3c-1.9,1-2.9,4.5-2.4,7.6c1,6.9,10.7,8.1,14.5,1.7
			C498.6,677.5,489.6,670.3,482,675.3z M492.2,681.5c0.1,2.9-2.2,5.4-5.2,5.5c0,0,0,0-0.1,0c-4,0.7-5.5-0.5-5.5-3.8
			c-0.1-2.2,0.5-4.3,1.7-6.2C486.3,673.9,492.2,676.7,492.2,681.5z"/>
		<path id="Path_456_2_" class="st10" d="M713.1,679.4c-4.8,4.8-5,16.2-0.2,20c5.2,4.3,15.7,3.6,19.5-1.4
			C742.1,684.6,724.8,667.7,713.1,679.4z"/>
		<path id="Path_457_2_" class="st10" d="M562.4,682c0.3,2.2,2.1,4,4.3,4.3c2.2-0.3,4-2.1,4.3-4.3c0.5-2.9-0.7-4-4.3-4
			C563.1,677.9,561.9,679.1,562.4,682z"/>
		<path id="Path_458_2_" class="st10" d="M232.7,683.2c-10.6,3.5-19.8,10.2-26.4,19.2c-7.6,9.4-15.4,29.2-15.4,38.8
			c0,5.1,0.6,5.3,10.2,5.3c9.7,0,10.2-0.2,10.2-5.3c0-1.1,0.5-4.2,0.5-4.2s6.1-16.7,11-21.6c13.1-14.3,35.3-15.2,49.5-2.2
			c0.7,0.6,1.3,1.3,2,2c5.2,5.5,11.2,19.6,11.3,26.4c0,4.5,0.9,4.9,10.4,4.9h10.6l-1.3-8.9c-4.3-31.1-26.6-54.3-53.5-56.3
			C245.5,680.8,239,681.5,232.7,683.2z"/>
		<path id="Path_459_2_" class="st10" d="M525.6,683.2c-5.7,2.6-10.5,11.4-10.5,18.6c0.9,4.1,2.8,7.9,5.7,10.9
			c11.7,13.8,32.6,6.2,33.1-12.1C554.3,685.5,539.4,676.3,525.6,683.2z M544.8,692.2c9.7,10.9-6.9,27.6-17.8,17.8
			c-5.4-4.6-6.1-12.7-1.6-18.1c0.2-0.2,0.4-0.5,0.6-0.7c5.1-4.9,13.2-4.8,18.2,0.3C544.4,691.7,544.6,692,544.8,692.2L544.8,692.2z"
			/>
		<path id="Path_460_2_" class="st10" d="M743.8,690.1c-1,1.4-1.2,2.9-0.5,3.6c0.5,0.7,1.7-0.5,2.4-2.6
			C747.4,687,746,686.3,743.8,690.1z"/>
		<path id="Path_461_2_" class="st10" d="M759.5,696c0,2.6,0.7,3.3,1.4,1.4c0.7-1.5,0.6-3.1-0.2-4.5C760,692,759.3,693.4,759.5,696z
			"/>
		<path id="Path_462_2_" class="st10" d="M772.8,697.7c-16,10.2-25.6,27.9-25.4,46.8v9.5h7.5c7.2,0,7.5-0.5,7.5-7.1
			c0.3-10,4.2-19.6,11.1-26.9c10.6-11.2,25.4-11.2,36-0.2l5.6,6.2v-13.1c0-11.7-0.4-13.1-5.1-15.9c-5.3-2.2-10.9-3.5-16.6-4
			C784.3,692.2,780.5,692.9,772.8,697.7z"/>
		<path id="Path_463_2_" class="st10" d="M586.6,698.6c-2.9,2.9-1.7,11.9,1.9,15c7.6,6.4,19.5-5.5,13.1-13.1
			C598.5,696.9,589.4,695.8,586.6,698.6z"/>
		<path id="Path_464_2_" class="st10" d="M646.3,702.4c-6.3,7-6.8,17.3-1.4,25c2.6,3.8,6,5.2,13.1,5.2c11.9,0,18.8-6.4,18.8-17.6
			C676.7,699.3,656.7,691.2,646.3,702.4z"/>
		<path id="Path_466_2_" class="st10" d="M479.5,715.3c-14,18.1,11.2,39.7,27.3,23.3c7.1-7.1,7.6-15.2,1-23.5
			c-6.5-7.8-18-8.8-25.8-2.3C481.1,713.5,480.3,714.3,479.5,715.3z"/>
		<path id="Path_467_2_" class="st10" d="M358.9,716.5c-4.8,4.8-3.6,18.1,1.7,20.9c10.2,5.5,21.6-0.5,21.6-11.2
			C382.2,716.2,366,709.3,358.9,716.5z"/>
		<path id="Path_468_2_" class="st10" d="M724.8,716c-0.7,1.4,0.2,1.7,2.1,1c4.3-1.7,5-3.3,1.7-3.3C727,713.7,725.5,714.6,724.8,716
			z"/>
		<path id="Path_469_2_" class="st10" d="M733.1,729.3c-4,2.1-4.8,3.3-2.1,3.3c2.7-0.3,5.1-1.6,6.9-3.6
			C741.4,724.8,741,724.8,733.1,729.3z"/>
		<path id="Path_470_2_" class="st10" d="M578.5,730.5c-10.6,2.1-20.3,7.2-28.1,14.7c-8.8,7.8-6.7,9.5,10.7,7.6
			c8.8-1,21.9-1.7,29-1.7c7.1,0,20.2,0.7,29.3,1.7c18.3,1.9,19.8,0.2,8.3-9.7C614.1,731.6,595.9,726.9,578.5,730.5z"/>
		<path id="Path_471_2_" class="st10" d="M452.5,737.4c-1.9,3.3,0.7,7.1,5,7.1c1.9,0,3.3-2.1,3.3-4.8c0.2-2.4-1.5-4.6-3.9-4.8
			C455,734.8,453.3,735.7,452.5,737.4z"/>
		<path id="Path_472_2_" class="st10" d="M689.2,740.5c-4.8,5-7.1,13.6-3.8,13.6c2.5-1.6,4.6-3.7,6.2-6.2c6.2-7.6,18.6-7.4,22.1,0.7
			c1.2,3.1,3.6,5.5,5.2,5.5c5,0,3.6-6.9-2.9-13.1c-6.9-7.5-18.6-8.1-26.1-1.2C689.7,740,689.5,740.2,689.2,740.5z"/>
		<path id="Path_473_2_" class="st10" d="M336.8,739.8c-1,1.7-0.7,3.9,0.7,5.2c3.3,3.3,10.7,0.5,9.5-3.6
			C345.6,737.6,339,736.4,336.8,739.8z"/>
		<path id="Path_474_2_" class="st10" d="M414.6,744c-3.9,1-7.5,2.8-10.7,5.2l-6,4.8h42.8l-6-4.5C429.2,744.8,421.8,742.8,414.6,744
			z"/>
	</g>
	<ellipse id="Ellipse_150_1_" class="st9" cx="805.7" cy="3818.7" rx="14.3" ry="16.7"/>
	<circle id="Ellipse_151_1_" class="st9" cx="805.7" cy="3876.1" r="14.3"/>
	<ellipse id="Ellipse_152_1_" class="st9" cx="805.7" cy="3933.5" rx="14.3" ry="16.7"/>
</g>
</svg>
