<?xml version="1.0" encoding="utf-8"?>
<!-- Generator: Adobe Illustrator 24.1.2, SVG Export Plug-In . SVG Version: 6.00 Build 0)  -->
<svg version="1.1" id="Layer_1" xmlns="http://www.w3.org/2000/svg" xmlns:xlink="http://www.w3.org/1999/xlink" x="0px" y="0px"
	 viewBox="0 0 1080 1080" style="enable-background:new 0 0 1080 1080;" xml:space="preserve">
<style type="text/css">
	.Drop_x0020_Shadow{fill:none;}
	.Outer_x0020_Glow_x0020_5_x0020_pt{fill:none;}
	.Blue_x0020_Neon{fill:none;stroke:#8AACDA;stroke-width:7;stroke-linecap:round;stroke-linejoin:round;}
	.Chrome_x0020_Highlight{fill:url(#SVGID_1_);stroke:#FFFFFF;stroke-width:0.3629;stroke-miterlimit:1;}
	.Jive_GS{fill:#FFDD00;}
	.Alyssa_GS{fill:#A6D0E4;}
	.st0{fill:#F0CD95;}
	.st1{fill:#3B0215;}
	.st2{fill:#97002F;}
	.st3{fill:#5E001E;}
	.st4{fill:none;stroke:#5E001E;stroke-linecap:round;stroke-miterlimit:10;}
	.st5{fill:#FFFFFF;}
	.st6{fill:none;stroke:#3B0215;stroke-linecap:round;stroke-miterlimit:10;}
	.st7{fill:#E3E3E3;}
	.st8{fill:#E4E4E4;}
	.st9{fill:#FCD87F;}
	.st10{fill:#6C0022;}
	.st11{fill:none;stroke:#97002F;stroke-width:2.02;stroke-linecap:round;stroke-miterlimit:10;}
	.st12{fill:#8C002C;}
	.st13{opacity:0.2;fill:#5E001E;enable-background:new    ;}
	.st14{fill:none;stroke:#6C0022;}
</style>
<linearGradient id="SVGID_1_" gradientUnits="userSpaceOnUse" x1="-1100" y1="0" x2="-1100" y2="-1">
	<stop  offset="0" style="stop-color:#656565"/>
	<stop  offset="0.618" style="stop-color:#1B1B1B"/>
	<stop  offset="0.6292" style="stop-color:#545454"/>
	<stop  offset="0.9831" style="stop-color:#3E3E3E"/>
</linearGradient>
<g id="Group_314" transform="translate(-54 -3250.074)">
	<g id="Rectangle_35_1_" transform="translate(54 3250.074)">
		<path class="st3" d="M287.9,307.1h504c40.9,0,74,33.2,74,74V725c0,40.9-33.2,74-74,74h-504c-40.9,0-74-33.2-74-74V381.2
			C213.9,340.3,247,307.1,287.9,307.1z"/>
		<path class="st14" d="M287.9,308.4h504c40.2,0,72.8,32.6,72.8,72.8V725c0,40.2-32.6,72.8-72.8,72.8h-504
			c-40.2,0-72.8-32.6-72.8-72.8V381.2C215.1,341,247.7,308.4,287.9,308.4z"/>
	</g>
	<path id="Path_516" class="st10" d="M333.3,3557.2h521.3c36.1,0,65.4,29.3,65.4,65.4v90.3c0,36.1-29.3,65.4-65.4,65.4H333.3
		c-36.1,0-65.4-29.3-65.4-65.4v-90.3C267.9,3586.5,297.2,3557.2,333.3,3557.2z"/>
	<g id="تنزيل-_5_" transform="translate(54 3277.469)">
		<path id="Path_348" class="st10" d="M222.8,351.7c0,4.9,19.3,23.1,31,28.7c10.5,5.2,15.7,6.3,29.8,6.3c16.8,0,17.1,0,11.2,3.6
			c-16.2,10.1-24.9,26.3-24.9,46.2c0.2,30.3,22.4,52.3,52.7,52.3c47.8,0,70.9-55.9,37-90c-12.1-12.1-25.6-16.6-44-14.8l-12.3,1.3
			l11.2-5.6c10.3-5.2,29.4-23.3,29.4-28.1c0-1.1-6.1-2-13.5-2c-10.3,0-15,1.1-21.5,5.6c-15.2,10.3-35.2,10.4-50.5,0.2
			c-7-4.7-11.4-5.8-22.2-5.8C228.9,349.7,222.8,350.6,222.8,351.7z M339.8,406.4c21.8,14.6,23.8,38.2,4.5,56.3
			c-13.2,12.8-38.8,9.6-50-6.1c-6.7-9.4-7.9-27.2-2.2-37.5C300.9,402.6,324.7,396.3,339.8,406.4z"/>
		<path id="Path_349" class="st10" d="M429.5,355.7c2,9.6,13,18.6,22.4,18.6c9.9,0,21.1-10.1,21.1-18.9v-5.8h-44.9L429.5,355.7z"/>
		<path id="Path_350" class="st10" d="M548.2,352.1c0,10.1,24,33.4,39.7,38.8c13.5,4.5,35.2,4.5,48.5,0c12.6-4.3,29.8-19.3,37-32.1
			l5.2-9.2h-12.8c-11.7,0-13.5,0.7-22.2,8.8c-9,8.3-21.3,13.7-31.4,13.7s-22.4-5.4-31.4-13.7c-8.5-7.9-10.8-8.8-21.1-8.8
			C552.7,349.7,548.2,350.6,548.2,352.1z"/>
		<path id="Path_351" class="st10" d="M723.4,351.2c1.4,0.6,3,0.6,4.3-0.2c0.9-0.7-0.4-1.3-2.9-1.1
			C722.3,349.9,721.6,350.6,723.4,351.2z"/>
		<path id="Path_352" class="st10" d="M795.1,356.8c1.6,8.1,8.5,16.4,17.5,21.1c16.6,8.8,38.4-2.5,43.1-22.2
			c1.3-5.4,0.9-6.1-4.3-6.1c-3.6,0-5.6,1.3-5.6,3.6c0,1.8-2.9,6.5-6.5,10.1c-11.2,11-27.2,8.3-33-6.1c-2.2-5.2-4.7-7.6-7.9-7.6
			C794.2,349.7,793.7,350.6,795.1,356.8z"/>
		<path id="Path_353" class="st10" d="M374.7,360.2c1.4,0.6,3,0.6,4.3-0.2c0.9-0.7-0.4-1.3-2.9-1.1
			C373.5,358.9,372.9,359.5,374.7,360.2z"/>
		<path id="Path_354" class="st10" d="M721.5,364.3c-7.1,6.6-7.4,17.7-0.8,24.8c3.5,3.7,8.3,5.7,13.4,5.5c4.8,0.3,9.6-1.3,13.2-4.5
			c3.2-3.6,4.8-8.4,4.5-13.2c0.3-9.7-7.2-17.8-16.9-18.1C729.8,358.5,724.9,360.6,721.5,364.3z M744.2,371
			c7.4,11.2-4.5,23.3-15.9,15.9c-6.1-4-7.6-14.1-2.9-18.9C730,363.4,740.1,364.9,744.2,371L744.2,371z"/>
		<path id="Path_355" class="st10" d="M690.1,364.5c-6.5,6.5-2.7,14.4,7,14.4c7,0,9.9-10.5,4-15C695.7,360,694.4,360.2,690.1,364.5z
			"/>
		<path id="Path_356" class="st10" d="M396.8,374.3c-6.2,7-5.9,17.6,0.7,24.2c6.7,6.4,17.4,6.2,23.8-0.5c3.1-3.2,4.8-7.6,4.7-12.1
			c0-9.6-6.7-16.2-16.8-16.2C404.6,369.7,400.2,371.3,396.8,374.3z"/>
		<path id="Path_357" class="st10" d="M469,378.8c-19.3,11.7-18.4,42.4,1.3,52.7c5.4,2.2,11.1,3.3,16.8,3.4c8.1,0,11.7-1.3,18.2-7
			c15.5-13.7,15.5-33.2-0.2-46.9c-6.3-5.4-9.9-6.7-18.4-6.7C480.5,374.3,474.4,375.9,469,378.8z M495.2,386.7
			c11.2,5.8,14.1,15.9,7.9,27.8c-9.4,18.6-37,11.2-37-9.9c0-6.7,1.3-10.5,5.2-13.9C479.9,382.7,485.8,381.8,495.2,386.7L495.2,386.7
			z"/>
		<path id="Path_358" class="st10" d="M536,382.2c-9.2,4.9-12.3,9.9-12.6,19.8c-0.2,23.1,31.6,30.1,41.5,9
			C573.7,392.7,553.7,372.8,536,382.2z"/>
		<path id="Path_359" class="st10" d="M373.5,386.9c-1.8,4.7,2.9,9.4,6.3,6.1c2.9-2.9,1.1-9.6-2.5-9.6
			C376,383.3,374.4,384.9,373.5,386.9z"/>
		<path id="Path_360" class="st10" d="M766.1,387.6c-19.1,9-30.3,26.9-30.3,48.9c-0.6,15,5.8,29.4,17.3,39
			c11.7,10.5,22.2,13.9,40.2,12.8c11.2-0.7,16.2-2.2,23.8-7.6c28.7-20.2,32.8-57.7,8.8-81.7C810.1,383.3,785.4,378.6,766.1,387.6z
			 M805.6,406.4c17.3,11.4,22.2,29.8,13,46.5c-9.6,16.8-31,22.7-47.9,13.1c-4.8-2.7-8.8-6.5-11.8-11.1c-10.8-16.4-4-41.3,13.2-49.8
			C782.8,399.8,795.5,400.3,805.6,406.4L805.6,406.4z"/>
		<path id="Path_361" class="st10" d="M843.6,387.1c2.4,1,4.6,2.3,6.7,3.8c2.9,2.2,2.9,2,0.2-1.6c-1.6-2.1-4.1-3.4-6.7-3.6
			C840.9,385.8,840.6,386,843.6,387.1z"/>
		<path id="Path_362" class="st10" d="M225.1,393.4c-5.8,7.2,2.9,18.2,10.8,13.2c5.2-3.4,5.8-8.5,1.6-13
			C232.9,389.2,228.7,389.2,225.1,393.4z"/>
		<path id="Path_363" class="st10" d="M256.7,395.4c-2.7,2.9-2.4,7.4,0.5,10.1c2.7,2.5,6.9,2.5,9.6,0c2-1.9,3-4.7,2.7-7.4
			C268.6,392.3,260.5,390.7,256.7,395.4z M267.3,399.7c0.9,4.5-5.6,7.6-9,4.3c-3.4-3.4-0.2-9.9,4.3-9
			C264.9,395.5,266.7,397.4,267.3,399.7L267.3,399.7z"/>
		<path id="Path_364" class="st10" d="M675.7,399.5c-5.6,3.1-7.9,6.3-7.9,11.2c0,5.2,7.9,13,13,13c11.9,0,16.6-15.3,7.2-22.9
			C682.2,396.1,681.7,396.1,675.7,399.5z"/>
		<path id="Path_365" class="st10" d="M704.7,402.9c-2.9,3.6-2.7,3.8,0.9,0.9c1.5-1,2.8-2.3,3.8-3.8
			C709.4,398.1,707.6,399.3,704.7,402.9z"/>
		<path id="Path_366" class="st10" d="M859.7,407.3c-5.2,2-9.9,14.4-8.5,21.5c1.3,6.7,9.2,17.3,13,17.3c0.9,0,1.8-9.2,1.8-20.2
			c0-11.2-0.7-20.2-1.6-20C862.8,406.2,861.2,406.6,859.7,407.3z"/>
		<path id="Path_367" class="st10" d="M390.2,411.6c-1.6,4,3.8,8.5,7,5.4c2.5-2.5,0.2-9-3.1-9C392.6,408,391.1,409.6,390.2,411.6z"
			/>
		<path id="Path_368" class="st10" d="M600.7,412.7c0,5.6,7.4,4.9,8.5-0.9c0.4-2.7-0.7-3.8-3.8-3.8C602,408,600.7,409.4,600.7,412.7
			z"/>
		<path id="Path_369" class="st10" d="M702.5,410c0.1,1.5,0.9,2.9,2.2,3.6c1.3,0.7,1.6-0.2,0.9-2C704.1,407.6,702.5,406.9,702.5,410
			z"/>
		<path id="Path_370" class="st10" d="M432.5,413.4c-2.8,3.1-2.5,7.8,0.6,10.6c1.4,1.3,3.2,1.9,5.1,1.9c3.8,0.4,7.1-2.4,7.5-6.1
			c0.2-1.7-0.3-3.5-1.4-4.9C441,410,435.8,409.4,432.5,413.4z M443,417.7c0.9,4.5-5.6,7.6-9,4.3c-3.4-3.4-0.2-9.9,4.3-9
			C440.6,413.5,442.4,415.3,443,417.7L443,417.7z"/>
		<path id="Path_371" class="st10" d="M622.8,416.8c-8.5,8.4-9,22-1.1,31c7.6,8.8,23.1,9,31.6,0.4c8.5-8.4,8.6-22,0.3-30.5
			c-0.4-0.4-0.8-0.7-1.2-1.1C642.7,407.8,631.7,408,622.8,416.8z"/>
		<path id="Path_372" class="st10" d="M235.4,419.6c-4.7,3.6-5.4,13.5-1.3,18.4c3.8,4.7,14.1,4.3,18.6-0.7
			C263.2,425.6,248,410.4,235.4,419.6z"/>
		<path id="Path_373" class="st10" d="M570.2,425.8c-2.4,2.4-4,5.6-4.5,9c0.5,3.4,2,6.6,4.5,9c2.4,2.4,5.6,4,9,4.5
			c3.4-0.5,6.6-2,9-4.5c2.4-2.4,4-5.6,4.5-9c-0.5-3.4-2-6.6-4.5-9c-2.4-2.4-5.6-4-9-4.5C575.7,421.7,572.6,423.3,570.2,425.8z
			 M585.9,429.1c5.8,7.2-2.9,18.2-10.5,13.2c-7.9-4.9-5.2-16.6,3.8-16.6C581.7,426,584.1,427.2,585.9,429.1L585.9,429.1z"/>
		<path id="Path_374" class="st10" d="M701.7,429.4c-1.9,1.8-2.9,4.4-2.5,7c0.6,1.4,1,2.8,1.3,4.3c0,0.4,1.1,0.9,2.5,0.9
			c1.8,0,1.6-1.1-0.2-3.6c-2.5-2.7-2.5-4,0.4-7c1.5-1.7,3.8-2.4,6.1-2c3.1,2,3.1,9.6,0.2,11c-1.3,0.7-1.1,0.9,0.4,0.7
			c4-0.9,4.9-7.6,1.8-11.4C708.2,424.9,706.2,424.9,701.7,429.4z"/>
		<path id="Path_375" class="st10" d="M521.9,434.5c-7.9,8.5-1.8,20.6,10.1,20.6c7,0,11.4-4.7,11.4-12.3c0-3.2-1.1-6.4-2.9-9
			C536.7,429.2,526.4,429.6,521.9,434.5z"/>
		<path id="Path_376" class="st10" d="M455,445.6c-4.5,4.3-4.5,8.5-0.4,12.1c5.2,4.3,13.7,1.8,14.4-4
			C470.5,443.8,461.7,438.6,455,445.6z"/>
		<path id="Path_377" class="st10" d="M262.1,450c3.8,2.9,4,4,1.3,8.1c-2.2,4-2.2,4.5,0.2,3.8c5.4-1.8,4.7-10.3-0.9-13
			C257.8,446.4,257.8,446.4,262.1,450z"/>
		<path id="Path_378" class="st10" d="M407.1,449c-7.2,2.7-10.5,8.1-10.8,16.6c-0.4,13.7,12.6,22.2,25.4,17.1
			c12.1-5.2,14.6-19.5,4.7-29.4C419.7,446.6,415.2,445.7,407.1,449z M422.2,457.3c4.7,4.2,5.2,11.4,1,16.1c-0.4,0.4-0.8,0.8-1.2,1.2
			c-5.8,5.4-13.9,3.8-18-3.4c-2.9-5.4-2.9-6.5,0.4-11.9C408.9,452.6,416.1,451.7,422.2,457.3L422.2,457.3z"/>
		<path id="Path_379" class="st10" d="M252.9,452.3c-1.8,4.5,0.4,10.1,4,10.1c2.2,0,2.2-0.7-0.2-2c-2-1.6-2.7-4.3-1.8-6.7
			C256.3,448.2,254.7,447.1,252.9,452.3z"/>
		<path id="Path_380" class="st10" d="M558.4,453c-2.1,3.8-0.6,8.6,3.2,10.7c1,0.6,2.2,0.9,3.3,0.9c4.5-0.4,7.8-4.3,7.4-8.7
			c-0.1-1.1-0.4-2.2-0.9-3.2c-2.1-3.6-6.7-4.7-10.3-2.6C560,450.8,559,451.8,558.4,453z M570,453.9c1.6,4.7-0.9,8.5-5.2,8.5
			c-2.1,0-4.1-1.1-5.2-2.9c-1.6-4.5,0.9-8.3,5.2-8.3C566.9,451.1,568.9,452.2,570,453.9L570,453.9z"/>
		<path id="Path_381" class="st10" d="M681.2,452.4c-15,6.5-22.4,27.4-15,41.7c6.3,11.9,17.5,18.6,30.1,17.5
			c18.9-1.8,30.5-15.9,28.3-34.8c-1.1-11.2-7.9-19.8-18.9-24.5C698,448.6,688.9,448.6,681.2,452.4z M708.2,466.1
			c13,12.1,4.5,34.8-13.2,34.8c-10.8,0-21.3-10.1-21.3-20.2c0.1-5.3,2.5-10.2,6.5-13.7C688.6,458.5,699.6,458.3,708.2,466.1
			L708.2,466.1z"/>
		<path id="Path_382" class="st10" d="M216.8,464.5c-1.6,0.7-2.9,4-2.9,7.6c0,6.3,0,6.3,6.7,2.9c19.5-9.6,39.1,16.6,23.8,31.9
			c-7.6,7.6-16.4,9.4-24.2,4.9c-6.3-3.6-6.3-3.6-6.3,2.7c0,7.4,3.1,9.2,16.4,9.2c12.4,0.7,23.6-7.1,27.4-18.9
			c4.9-13,2.5-24-7.9-33.9c-5.2-4.9-9-6.5-18.4-7C226.5,463.5,221.6,463.7,216.8,464.5z"/>
		<path id="Path_383" class="st10" d="M845.1,464.3c-2.2,2.2-1.8,9.2,0.7,10.8c1.3,0.7,1.6-0.2,0.9-2.2c-0.8-2.3-0.3-4.9,1.3-6.7
			C850.7,462.7,848,461.2,845.1,464.3z"/>
		<path id="Path_384" class="st10" d="M854.8,464.4c3.6,1.8,2.7,9.2-1.6,11.7c-2.2,1.3-2.9,2.5-1.6,2.5c6.7,0.2,10.1-13.5,3.6-14.8
			C853.7,463.5,853.4,463.7,854.8,464.4z"/>
		<path id="Path_385" class="st10" d="M581.2,466.7c-3.4,3.1-1.3,11.9,3.1,14.4c4,2,5.6,1.6,9.2-2c3.6-3.6,4-5.2,2-9.2
			C593.1,465.3,584.3,463.3,581.2,466.7z"/>
		<path id="Path_386" class="st10" d="M496.8,472c-36.1,12.4-55.3,51.6-42.9,87.7c1.1,3.1,2.4,6.1,3.8,9.1
			c7,14.4,17.7,24.5,34.3,32.1c10.5,4.7,14.4,5.4,30.5,4.5c20.9-1.1,32.3-6.1,45.3-19.1c19.7-20.3,25.4-50.4,14.6-76.5
			c-6.7-14.8-25.4-32.3-39.7-37.3C530,468.2,508,467.9,496.8,472z M531.3,493.7c24.9,6.7,40.2,39.1,29.4,61.7
			c-7.4,15.5-26.7,27.8-43.5,27.8c-6-0.9-11.9-2.8-17.3-5.6c-37.9-17.5-32.8-72,7.9-84.2C516.3,490.8,521.5,491.1,531.3,493.7z"/>
		<path id="Path_387" class="st10" d="M612.7,476c-5.8,6.5-6.7,13.5-3.1,20.4c5.6,11,18.4,12.8,27.2,3.8c6.7-6.7,7.2-14.4,0.9-22.2
			C632,470.8,618.1,469.7,612.7,476z"/>
		<path id="Path_388" class="st10" d="M444.5,478.1c1.1,5.8,8.5,6.5,8.5,0.9c0-3.4-1.3-4.7-4.7-4.7
			C445.2,474.2,444.1,475.4,444.5,478.1z"/>
		<path id="Path_389" class="st10" d="M268.8,483.6c-0.8,1-0.9,2.5-0.2,3.6c0.7,0.9,1.3,0.2,1.3-1.3c0-2,2-2.7,5.6-2
			c2.9,0.7,4.9,0.2,4.3-0.7C278.3,480.3,270.4,480.7,268.8,483.6z"/>
		<path id="Path_390" class="st10" d="M854.8,491c-27.4,20.4-36.8,57.7-21.8,87.3c5.6,11,18.6,24.7,28.3,30.1
			c4.5,2.2,4.7,2,4.7-11.9c0-10.5-0.9-15.3-3.6-17.5c-8.1-6.7-12.6-20.2-11.7-34.8c0.7-11.9,2-15.7,8.1-23.1
			c6.3-7.9,7.2-10.5,7.2-22.4c0-7.6-0.7-13.7-1.6-13.7C861,486.6,857.8,488.6,854.8,491z"/>
		<path id="Path_391" class="st10" d="M743.2,489.4c-1.6,4,3.8,8.5,7,5.4c2.5-2.5,0.2-9-3.1-9C745.7,485.8,744.1,487.4,743.2,489.4z
			"/>
		<path id="Path_392" class="st10" d="M279.2,491.9c-2,3.6-2.9,3.6-7.2,1.1c-4-2.5-4.5-2.5-3.8,0c1.8,4.9,10.3,4.7,13-0.2
			C284.1,487.2,282.3,486.5,279.2,491.9z"/>
		<path id="Path_393" class="st10" d="M386.7,491.9c-2.9,3.6-2.7,3.8,0.9,0.9c1.5-1,2.8-2.3,3.8-3.8
			C391.4,487.2,389.6,488.3,386.7,491.9z"/>
		<path id="Path_394" class="st10" d="M817.3,498.6c-1.6,4,3.8,8.5,7,5.4c2.5-2.5,0.2-9-3.1-9C819.8,495,818.2,496.6,817.3,498.6z"
			/>
		<path id="Path_395" class="st10" d="M284.1,507.1c-9.2,5.4-14.1,15-14.1,26.9c-0.4,11.6,6.2,22.2,16.8,26.9
			c11.2,5.4,14.1,5.6,25.8,0.9c30.3-12.1,20.6-59.2-12.3-59.2C294.6,502.8,289.1,504.3,284.1,507.1z M313.3,518.3
			c7,5.4,9.6,15.7,5.8,22.9c-8.5,16.8-28.7,17.5-37,1.6c-5-9.8-1-21.8,8.8-26.8c2.9-1.5,6.1-2.2,9.4-2.1
			C304.9,514,309.5,515.6,313.3,518.3z"/>
		<path id="Path_396" class="st10" d="M418.1,506.3c-4.3,8.1,3.1,15.7,11.9,12.3c8.8-3.1,5.4-16.6-4-16.6
			C422.7,502,419.8,503.6,418.1,506.3z"/>
		<path id="Path_397" class="st10" d="M744.8,505.4c-5.8,7.2,2.9,18.2,10.8,13.2c7.6-4.9,4.9-16.6-4-16.6
			C749,502.3,746.6,503.5,744.8,505.4z"/>
		<path id="Path_398" class="st10" d="M349.1,507.7c-5.8,7.2,2.9,18.2,10.8,13.2c7.6-4.9,4.9-16.6-4-16.6
			C353.3,504.6,350.9,505.8,349.1,507.7z"/>
		<path id="Path_399" class="st10" d="M779.8,511.6c-7.1,5.7-8.3,16-2.6,23.1c1.5,1.9,3.4,3.4,5.5,4.5c12.3,6.5,24.9-1.3,24.9-15.7
			c0-8.3-8.5-16.6-16.8-16.6C786.8,507.4,783,509,779.8,511.6z"/>
		<path id="Path_400" class="st10" d="M647.5,517.2c-2.2,6.1-1.6,9.6,2.9,12.1c2.4,1.2,5.2,1.5,7.9,0.9c4.6-2.3,6.4-7.9,4-12.4
			c-0.1-0.3-0.3-0.5-0.5-0.8C658.2,512.4,649.3,512.7,647.5,517.2z"/>
		<path id="Path_401" class="st10" d="M379.3,524.6c-5,5.1-5,13.3,0.1,18.4c0.5,0.5,1.1,1,1.7,1.4c6.5,4.3,13.5,2.5,18.2-4.5
			C407.6,527.1,389.4,513.4,379.3,524.6z M395.7,529.4c2.9,5.6,0.9,10.8-4.7,12.6c-4.4,1.4-9.2-1.1-10.5-5.6c-0.9-3-0.1-6.4,2.2-8.6
			c3.1-3.3,8.2-3.4,11.5-0.4C394.8,528,395.3,528.6,395.7,529.4z"/>
		<path id="Path_402" class="st10" d="M668.5,525.2c-2.2,6.7,4,13,9.6,9.6c2.3-1.9,3.7-4.8,3.8-7.9
			C682,519.3,670.8,517.8,668.5,525.2z M680.4,527.9c0.9,4.5-5.6,7.6-9,4.3c-3.4-3.4-0.2-9.9,4.3-9
			C678,523.7,679.9,525.5,680.4,527.9L680.4,527.9z"/>
		<path id="Path_403" class="st10" d="M607.2,524.2c1.4,0.6,3,0.6,4.3-0.2c0.9-0.7-0.4-1.3-2.9-1.1
			C606.1,522.9,605.4,523.5,607.2,524.2z"/>
		<path id="Path_404" class="st10" d="M715.8,524.9c-0.9,1.6-0.6,3.6,0.7,4.9c3.1,3.1,10.1,0.4,9-3.4
			C724.1,522.9,717.9,521.8,715.8,524.9z"/>
		<path id="Path_405" class="st10" d="M610.8,534.7c-7.2,7.2,1.8,18,10.8,13c7.6-4,4.3-15.7-4.5-15.7
			C614.8,532.2,612.5,533.1,610.8,534.7z"/>
		<path id="Path_406" class="st10" d="M689.4,535.8c-5.5,3.9-6.8,11.5-2.8,17c1,1.4,2.3,2.6,3.7,3.4c5.4,3.4,6.5,3.4,11.9,0.4
			c8.1-4.5,9.2-15.9,2-20.9C697.9,531.3,695.7,531.3,689.4,535.8z"/>
		<path id="Path_407" class="st10" d="M345.1,537.9c-1.8,4.7,2.9,9.4,6.3,6.1c2.9-2.9,1.1-9.6-2.5-9.6
			C347.5,534.3,346,535.8,345.1,537.9z"/>
		<path id="Path_408" class="st10" d="M736.6,539c-5.8,5.8-5.6,12.3,0.2,18.2c7.6,7.6,22.2,1.3,22.2-9.6c0-5.4-7.9-13-13.5-13
			C742.2,534.9,739,536.5,736.6,539z M752.3,542.3c5.8,7.2-2.9,18.2-10.5,13.2c-7.9-4.9-5.2-16.6,3.8-16.6
			C748.1,539.2,750.6,540.4,752.3,542.3L752.3,542.3z"/>
		<path id="Path_409" class="st10" d="M219.5,539.1c-0.8,1-0.9,2.5-0.2,3.6c0.7,0.9,1.3,0.2,1.3-1.1c0-3.4,8.3-3.6,10.3-0.2
			c0.4,2.2-0.4,4.5-2,6.1c-2.9,2.9-4.3,2.9-7,0.4c-2-1.6-3.6-1.8-3.6-0.4c0,6.1,12.1,5.2,14.4-1.1
			C235.4,539.3,223.3,532.8,219.5,539.1z"/>
		<path id="Path_410" class="st10" d="M242.4,542.8c-3.4,3.1-1.3,11.9,3.4,14.4c4,2.2,5.4,1.8,9-2.5c2.9-3.8,3.4-5.8,1.8-9.2
			C254.3,541.5,245.3,539.7,242.4,542.8z"/>
		<path id="Path_411" class="st10" d="M638.1,546.1c-6.7,5.2-7.4,10.1-2.2,17.3c6.5,9.4,23.3,4,23.3-7.6c0-5.6-2.2-8.5-8.3-11.9
			C644.6,540.7,645,540.5,638.1,546.1z M651.1,548.8c8.1,5.8-0.9,18.9-9.2,13.7c-5.4-3.4-6.1-8.5-1.8-13
			C644.6,545.2,645.9,545,651.1,548.8L651.1,548.8z"/>
		<path id="Path_412" class="st10" d="M670.2,549.4c-1.6,4,3.8,8.5,7,5.4c2.5-2.5,0.2-9-3.1-9C672.7,545.8,671.1,547.4,670.2,549.4z
			"/>
		<path id="Path_413" class="st10" d="M342.5,563.4c1.1,5.8,8.5,6.5,8.5,0.9c0-3.4-1.3-4.7-4.7-4.7
			C343.2,559.6,342,560.7,342.5,563.4z"/>
		<path id="Path_414" class="st10" d="M361.1,563.3c-19.5,10.8-11.2,41.7,11,41.7c7.9-0.4,15.2-4.7,19.3-11.4
			c5.2-10.1,3.8-17.5-4.5-25.8C378.6,559.5,370.5,558.2,361.1,563.3z"/>
		<path id="Path_415" class="st10" d="M213.9,572.3c0,7.9,0.7,9.2,6.3,10.5c18.4,4.5,31.4,22.4,28.5,39.5c-2,12.1-14.4,25.8-26,28.9
			c-8.3,2.2-8.8,2.9-8.8,11.4v9l8.5-1.6c26.7-4.9,44-25.6,44-52.5s-17.3-47.8-44.2-52.7l-8.3-1.6V572.3z"/>
		<path id="Path_416" class="st10" d="M786.8,563.4c-3.4,3.4-1.3,12.1,3.1,14.6c4,2,5.6,1.6,9.6-2.2c3.6-3.8,4-5.6,2.2-8.8
			C799.3,563,789.5,560.7,786.8,563.4z"/>
		<path id="Path_417" class="st10" d="M722.1,569.6c-4.9,2.9-10.5,13.7-10.5,20.9c0,3.1,2.9,9,6.5,13c5.4,6.1,8.1,7.4,15.9,7.4
			s10.5-1.3,16.2-7.6c5.8-6.5,6.7-8.8,5.6-16.8c-1.6-11.9-9.9-19.3-21.3-19.3C730.2,567,726,567.9,722.1,569.6z"/>
		<path id="Path_418" class="st10" d="M424.7,573.9c-4.9,2.9-5.4,16.2-0.7,20c4.9,4,14.8,3.4,18.4-1.3c4.3-5.6,3.6-11.4-1.6-16.6
			C436.8,571.1,429.8,570.2,424.7,573.9z"/>
		<path id="Path_419" class="st10" d="M600.8,575.1c-10.5,6-14.2,19.5-8.2,30c1.1,1.9,2.4,3.5,3.9,5c9,9,20,9,29.8,0
			c6.3-5.6,7.4-8.1,7.2-15.9c-0.2-12.2-10.3-22-22.5-21.8C607.5,572.5,604,573.4,600.8,575.1z"/>
		<path id="Path_420" class="st10" d="M690.1,586.4c-3.1,3.4-1.3,7.6,3.1,7.6c3.1,0,4.3-1.1,3.8-3.8
			C696.4,586.1,692.5,584.1,690.1,586.4z"/>
		<path id="Path_421" class="st10" d="M285.7,590.9c-3.8,2-4.5,3.1-2,3.1c2.5-0.3,4.8-1.5,6.5-3.4
			C293.5,586.6,293.1,586.6,285.7,590.9z"/>
		<path id="Path_422" class="st10" d="M309.7,594c-5.1,5.1-5.1,13.3,0,18.3c0.6,0.6,1.3,1.2,2,1.6c5.4,3.4,6.5,3.4,11.9,0.4
			c3.6-2,6-5.6,6.5-9.6C331.7,592.4,317.5,585.2,309.7,594z M326.1,598.7c2.9,5.6,0.9,10.8-4.7,12.6c-5.8,1.8-11-2.5-11-9
			C310.4,594,322,591.5,326.1,598.7L326.1,598.7z"/>
		<path id="Path_423" class="st10" d="M814.2,603.5c-6.3,5.6-7.6,8.3-7.6,16.2s1.3,10.5,7.4,15.9c8.1,7.2,15.5,8.1,25.1,3.1
			c19.1-9.9,13.5-37.9-8.1-40.9C822.9,596.7,820.7,597.6,814.2,603.5z"/>
		<path id="Path_424" class="st10" d="M282.5,602.2c-0.7,2,0.3,4.2,2.2,4.9c4.3,1.6,8.8-2.5,6.7-5.8c-1.5-2.4-4.6-3.1-7-1.6
			C283.6,600.3,282.9,601.2,282.5,602.2z"/>
		<path id="Path_425" class="st10" d="M770.6,604.9c-6.5,6.3-7,12.1-2.2,21.1c7.4,14.6,29.6,11.2,33.9-5.2c1.6-6.3-4-18.2-9.2-20.2
			C785.4,597.6,776.6,599.3,770.6,604.9z M791.9,608.3c8.5,8.5,3.4,20.2-9,20.2c-11.2,0-15.5-14.8-6.3-21.1
			C783.4,602.7,786.6,602.9,791.9,608.3L791.9,608.3z"/>
		<path id="Path_426" class="st10" d="M566.7,602.5c-3.1,3.4-1.3,7.6,3.1,7.6c3.1,0,4.3-1.1,3.8-3.8
			C572.9,602.3,569.1,600.3,566.7,602.5z"/>
		<path id="Path_427" class="st10" d="M660.1,608.5c-12.5,5.7-22.9,15.1-29.8,26.9c-7.6,14.1-7,35.5,1.3,49.6
			c7.9,13.3,20.8,22.8,35.9,26.3c33.7,7.4,66.6-21.8,63.5-56.6c-0.6-6.6-2.1-13.2-4.7-19.3c-5.9-10.2-14.3-18.7-24.5-24.7
			C692.6,606,669.7,604.9,660.1,608.5z M692.8,628c15.5,7,24,25.6,18.6,41.3c-2.6,6-6.5,11.4-11.4,15.7c-7.6,7.2-10.1,8.1-20.9,8.1
			c-20.9,0-35.5-13.7-35.5-33.2c0-14.8,7-26.5,19.3-32.1C674.7,622.4,681,622.6,692.8,628L692.8,628z"/>
		<path id="Path_428" class="st10" d="M337,624.5c-8.8,8.1-9.3,21.8-1.2,30.5c1.8,1.9,3.9,3.5,6.3,4.7c10.6,5.7,23.9,1.6,29.5-9
			c1.8-3.3,2.6-7,2.6-10.7c0-7.4-1.3-10.1-7.4-15.5C357,615.5,346,615.5,337,624.5z"/>
		<path id="Path_429" class="st10" d="M544.9,622.7c-21.1,13.5-21.1,41.3,0,54.1c25.1,15.3,56.6-14.1,42.9-40.2
			C579.3,620.2,559.3,613.9,544.9,622.7z M573.9,636.2c4,3.4,6.4,8.4,6.5,13.7c0,9.9-10.5,20.2-20.9,20.2
			c-17.7,0-26.5-21.8-13.7-34.6C554.1,627.2,565.1,627.6,573.9,636.2L573.9,636.2z"/>
		<path id="Path_430" class="st10" d="M458.3,631.3c-7.2,7.2-7.9,10.5-4,18.9c3.8,8.6,13.9,12.5,22.5,8.7c2-0.9,3.8-2.2,5.4-3.8
			c9-8.8,7.2-21.5-3.6-26.9C469.5,623.4,465.7,623.9,458.3,631.3z"/>
		<path id="Path_431" class="st10" d="M391.2,630.9c-5.1,5.1-5.1,13.3,0,18.3c0.6,0.6,1.3,1.2,2,1.6c5.4,3.4,6.5,3.4,11.9,0.4
			c3.6-2,6-5.6,6.5-9.6C413.2,629.3,399,622.2,391.2,630.9z M407.1,635c4.7,8.5-4.7,18-11.9,12.1c-4-3.4-4.5-12.6-0.5-14.1
			C400.1,630.7,405.1,631.4,407.1,635L407.1,635z"/>
		<path id="Path_432" class="st10" d="M283.9,632.4c2,2,4.7,3.4,6.1,2.9s-0.4-2.2-3.8-3.8C280.5,629,280.5,629,283.9,632.4z"/>
		<path id="Path_433" class="st10" d="M304.3,632.5c-1.8,4.7,2.9,9.4,6.3,6.1c2.9-2.9,1.1-9.6-2.5-9.6
			C306.8,628.9,305.2,630.4,304.3,632.5z"/>
		<path id="Path_434" class="st10" d="M505.2,637.2c1.4,0.6,3,0.6,4.3-0.2c0.9-0.7-0.4-1.3-2.9-1.1
			C504,635.9,503.4,636.5,505.2,637.2z"/>
		<path id="Path_435" class="st10" d="M607,639.4c-3.1,3.4-1.3,7.6,3.1,7.6c3.1,0,4.3-1.1,3.8-3.8
			C613.3,639.2,609.5,637.2,607,639.4z"/>
		<path id="Path_436" class="st10" d="M756.3,641.4c-1.7,2.3-2.2,5.2-1.3,7.9c1.3,4.5,6,7,10.5,5.7c4.1-1.2,6.6-5.3,5.9-9.5
			c-0.4-4.7-2-6.3-6.5-6.7C761.7,638.3,758.6,639.3,756.3,641.4z"/>
		<path id="Path_437" class="st10" d="M864,643.9c0,2.5,0.7,3.1,1.3,1.3c0.6-1.4,0.6-3-0.2-4.3C864.4,640.1,863.8,641.4,864,643.9z"
			/>
		<path id="Path_438" class="st10" d="M274.5,647c0,3.4,1.3,4.7,4.7,4.7c3.1,0,4.3-1.1,3.8-3.8C281.9,642,274.5,641.3,274.5,647z"/>
		<path id="Path_439" class="st10" d="M828.5,653.4c-3.4,5.4-3.4,6.5-0.4,11.9c2.5,4.5,4.9,5.8,11,5.8s8.5-1.3,11-5.8
			c2.9-5.4,2.9-6.5-0.4-11.9c-2.1-3.8-6.2-6-10.5-5.8C834.7,647.4,830.7,649.7,828.5,653.4z"/>
		<path id="Path_440" class="st10" d="M289.9,656.7c-7.9,8.1-8.3,15.7-1.1,24c10.5,12.6,32.8,4.5,32.8-11.7
			c0-7.6-11.4-18.9-19.1-18.9C298.9,650.2,294,652.9,289.9,656.7z M310.8,660.8c7.6,7,2.5,20.9-7.9,20.9c-6.1,0-12.8-6.3-12.8-11.9
			c-0.1-6.8,5.4-12.3,12.1-12.3C305.4,657.4,308.5,658.6,310.8,660.8z"/>
		<path id="Path_441" class="st10" d="M785.9,653.8c-8.8,3.8-11.9,9.4-11.9,20.9c0,7.4,1.3,10.1,7,14.8c3.9,3.6,9,5.7,14.4,5.8
			c5.3-0.2,10.4-2.2,14.4-5.8c5.6-4.7,7-7.4,7-14.8c0-11.7-3.1-17.3-12.3-21.1C795.1,649.8,794.9,649.7,785.9,653.8z"/>
		<path id="Path_442" class="st10" d="M601.4,660.1c-1.8,4.5,1.8,8.1,5.8,5.6c3.4-2.2,1.8-9.2-2-9.2
			C603.8,656.5,602.3,658.1,601.4,660.1z"/>
		<path id="Path_443" class="st10" d="M424.5,661.5c-7.9,4.5-3.4,15.5,6.5,15.5c7,0,9.9-10.5,4-15
			C430.1,658.6,429.5,658.4,424.5,661.5z"/>
		<path id="Path_444" class="st10" d="M503.9,661.7c-3.4,3.5-3.4,9.1,0,12.6c3.1,3.1,9.9,3.6,11.7,0.7c0.7-0.9-1.3-1.3-4.3-0.7
			c-6.7,1.1-9.9-4.7-5.8-11C508.4,658.4,507.7,657.9,503.9,661.7z"/>
		<path id="Path_445" class="st10" d="M515.3,662.6c1.6,2.7,3.4,4.5,4,3.8c0.7-0.4-0.7-2.7-2.9-4.9
			C512.6,657.9,512.4,657.9,515.3,662.6z"/>
		<path id="Path_446" class="st10" d="M256.5,676.2c-6.1,7.2,5.2,18.4,12.3,12.3c4.5-3.6,4.3-12.6-0.2-14.4
			C263,672,259.4,672.6,256.5,676.2z"/>
		<path id="Path_447" class="st10" d="M345.6,674.9c-1.2,2.3-0.2,5.1,2,6.2c0.8,0.4,1.6,0.6,2.4,0.5c3.1,0,6.1-5.4,4-7.6
			C351.4,672,347.7,672.4,345.6,674.9z"/>
		<path id="Path_448" class="st10" d="M750.2,677.4c-2,3.4,2.5,7.4,6.7,5.8c2-0.8,2.9-3,2.2-4.9c-1-2.6-3.9-3.9-6.5-2.9
			C751.6,675.8,750.8,676.5,750.2,677.4z"/>
		<path id="Path_449" class="st10" d="M363.4,685.5c-5.8,7.2,2.9,18.2,10.8,13.2c4.3-2.4,5.8-7.8,3.5-12c-0.2-0.4-0.5-0.8-0.8-1.2
			c-3-3.7-8.5-4.3-12.2-1.3C364.2,684.6,363.8,685,363.4,685.5z"/>
		<path id="Path_450" class="st10" d="M472.8,688.2c-10.7,5.4-17.5,16.1-18,28c0,24,27.4,39.1,47.4,25.6
			c21.5-14.4,18.9-44.7-4.7-54.1C486,683.2,482.4,683.2,472.8,688.2z M499.9,701.8c8.3,8.3,8.5,17.7,0.7,26.9
			c-6.7,8.4-18.9,9.7-27.3,3.1c-4.7-3.8-7.4-9.6-7.3-15.6C466.3,696.9,486.4,688.4,499.9,701.8L499.9,701.8z"/>
		<path id="Path_451" class="st10" d="M279.6,687.8c-1.6,4,3.8,8.5,7,5.4c2.5-2.5,0.2-9-3.1-9C282.1,684.2,280.5,685.8,279.6,687.8z
			"/>
		<path id="Path_452" class="st10" d="M221,692.2c-6.3,4.3-6.5,12.8-0.4,18.8c4.1,5,11.5,5.6,16.4,1.5c0.5-0.5,1-1,1.5-1.5
			c5-4.1,5.6-11.5,1.5-16.4c-0.5-0.5-1-1-1.5-1.5C233.2,687.7,227.8,687.5,221,692.2z M236.3,696.5c3,3.9,2.4,9.4-1.5,12.5
			c-0.4,0.3-0.8,0.6-1.2,0.8c-7.9,4.9-16.6-6.1-10.8-13.2c3-3.7,8.5-4.3,12.2-1.3C235.5,695.6,235.9,696,236.3,696.5z"/>
		<path id="Path_453" class="st10" d="M393.1,696.5c-7.2,7-7.6,19.3-1.1,25.8c6.5,6.5,20.2,6.1,26.5-0.7c10.5-11.2,2.2-30.8-13-30.8
			C400.8,691,396.3,693,393.1,696.5z M414,700.3c4,4,3.1,14.1-1.8,18.6c-10.1,9.2-24.7-4-17.1-15.7
			C399.2,697.1,409.3,695.6,414,700.3L414,700.3z"/>
		<path id="Path_454" class="st10" d="M843.8,695.1c-3.1,5.6-1.1,10.8,4.5,12.6c6.1,2,11.4-2.9,10.5-9.9c-0.6-4.4-4.6-7.5-9-6.9
			C847.2,691.3,845,692.8,843.8,695.1z"/>
		<path id="Path_455" class="st10" d="M534.8,697.4c-1.8,0.9-2.7,4.3-2.2,7.2c0.9,6.5,10.1,7.6,13.7,1.6
			C550.5,699.4,541.9,692.6,534.8,697.4z M544.4,703.2c0.1,2.8-2.1,5.1-4.9,5.2c0,0,0,0-0.1,0c-3.8,0.7-5.2-0.4-5.2-3.6
			c-0.1-2.1,0.5-4.1,1.6-5.8C538.8,696,544.4,698.7,544.4,703.2z"/>
		<path id="Path_456" class="st10" d="M752.9,701.2c-4.5,4.5-4.7,15.3-0.2,18.9c4.9,4,14.8,3.4,18.4-1.3
			C780.3,706.1,763.9,690.2,752.9,701.2z"/>
		<path id="Path_457" class="st10" d="M610.6,703.6c0.3,2.1,1.9,3.7,4,4c2.1-0.3,3.7-1.9,4-4c0.4-2.7-0.7-3.8-4-3.8
			S610.2,700.9,610.6,703.6z"/>
		<path id="Path_458" class="st10" d="M299.5,704.8c-10,3.3-18.7,9.6-24.9,18.1c-7.2,8.8-14.6,27.6-14.6,36.6c0,4.8,0.5,5,9.6,5
			c9.1,0,9.6-0.2,9.6-5c0-1,0.5-4,0.5-4s5.8-15.7,10.4-20.3c12.3-13.5,33.3-14.4,46.7-2c0.6,0.6,1.3,1.2,1.9,1.8
			c4.9,5.2,10.5,18.5,10.7,24.9c0,4.2,0.9,4.6,9.8,4.6h10l-1.2-8.4c-4-29.4-25.1-51.3-50.5-53.1
			C311.5,702.5,305.4,703.1,299.5,704.8z"/>
		<path id="Path_459" class="st10" d="M575.9,704.8c-5.4,2.5-9.9,10.8-9.9,17.5c0.8,3.9,2.7,7.4,5.4,10.3c11,13,30.7,5.8,31.2-11.4
			C603,707,588.9,698.2,575.9,704.8z M594.1,713.3c9.2,10.3-6.5,26-16.8,16.8c-5.1-4.3-5.8-12-1.5-17.1c0.2-0.2,0.4-0.4,0.6-0.7
			c4.8-4.7,12.5-4.6,17.1,0.2C593.7,712.8,593.9,713.1,594.1,713.3L594.1,713.3z"/>
		<path id="Path_460" class="st10" d="M781.8,711.3c-0.9,1.3-1.1,2.7-0.4,3.4c0.4,0.7,1.6-0.4,2.2-2.5
			C785.2,708.3,783.9,707.7,781.8,711.3z"/>
		<path id="Path_461" class="st10" d="M796.7,716.9c0,2.5,0.7,3.1,1.3,1.3c0.6-1.4,0.6-3-0.2-4.3
			C797.1,713.1,796.4,714.4,796.7,716.9z"/>
		<path id="Path_462" class="st10" d="M809.2,718.4c-15.1,9.6-24.1,26.3-24,44.2v9h7.1c6.8,0,7.1-0.4,7.1-6.7
			c0.2-9.5,4-18.5,10.5-25.4c10-10.5,24-10.5,33.9-0.2l5.3,5.8v-12.3c0-11-0.4-12.3-4.8-15c-5-2-10.3-3.3-15.6-3.8
			C820,713.3,816.5,714,809.2,718.4z"/>
		<path id="Path_463" class="st10" d="M633.5,719.3c-2.7,2.7-1.6,11.2,1.8,14.1c7.2,6.1,18.4-5.2,12.3-12.3
			C644.7,717.8,636.1,716.7,633.5,719.3z"/>
		<path id="Path_464" class="st10" d="M689.8,722.9c-5.9,6.6-6.5,16.4-1.3,23.6c2.5,3.6,5.6,4.9,12.3,4.9c11.2,0,17.7-6.1,17.7-16.6
			C718.5,720,699.7,712.4,689.8,722.9z"/>
		<path id="Path_466" class="st10" d="M532.4,735.1c-13.2,17.1,10.5,37.5,25.8,22c6.7-6.7,7.2-14.4,0.9-22.2
			c-6.1-7.3-17-8.3-24.3-2.2C533.9,733.4,533.1,734.2,532.4,735.1z"/>
		<path id="Path_467" class="st10" d="M418.6,736.2c-4.5,4.5-3.4,17.1,1.6,19.8c9.6,5.2,20.4-0.4,20.4-10.5
			C440.6,736,425.3,729.4,418.6,736.2z"/>
		<path id="Path_468" class="st10" d="M763.9,735.7c-0.7,1.3,0.2,1.6,2,0.9c4-1.6,4.7-3.1,1.6-3.1
			C766,733.5,764.6,734.4,763.9,735.7z"/>
		<path id="Path_469" class="st10" d="M771.7,748.3c-3.8,2-4.5,3.1-2,3.1c2.5-0.3,4.8-1.5,6.5-3.4C779.6,744,779.1,744,771.7,748.3z
			"/>
		<path id="Path_470" class="st10" d="M625.8,749.4c-10,2-19.2,6.8-26.5,13.9c-8.3,7.4-6.3,9,10.1,7.2c8.3-0.9,20.6-1.6,27.4-1.6
			s19.1,0.7,27.6,1.6c17.3,1.8,18.6,0.2,7.9-9.2C659.4,750.4,642.3,746,625.8,749.4z"/>
		<path id="Path_471" class="st10" d="M506.9,755.9c-1.8,3.1,0.7,6.7,4.7,6.7c1.8,0,3.1-2,3.1-4.5c0.2-2.3-1.4-4.3-3.7-4.5
			C509.3,753.5,507.7,754.4,506.9,755.9z"/>
		<path id="Path_472" class="st10" d="M730.3,758.8c-4.5,4.7-6.7,12.8-3.6,12.8c2.4-1.5,4.4-3.5,5.8-5.8c5.8-7.2,17.5-7,20.9,0.7
			c1.1,2.9,3.4,5.2,4.9,5.2c4.7,0,3.4-6.5-2.7-12.3c-6.5-7.1-17.5-7.6-24.6-1.2C730.8,758.4,730.6,758.6,730.3,758.8z"/>
		<path id="Path_473" class="st10" d="M397.8,758.2c-0.9,1.6-0.6,3.6,0.7,4.9c3.1,3.1,10.1,0.4,9-3.4
			C406.1,756.2,399.8,755,397.8,758.2z"/>
		<path id="Path_474" class="st10" d="M471.2,762.2c-3.7,0.9-7.1,2.6-10.1,4.9l-5.6,4.5h40.4l-5.6-4.3
			C485,762.9,478,761,471.2,762.2z"/>
	</g>
</g>
</svg>
