<?xml version="1.0" encoding="utf-8"?>
<!-- Generator: Adobe Illustrator 24.1.2, SVG Export Plug-In . SVG Version: 6.00 Build 0)  -->
<svg version="1.1" id="Layer_1" xmlns="http://www.w3.org/2000/svg" xmlns:xlink="http://www.w3.org/1999/xlink" x="0px" y="0px"
	 viewBox="0 0 1080 1080" style="enable-background:new 0 0 1080 1080;" xml:space="preserve">
<style type="text/css">
	.Drop_x0020_Shadow{fill:none;}
	.Outer_x0020_Glow_x0020_5_x0020_pt{fill:none;}
	.Blue_x0020_Neon{fill:none;stroke:#8AACDA;stroke-width:7;stroke-linecap:round;stroke-linejoin:round;}
	.Chrome_x0020_Highlight{fill:url(#SVGID_1_);stroke:#FFFFFF;stroke-width:0.3629;stroke-miterlimit:1;}
	.Jive_GS{fill:#FFDD00;}
	.Alyssa_GS{fill:#A6D0E4;}
	.st0{fill:#F0CD95;}
	.st1{fill:#3B0215;}
	.st2{fill:#97002F;}
	.st3{fill:#5E001E;}
	.st4{fill:none;stroke:#5E001E;stroke-linecap:round;stroke-miterlimit:10;}
	.st5{fill:#FFFFFF;}
	.st6{fill:none;stroke:#3B0215;stroke-linecap:round;stroke-miterlimit:10;}
	.st7{fill:#E3E3E3;}
	.st8{fill:#E4E4E4;}
	.st9{fill:#FCD87F;}
	.st10{fill:#6C0022;}
	.st11{fill:none;stroke:#97002F;stroke-width:2.02;stroke-linecap:round;stroke-miterlimit:10;}
	.st12{fill:#8C002C;}
	.st13{opacity:0.2;fill:#5E001E;enable-background:new    ;}
	.st14{fill:none;stroke:#6C0022;}
	.st15{clip-path:url(#SVGID_3_);}
	.st16{fill:none;stroke:#707070;}
	.st17{clip-path:url(#SVGID_5_);}
</style>
<linearGradient id="SVGID_1_" gradientUnits="userSpaceOnUse" x1="-1100" y1="0" x2="-1100" y2="-1">
	<stop  offset="0" style="stop-color:#656565"/>
	<stop  offset="0.618" style="stop-color:#1B1B1B"/>
	<stop  offset="0.6292" style="stop-color:#545454"/>
	<stop  offset="0.9831" style="stop-color:#3E3E3E"/>
</linearGradient>
<g>
	<defs>
		<rect id="SVGID_4_" x="169" y="467.1" width="742.8" height="146.3"/>
	</defs>
	<clipPath id="SVGID_3_">
		<use xlink:href="#SVGID_4_"  style="overflow:visible;"/>
	</clipPath>
	<g id="Repeat_Grid_1_1_" class="st15">
		<g transform="translate(-117.117 -3520)">
			<path id="Path_512_1_" class="st10" d="M545.5,3987.8c-15.4,2.6-29.5,10.1-40.2,21.4c-9.5,9.6-16,21.7-19,34.9
				c-1.2,5.1-1.7,10.3-1.4,15.5c-0.4,7.8,0.7,15.5,3.2,22.9c7.3,22.1,24.5,39.5,46.5,47c10.2,3.3,21,4.4,31.7,3.2
				c39.2-4.6,67.7-39.4,64.5-78.7c-1.2-14.9-6.9-29-16.4-40.5c-11.3-13.5-27-22.6-44.3-25.7C562,3986.9,553.7,3986.9,545.5,3987.8z
				 M583.1,4027.4c1.7,0.7,3.3,1.6,4.8,2.7c2.4,1.9,2.9,1.9,8.6-0.9c1.3-0.7,2.6-1.2,3.9-1.6c0.5,0.5-2.3,4.9-4.5,7l-2.3,2.4l2-0.4
				c1.4-0.3,2.8-0.6,4.1-1.1c0.7-0.3,1.5-0.5,2.3-0.4c0.7,0.6-5,6.9-6.9,7.4c-0.7,0.3-0.9,1.3-1.2,6.8c-0.2,6.8-1.9,13.6-5,19.7
				c-12.3,24.4-43.2,34.5-68.8,22.3l-4-1.9l4.8-0.5c8-0.7,14.8-3,18.3-5.9l1.5-1.3l-3.8-1.1c-4.4-1.3-8.2-4.2-10.4-8.3
				c-0.6-1-1.2-2-1.6-3.1c0-0.2,0.8-0.2,1.8-0.1c1.3,0.1,2.6,0.1,3.8-0.1l2-0.4l-3.2-1.5c-5.3-2.7-9.1-7.8-10-13.7
				c-0.4-2.2-0.3-2.3,0.6-1.9c6.4,2.7,7.9,2.3,4.5-1.2c-4.5-4.3-6.3-10.7-4.6-16.7c1.4-4.9,1.4-4.9,6-0.4c4.3,4.3,9.2,7.8,14.7,10.4
				c4.8,2.2,9.9,3.6,15.1,3.9h2.9l-0.3-1.9c-0.2-3.4,0.4-6.8,1.8-9.9c2.5-4.2,6.5-7.4,11.1-8.9
				C575.2,4026.1,579.3,4026.3,583.1,4027.4L583.1,4027.4z"/>
			<path id="Path_513_1_" class="st10" d="M346.3,3987.9c-22.7,4.1-42.1,18.6-52.6,39.1c-4.9,9.4-7.5,19.8-7.6,30.5
				c-0.7,12.2,1.9,24.3,7.5,35.1c3.7,7.8,8.8,14.8,15.1,20.6c10,9.5,22.6,16,36.1,18.8c9.7,1.5,19.5,1.4,29.2-0.2
				c6.5-1.4,12.8-3.7,18.7-6.8c19.5-10.2,33.4-28.4,38.1-49.9c1.4-8.9,1.5-18,0.5-26.9c-5.2-30.7-29.1-54.8-59.8-60.2
				C363.2,3986.9,354.7,3986.9,346.3,3987.9z M376.8,4017.2l1.7,0.3v13.1l-5,0.3c-5.8,0.3-8.5,1.4-9.9,3.8c-0.9,1.4-1,2.8-1,8.7v7.1
				h7.7c2.6-0.1,5.1,0,7.7,0.3c0,0.5-2.1,13.8-2.4,15c-0.3,1.2-0.5,1.2-6.6,1.2h-6.4v40.4h-18.1v-40.4h-14.4v-16.5h14.4v-6.3
				c0-8.2,0.7-12.9,2.6-17c2.4-5.3,7.2-9.2,13-10.2C365.6,4016.5,371.2,4016.6,376.8,4017.2z"/>
			<path id="Path_514_1_" class="st10" d="M752.5,3987.2c-29,2-54.1,20.7-64.2,47.9c-2.8,7.2-4.2,14.9-4.3,22.7
				c-0.7,12.2,1.9,24.3,7.5,35.1c10,20.4,29,35,51.3,39.4c9.7,1.5,19.5,1.4,29.2-0.2c26.6-5.7,47.9-25.5,55.4-51.7
				c2.7-10.5,3.3-21.5,1.7-32.3c-4.5-26.8-23.5-48.8-49.3-57.3C771.1,3988.1,761.8,3986.9,752.5,3987.2z M732.7,4024
				c4,2.7,5.1,8.2,2.4,12.3c-0.7,1.1-1.7,2-2.8,2.6c-1.4,1-3.2,1.4-5,1.1c-3.1,0.1-6-1.8-7.2-4.7c-2.2-4.1-0.7-9.2,3.3-11.4
				c1.4-1,3.2-1.4,5-1.1C729.9,4022.8,731.4,4023.2,732.7,4024z M781.9,4047.8c4.4,1.9,7.8,5.4,9.7,9.8c0.9,2.7,1,4.6,1,20.7v17.8
				l-7.3,0.2l-7.3,0.2l-0.2-15c-0.2-14.4-0.2-15.1-1.3-16.9c-3.2-4.5-9.5-5.6-14-2.4c-1.3,0.9-2.4,2.1-3.1,3.5
				c-1.1,2.2-1.1,3.1-1.1,16.5v14.2H744v-49.5l7.1,0.2l7,0.2l0.2,3.1l0.2,3.1l2.3-2.2c2.3-2.2,5.2-3.7,8.4-4.2
				C773.4,4046.6,777.7,4046.8,781.9,4047.8L781.9,4047.8z M735.3,4071.8l0.1,24.6h-14.9v-24.3c0-13.4,0.2-24.6,0.4-24.8
				c2.4-0.3,4.9-0.3,7.3-0.2l7,0.2L735.3,4071.8z"/>
			<path id="Path_517_1_" class="st10" d="M949,3987.9c-12,1.3-23.5,5.3-33.5,11.9c-16.1,10.8-27.3,27.4-31.2,46.4
				c-1.6,9.7-1.6,19.5,0.1,29.2c5.2,25,23,45.4,46.9,54c7.9,3.1,16.3,4.4,24.7,4c7.8,0.5,15.6-0.7,22.9-3.3
				c23.7-7.9,41.7-27.3,47.9-51.5c3.8-14.9,2.8-30.6-2.9-44.8c-8.7-22-27.5-38.3-50.5-44c-6.1-1.4-12.2-2.2-18.4-2.4
				C954.4,3987.5,951.8,3987.7,949,3987.9z M966,4019.7c22.8,5.7,36.7,28.7,31,51.5c-2.2,9-7.3,17-14.5,22.8
				c-11.4,9.1-26.6,11.7-40.4,7.1c-13.9-4.9-24.4-16.6-27.6-31c-1.3-6.5-1.2-13.3,0.3-19.8C920.7,4027.8,943.4,4014.3,966,4019.7
				L966,4019.7z"/>
			<path id="Path_518_1_" class="st10" d="M950.1,4023.2c0.7,0.9,1.6,1.7,2.6,2.2c4.4,3.1,8.4,6.9,11.8,11.1c1.5,2,3,3.8,3.2,4
				c0.4,0.5,10.6-9,10.6-10c0-1.1-5-4-10-5.7c-3.6-1.3-7.5-2-11.4-1.9C954.6,4022.8,952.3,4022.9,950.1,4023.2z"/>
			<path id="Path_519_1_" class="st10" d="M936.5,4027.9c-4.3,2.6-8.1,6-11.1,10c-2.7,3.8-5.5,9.2-5,9.7c3.6,1.3,7.4,2.2,11.3,2.7
				l3.3,0.3l0.3-4.9c0.5-5.8,1.8-11.4,4-16.8c0.6-1.5,1-2.8,0.7-2.8C938.9,4026.6,937.7,4027.2,936.5,4027.9z"/>
			<path id="Path_520_1_" class="st10" d="M945.3,4027.2c0,0.1-0.7,2-1.7,4.1c-2.1,5-3.4,10.4-3.7,15.9v3.3l3.6-0.4
				c6.2-0.6,19.7-5.3,19.7-6.7c0-1.9-7.4-9.7-13.2-13.9C947.4,4027.6,945.3,4026.6,945.3,4027.2z"/>
			<path id="Path_521_1_" class="st10" d="M977.9,4038c-1.9,2-3.9,3.9-5.9,5.7l-1.8,1.3l1.9,4.3c2,4.9,3.4,9.9,4.2,15.1l0.3,2
				l3.6,0.4c2.7,0.4,5.5,0.9,8.2,1.5l4.6,1.2l0.3-1.1c0.2-0.6,0.4-3.1,0.6-5.6c0.4-9.3-2.6-18.4-8.3-25.6c-0.9-1.3-1.9-2.5-3.1-3.6
				C980.9,4034.9,979.4,4036.4,977.9,4038z"/>
			<path id="Path_522_1_" class="st10" d="M963.1,4049.3c-6.6,3.3-13.8,5.4-21.2,6c-1.1,0-1.9,0.2-1.9,0.4c1,6.3,2.9,12.3,5.6,18.1
				c1.5-0.4,2.9-1,4.2-1.7c2.3-1.1,4.7-2.1,7.2-3c4.4-1.3,9-2.2,13.6-2.7c1.1,0,1.2-0.2,0.9-2c-0.7-5-4.5-16.6-5.4-16.5
				C965.9,4047.9,964.5,4048.5,963.1,4049.3z"/>
			<path id="Path_523_1_" class="st10" d="M918.5,4053.1c-0.3,1.7-0.5,3.5-0.6,5.2c-0.7,10.1,2.6,20.1,9.3,27.7l2.1,2.4l3.9-4
				c2.2-2.2,4.9-4.9,6.2-5.9l2.2-1.8l-1.8-4.1c-2-4.9-3.4-10-4.2-15.2l-0.3-1.9l-4.9-0.6c-2.8-0.4-5.5-0.9-8.2-1.7
				C919.1,4052.3,918.8,4052.3,918.5,4053.1z"/>
			<path id="Path_524_1_" class="st10" d="M965.1,4072c-4.4,0.7-8.6,2.1-12.5,4.1l-4.6,2.1l1.7,2.3c4.1,5.7,14.2,14.3,16.2,13.8
				c1.9-0.4,5.9-14.3,5.9-20.5c0-2.7-0.1-2.8-1.4-2.7C968.6,4071.4,966.9,4071.6,965.1,4072z"/>
			<path id="Path_525_1_" class="st10" d="M976.4,4075.5c-0.6,5.9-2,11.6-4,17.2c-0.5,0.8-0.8,1.8-0.8,2.8c1.4-0.5,2.8-1.1,4-2
				c4.8-3,8.9-6.9,12-11.6c1.7-2.3,3-5,3.8-7.7c-3.7-1.3-7.6-2.2-11.5-2.8l-3.1-0.3L976.4,4075.5z"/>
			<path id="Path_526_1_" class="st10" d="M938.6,4085.7c-1.9,1.6-3.6,3.5-4.9,5.7c0.4,1.1,6.5,4.4,10.4,5.6
				c4.8,1.6,9.9,2.2,14.9,1.9l3.4-0.4l-3-2c-5-3.7-9.5-8-13.4-12.8c-0.6-1-1.4-2-2.2-2.9C943.8,4080.7,941.4,4083,938.6,4085.7z"/>
		</g>
	</g>
</g>
</svg>
