<?xml version="1.0" encoding="utf-8"?>
<!-- Generator: Adobe Illustrator 24.1.2, SVG Export Plug-In . SVG Version: 6.00 Build 0)  -->
<svg version="1.1" id="Layer_1" xmlns="http://www.w3.org/2000/svg" xmlns:xlink="http://www.w3.org/1999/xlink" x="0px" y="0px"
	 viewBox="0 0 1080 1080" style="enable-background:new 0 0 1080 1080;" xml:space="preserve">
<style type="text/css">
	.Drop_x0020_Shadow{fill:none;}
	.Outer_x0020_Glow_x0020_5_x0020_pt{fill:none;}
	.Blue_x0020_Neon{fill:none;stroke:#8AACDA;stroke-width:7;stroke-linecap:round;stroke-linejoin:round;}
	.Chrome_x0020_Highlight{fill:url(#SVGID_1_);stroke:#FFFFFF;stroke-width:0.3629;stroke-miterlimit:1;}
	.Jive_GS{fill:#FFDD00;}
	.Alyssa_GS{fill:#A6D0E4;}
	.st0{fill:#F0CD95;}
	.st1{fill:#3B0215;}
	.st2{fill:#97002F;}
	.st3{fill:#5E001E;}
	.st4{fill:none;stroke:#5E001E;stroke-linecap:round;stroke-miterlimit:10;}
	.st5{fill:#FFFFFF;}
	.st6{fill:none;stroke:#3B0215;stroke-linecap:round;stroke-miterlimit:10;}
	.st7{fill:#E3E3E3;}
	.st8{fill:#E4E4E4;}
	.st9{fill:#FCD87F;}
</style>
<linearGradient id="SVGID_1_" gradientUnits="userSpaceOnUse" x1="-1100" y1="0" x2="-1100" y2="-1">
	<stop  offset="0" style="stop-color:#656565"/>
	<stop  offset="0.618" style="stop-color:#1B1B1B"/>
	<stop  offset="0.6292" style="stop-color:#545454"/>
	<stop  offset="0.9831" style="stop-color:#3E3E3E"/>
</linearGradient>
<g id="Group_290" transform="translate(-44 -1077.274)">
	<circle id="Ellipse_167" class="st0" cx="-370.9" cy="1750.7" r="85.4"/>
	<circle id="Ellipse_166" class="st0" cx="-700" cy="1527.6" r="85.4"/>
	<circle id="Ellipse_168" class="st0" cx="-700" cy="1995.8" r="85.4"/>
	<circle id="Ellipse_165" class="st0" cx="-370.9" cy="1293.5" r="85.4"/>
	<g id="Group_286" transform="translate(-83.86 924.143)">
		<g id="Group_2" transform="translate(357.66 195.207)">
			<path id="Rectangle_6" class="st1" d="M-584.6,210.4l-106.9,47.8c-1.7,0.8-3.7,0-4.5-1.7l-26.7-59.7c-0.8-1.7,0-3.7,1.7-4.5
				l106.9-47.8c1.7-0.8,3.7,0,4.5,1.7l26.7,59.7C-582.1,207.6-582.8,209.6-584.6,210.4z"/>
			<path id="Rectangle_7" class="st2" d="M-604.7,204.5l-18.8,8.4c-1.4,0.6-2.9,0-3.5-1.4l-4.9-11c-0.6-1.4,0-2.9,1.4-3.5l18.8-8.4
				c1.4-0.6,2.9,0,3.5,1.4l4.9,11C-602.7,202.3-603.3,203.9-604.7,204.5z"/>
			
				<rect id="Rectangle_8" x="-672.2" y="188.6" transform="matrix(0.9129 -0.4083 0.4083 0.9129 -133.8329 -245.2629)" class="st2" width="61.4" height="4.6"/>
			
				<rect id="Rectangle_9" x="-678.4" y="174.6" transform="matrix(0.9129 -0.4083 0.4083 0.9129 -128.6888 -249.0202)" class="st2" width="61.4" height="4.6"/>
			
				<rect id="Rectangle_10" x="-696.2" y="216.6" transform="matrix(0.9129 -0.4083 0.4083 0.9129 -153.7181 -261.954)" class="st2" width="11.4" height="25.1"/>
		</g>
		<g id="Group_3" transform="translate(337.013 153.131)">
			<path id="Rectangle_11" class="st2" d="M-733.8,206l80.6-85c1.3-1.4,3.5-1.4,4.8-0.1l47.5,45c1.4,1.3,1.4,3.5,0.1,4.8l-80.6,85
				c-1.3,1.4-3.5,1.4-4.8,0.1l-47.5-45C-735,209.5-735.1,207.4-733.8,206z"/>
			
				<rect id="Rectangle_12" x="-743.9" y="168.8" transform="matrix(0.6882 -0.7255 0.7255 0.6882 -339.2183 -440.3178)" class="st3" width="124" height="11.4"/>
			<path id="Rectangle_13" class="st3" d="M-707.7,220.4l10.9-11.5c0.9-0.9,2.4-1,3.3-0.1l6,5.7c0.9,0.9,1,2.4,0.1,3.3l-10.9,11.5
				c-0.9,0.9-2.4,1-3.3,0.1l-6-5.7C-708.5,222.8-708.6,221.3-707.7,220.4z"/>
			
				<rect id="Rectangle_14" x="-690.2" y="189.9" transform="matrix(0.6882 -0.7255 0.7255 0.6882 -351.0962 -428.4415)" class="st3" width="32.4" height="8.8"/>
			
				<rect id="Rectangle_15" x="-706.6" y="202.8" transform="matrix(0.6879 -0.7258 0.7258 0.6879 -354.4202 -415.1749)" class="st3" width="93.4" height="3.3"/>
			
				<rect id="Rectangle_16" x="-697.3" y="217.1" transform="matrix(0.6882 -0.7255 0.7255 0.6882 -365.5522 -413.002)" class="st3" width="68" height="3.3"/>
		</g>
	</g>
	<g id="Group_288" transform="translate(-278.966 956.472)">
		<path id="Path_7" class="st4" d="M-469.3,534.6v-14.7c0-13.5,10.9-24.5,24.5-24.5l0,0c13.5,0,24.5,11,24.5,24.5v14.7"/>
		<path id="Path_8" class="st3" d="M-506.4,645.6h96.1l12-119.8h-96.1L-506.4,645.6z"/>
		<path id="Path_9" class="st2" d="M-374.3,645.6h-96.1l-12-119.8h96.1L-374.3,645.6z"/>
		<circle id="Ellipse_3" class="st5" cx="-455.9" cy="534.6" r="3.7"/>
		<circle id="Ellipse_4" class="st5" cx="-407" cy="534.6" r="3.7"/>
		<path id="Path_10" class="st1" d="M-506.4,645.6l18-18.9l18,18.9H-506.4z"/>
		<path id="Path_11" class="st2" d="M-488.4,626.7v-101h-6l-12,119.8L-488.4,626.7z"/>
		<path id="Path_12" class="st6" d="M-455.9,534.6v-14.7c0-13.5,10.9-24.5,24.5-24.5c0,0,0,0,0,0l0,0c13.5,0,24.5,10.9,24.5,24.5
			v14.7"/>
	</g>
	<g id="Group_289" transform="translate(-279.518 1180.211)">
		<path id="Path_528" class="st1" d="M-198.8,591.9h183.4v21.3h-183.4V591.9z"/>
		<rect id="Rectangle_35" x="-152.8" y="522.1" class="st2" width="89.1" height="91.2"/>
		<path id="Path_527" class="st3" d="M-148.5,593h44.1v20.2h-44.1V593z"/>
		<path id="Path_18" class="st1" d="M-173.5,608.5c0-3-1.3-5.8-3.5-7.8V598h-7c-5.8,0-10.5,4.7-10.5,10.5c0,5.8,4.7,10.5,10.5,10.5
			h7v-2.7C-174.8,614.3-173.5,611.5-173.5,608.5z"/>
		<circle id="Ellipse_6" class="st2" cx="-177" cy="608.5" r="10.5"/>
		<path id="Path_19" class="st3" d="M-127.6,608.5c0-3-1.3-5.8-3.5-7.8V598h-7c-5.8,0-10.5,4.7-10.5,10.5c0,5.8,4.7,10.5,10.5,10.5
			h7v-2.7C-128.8,614.3-127.6,611.5-127.6,608.5z"/>
		<path id="Path_20" class="st1" d="M-104.4,587.5h-49.7l4.8-36.1h40.1L-104.4,587.5z"/>
		<path id="Path_21" class="st3" d="M-134.3,587.5H-184l4.8-36.1h40.1L-134.3,587.5z"/>
		<path id="Path_22" class="st7" d="M-112.5,555.8h-23l4.2,31.7h23L-112.5,555.8z"/>
		<path id="Path_23" class="st5" d="M-137.3,587.5H-181l4.2-31.7h35.3L-137.3,587.5z"/>
		<path id="Path_24" class="st2" d="M-184,587.5l-32.2,8.8h49.7l32.2-8.8H-184z"/>
		<rect id="Rectangle_37" x="-216.2" y="596.3" class="st3" width="49.7" height="12.2"/>
		<path id="Path_25" class="st1" d="M-134.3,587.5l-32.2,8.8v12.2h21.3c0.1-7.8,6.5-14.1,14.3-14c7.7,0.1,13.9,6.3,14,14h12.5v-21
			H-134.3z"/>
		<circle id="Ellipse_7" class="st2" cx="-131.1" cy="608.5" r="10.5"/>
		<path id="Path_26" class="st5" d="M-126,608.5c0,2.8-2.3,5.1-5.1,5.1c-2.8,0-5.1-2.3-5.1-5.1c0-2.8,2.3-5.1,5.1-5.1
			C-128.2,603.4-126,605.7-126,608.5L-126,608.5z"/>
		<path id="Path_27" class="st1" d="M-46.3,608.5c0-3-1.3-5.8-3.5-7.8V598h-7c-5.8,0-10.5,4.7-10.5,10.5c0,5.8,4.7,10.5,10.5,10.5h7
			v-2.7C-47.6,614.3-46.3,611.5-46.3,608.5z"/>
		<circle id="Ellipse_8" class="st2" cx="-49.8" cy="608.5" r="10.5"/>
		<path id="Path_28" class="st5" d="M-44.7,608.5c0,2.8-2.3,5.1-5.1,5.1c-2.8,0-5.1-2.3-5.1-5.1c0-2.8,2.3-5.1,5.1-5.1
			C-47,603.4-44.7,605.7-44.7,608.5L-44.7,608.5z"/>
		<path id="Path_29" class="st3" d="M-104.4,522.1v91.2h41.5c-2.6-7.3,1.2-15.4,8.5-18c7.3-2.6,15.4,1.2,18,8.5
			c1.1,3.1,1.1,6.5,0,9.5h21.1v-91.2H-104.4z"/>
		<rect id="Rectangle_38" x="-216.2" y="608.5" class="st1" width="49.7" height="4.7"/>
		<rect id="Rectangle_39" x="-166.5" y="608.5" class="st1" width="21.3" height="4.7"/>
		<rect id="Rectangle_40" x="-211.4" y="600" class="st8" width="8.5" height="8.5"/>
		<rect id="Rectangle_41" x="-179.8" y="600" class="st5" width="8.5" height="8.5"/>
		<rect id="Rectangle_42" x="-116.9" y="608.5" class="st2" width="12.5" height="4.7"/>
		<g id="Group_16">
			<path id="Path_30" class="st2" d="M-104.4,608.5v4.7h41.5c-0.5-1.5-0.8-3.1-0.8-4.7H-104.4z"/>
			<path id="Path_31" class="st2" d="M-36.5,613.3h21.1v-4.7h-20.3C-35.6,610.1-35.9,611.7-36.5,613.3z"/>
		</g>
	</g>
</g>
<g id="_4064207" transform="translate(35.599 964.123)">
	<path id="Path_529" class="st3" d="M-714.4-120c-10.4,3.9-10.8,4.1-10.8,6.4c-0.1,0.8,0.2,1.6,0.8,2.2c1.5,1.5,2.1,1.4,8.3-0.9
		c3.1-1.1,5.7-2.1,5.8-2.1c0.4,0-2.3,4.8-4.4,8.1c-14.1,21.6-47.3,45.9-77.6,56.6c-7.6,2.8-15.6,4.5-23.7,5c-0.9,0-1.7,0.3-2.3,1
		c-0.7,0.5-1,1.4-0.9,2.2c-0.1,0.8,0.2,1.7,0.9,2.2c0.8,0.8,1.1,0.9,2.6,1c4,0.2,13.6-1.4,20.8-3.6c11.8-3.9,23.1-9,33.9-15.3
		c5.2-3.1,14.8-9.4,19.4-12.9c15.2-11.4,27.3-23.9,34-35.2c0.6-1.1,1.3-2.2,2.1-3.3c0.1,0,0.6,2.2,1.1,4.8c0.9,3.9,1.2,4.8,1.8,5.5
		c1.3,1.3,3.3,1.2,4.5,0c0.5-0.5,0.8-1.1,0.9-1.7c-0.5-3.8-1.2-7.6-2.2-11.3c-2.2-9.6-2.4-10.4-3.1-11.2
		C-703.8-123.9-704.3-123.8-714.4-120z"/>
	<path id="Path_530" class="st3" d="M-804.7-120.2c-0.4,0.5-0.6,1.2-0.7,1.8c-0.1,0.7-0.2,1.8-0.3,2.4c-0.1,1.1-0.2,1.1-1.9,1.8
		l-1.8,0.8l-1.3-1c-1.9-1.6-2.5-2-3.3-2c-1,0-9.4,8.4-9.4,9.4c0.3,1,0.8,1.8,1.5,2.6l1.5,1.9l-0.7,1.6c-0.2,0.6-0.5,1.2-0.9,1.8
		c-0.8,0.3-1.7,0.4-2.5,0.5c-1,0.1-1.9,0.3-2.8,0.7c-0.4,0.4-0.5,1.1-0.5,6.6c0,5.6,0.1,6.2,0.5,6.6c0.9,0.5,1.9,0.7,2.9,0.8
		l2.4,0.4l0.7,1.8l0.7,1.7l-1.3,1.7c-1.7,2.1-1.9,2.6-1.7,3.3c1.4,1.7,2.9,3.2,4.5,4.7c3.2,3.2,4.4,4.2,4.9,4.2
		c0.9-0.2,1.8-0.7,2.5-1.4c0.7-0.6,1.4-1,2.2-1.4c1.2,0.3,2.3,0.7,3.4,1.2c0,0,0.2,1.1,0.4,2.5c0.1,1,0.3,2,0.8,2.9
		c0.4,0.4,1.1,0.5,6.7,0.5c7.5,0,7.2,0.1,7.5-3.2c0-0.8,0.2-1.6,0.4-2.4c0.6-0.4,1.2-0.7,1.9-0.9l1.7-0.7l1.9,1.5
		c0.7,0.7,1.7,1.2,2.6,1.5c1,0,9.4-8.3,9.4-9.3c-0.3-1-0.8-1.9-1.5-2.6l-1.5-2l0.7-1.8l0.7-1.8l2.5-0.3c3.6-0.4,3.4-0.1,3.4-7.4
		c0-7.3,0.2-6.9-3.4-7.4l-2.5-0.3l-0.7-1.8c-0.4-1.1-0.6-1.9-0.5-2.1c0.1-0.2,0.8-1,1.5-1.9c0.6-0.7,1.1-1.5,1.3-2.3
		c0-1.1-8.3-9.3-9.4-9.3c-1,0.2-1.9,0.8-2.6,1.5l-1.9,1.5l-1.7-0.7c-0.7-0.2-1.3-0.6-1.9-1c-0.2-0.8-0.3-1.6-0.4-2.5
		c-0.3-3.3,0-3.2-7.4-3.2C-803.7-120.7-804.3-120.6-804.7-120.2z M-794.5-98.7c1,0.5,1.9,1.2,2.6,2c3,3.4,2.7,8.7-0.7,11.7
		c-0.6,0.6-1.3,1-2.1,1.4c-1.1,0.6-2.3,0.8-3.6,0.7c-3.2,0.1-6.1-1.7-7.4-4.6c-2.1-4.1-0.5-9,3.6-11.1c0.6-0.3,1.2-0.5,1.9-0.7
		C-798.3-99.8-796.3-99.5-794.5-98.7z"/>
	<path id="Path_531" class="st3" d="M-718.9-79.5c-0.5,0.3-0.9,0.6-1.2,1l-0.7,0.7l-0.1,41.1L-721,4.3h19.7l-0.1-41.1l-0.1-41.1
		l-0.9-0.9l-0.9-0.9l-7.6-0.1C-714.9-79.7-718.6-79.6-718.9-79.5z"/>
	<path id="Path_532" class="st3" d="M-751.7-53.3c-0.5,0.3-0.9,0.6-1.2,1l-0.7,0.7l-0.1,28l-0.1,28h19.7l-0.1-28l-0.1-28l-0.9-0.9
		l-0.9-0.9l-7.6-0.1C-747.7-53.5-751.4-53.4-751.7-53.3z"/>
	<path id="Path_533" class="st3" d="M-784.4-35.8c-0.5,0.3-0.9,0.6-1.2,1l-0.7,0.7l-0.1,19.2l-0.1,19.2h19.7l-0.1-19.2l-0.1-19.2
		l-0.9-0.9l-0.9-0.9l-7.6-0.1C-780.5-36-784.1-35.9-784.4-35.8z"/>
	<path id="Path_534" class="st3" d="M-817.2-27.1c-0.5,0.3-0.9,0.6-1.2,1l-0.7,0.7l-0.1,14.9l-0.1,14.9h19.7l-0.1-14.9l-0.1-14.9
		l-0.9-0.9l-0.9-0.9l-7.6-0.1C-813.2-27.3-816.9-27.2-817.2-27.1z"/>
	<path id="Path_535" class="st3" d="M-828.1,7.9c-1.2,0.5-2,1.7-1.9,3c-0.1,0.8,0.2,1.7,0.9,2.2l0.9,0.9h133.8l0.9-0.9
		c0.7-0.5,1-1.4,0.9-2.2c0.1-0.9-0.2-1.7-0.9-2.2l-0.9-0.9L-761,7.7C-797.6,7.7-827.8,7.8-828.1,7.9z"/>
</g>
<g id="images_1_" transform="translate(70.689 104.849)">
	<path id="Path_339" class="st9" d="M652.1,674.5c-19.9,2.2-38.7,10.7-53.5,24.2c-8.8,7.8-21.2,24-23.1,30.1
		c-0.9,2.7,0.1,5.5,3.6,11.1c26.6,42.6,75.7,59,118.4,39.6c18.9-8.9,34.7-23.3,45.3-41.2c3.9-6.6,3.8-8.1-0.5-15.4
		c-6.2-9.5-13.6-18.1-22-25.8c-14.6-13-33-20.9-52.4-22.5C662.6,673.7,657.3,673.7,652.1,674.5z M675.5,691.4
		c20.9,4.7,39.2,17,51.5,34.5l3.5,5l-2.7,4c-5.5,7.5-11.8,14.2-19,20.1c-14.8,11.8-33.4,17.8-52.2,16.8
		c-25.2-1.7-48.3-14.8-62.6-35.6c-4-5.6-4.1-5.2,2.2-13.3c13.8-18.2,34.3-30,57-32.7C660.5,689.8,668.1,690.2,675.5,691.4
		L675.5,691.4z"/>
	<path id="Path_340" class="st9" d="M654.8,694.8c-10.3,2.6-18.8,9.8-23.1,19.5c-3.5,8.6-4.2,18-2,27c4.4,15.8,16.2,25.9,30.5,25.9
		c8.2,0.3,16.1-3,21.5-9.1c6.7-7,10.6-16.3,10.7-26c0.5-6.6,0.2-7-2.6-4.7c-3.3,2.5-7.5,3.6-11.6,3.2c-6.7-0.7-12.4-5-15-11.2
		c-3.1-7.1-2.6-15.1,1.2-21.8c0.8-1.2,1.3-2.5,1.1-2.7C662,694.3,658.3,694.3,654.8,694.8z"/>
</g>
<g id="تنزيل-_2_" transform="translate(72.472)">
	<path id="Path_341" class="st9" d="M635.7,289.7c-13,4.6-24.5,12.6-33.4,23.1c-41.9,47.7-16.1,123.7,45.9,134.4
		c33.1,5.6,67.7-13.9,82.5-46.5c4.4-9.1,6.5-19.2,6.1-29.4c0.7-21.1-2.1-33-8.1-33.9c-6.6-1.1-7.3,1.6-4.5,15.5
		c4.9,22-1.4,45-16.8,61.4c-21.8,22.7-49.9,27.6-77.1,13.7c-14-6.9-25-18.8-30.7-33.3c-4.9-10.5-5.4-13.5-5.4-27.9
		s0.7-17.5,5.4-27.9C619.1,296,670.4,285,704,316.5c7.8,7.2,8.5,7.6,12,5c1.9-1.2,3.3-3,3.8-5.2c0-4-15.4-16.9-27.5-22.9
		c-10.2-5.2-13.3-5.9-29.6-6.3C648.6,286.6,642.5,287.4,635.7,289.7z"/>
	<path id="Path_342" class="st9" d="M733.6,308.8c-4.3,3.1-8.2,6.7-11.8,10.6c-8.6,7.3-17.7,13.9-27.4,19.6
		c-22.2,13.7-23.6,14.4-28.9,12.6c-8.5-3.1-17.8,1.4-20.9,9.8c-2.2,6-0.6,12.7,3.9,17.2c9,9.4,22.3,5.6,26.5-7.7
		c2.4-7.4,3.8-8.6,26.5-22.7c15.1-9.2,25.8-14.8,28.9-14.8c4.9-0.7,9.7-2.3,14-4.7l9-4.9l-6.8-2.5c-2.6-0.8-5.1-1.8-7.4-3.1
		c0.2-2.7,0.8-5.4,1.9-7.9c1.6-4.1,2.1-7.6,1.4-7.6C739.5,304.6,736.5,306.5,733.6,308.8z"/>
	<path id="Path_343" class="st9" d="M643.9,316.2c-21.7,7.4-35.9,28.2-35,51.2c-0.5,8.2,1.3,16.3,5.4,23.4
		c4.8,11.5,14.1,20.6,25.6,25.2c8,3.8,11.1,4.3,22.5,3.6c12.9,0.1,25.2-5.4,33.8-15.1c9.7-9.7,14.8-23.1,14-36.7
		c0.2-5.6-0.2-11.2-1.2-16.7c-1.2-2.9-1.6-2.9-6.9,0.4c-5.2,3.4-5.5,4.1-5,13.3c1.1,15.7-7.3,30.5-21.3,37.6
		c-12.3,5.5-26.6,4.2-37.8-3.4c-17.5-13.6-20.6-38.8-7-56.3c1.4-1.8,2.9-3.5,4.6-5c12.3-11.2,30.6-12.6,44.5-3.4
		c7.1,5,7.4,5,13.3,2.2l6.1-3.1l-4.7-5C683.6,316,660.3,310.6,643.9,316.2z"/>
</g>
</svg>
